<mxfile host="app.diagrams.net" agent="Mozilla/5.0 (Windows NT 10.0; Win64; x64) AppleWebKit/537.36 (KHTML, like Gecko) Chrome/135.0.0.0 Safari/537.36 OPR/120.0.0.0" version="28.2.0">
  <diagram name="Página-1" id="fiyZzKR9zrA0sNpO-38D">
    <mxGraphModel dx="998" dy="574" grid="0" gridSize="10" guides="1" tooltips="1" connect="1" arrows="1" fold="1" page="1" pageScale="1" pageWidth="827" pageHeight="1169" math="0" shadow="0">
      <root>
        <mxCell id="0" />
        <mxCell id="1" parent="0" />
        <mxCell id="kCC_WI8KWP-tl8FfaSpY-11" value="" style="html=1;verticalLabelPosition=bottom;align=center;labelBackgroundColor=#ffffff;verticalAlign=top;strokeWidth=2;strokeColor=#0080F0;shadow=0;dashed=0;shape=mxgraph.ios7.icons.cloud;" vertex="1" parent="1">
          <mxGeometry x="167" y="107" width="441" height="322" as="geometry" />
        </mxCell>
        <mxCell id="kCC_WI8KWP-tl8FfaSpY-13" style="edgeStyle=orthogonalEdgeStyle;rounded=0;orthogonalLoop=1;jettySize=auto;html=1;" edge="1" parent="1" source="kCC_WI8KWP-tl8FfaSpY-1" target="kCC_WI8KWP-tl8FfaSpY-4">
          <mxGeometry relative="1" as="geometry" />
        </mxCell>
        <mxCell id="kCC_WI8KWP-tl8FfaSpY-1" value="Unidad solicitante" style="shape=umlActor;verticalLabelPosition=bottom;verticalAlign=top;html=1;outlineConnect=0;" vertex="1" parent="1">
          <mxGeometry x="413" y="15" width="30" height="60" as="geometry" />
        </mxCell>
        <mxCell id="kCC_WI8KWP-tl8FfaSpY-12" style="edgeStyle=orthogonalEdgeStyle;rounded=0;orthogonalLoop=1;jettySize=auto;html=1;" edge="1" parent="1" source="kCC_WI8KWP-tl8FfaSpY-4" target="kCC_WI8KWP-tl8FfaSpY-5">
          <mxGeometry relative="1" as="geometry" />
        </mxCell>
        <mxCell id="kCC_WI8KWP-tl8FfaSpY-4" value="&lt;b&gt;Portal de servicios&lt;/b&gt;&lt;div&gt;Recepción de solicitudes&lt;/div&gt;" style="rounded=0;whiteSpace=wrap;html=1;fillColor=#3399FF;" vertex="1" parent="1">
          <mxGeometry x="368" y="204" width="120" height="60" as="geometry" />
        </mxCell>
        <mxCell id="kCC_WI8KWP-tl8FfaSpY-15" style="edgeStyle=orthogonalEdgeStyle;rounded=0;orthogonalLoop=1;jettySize=auto;html=1;" edge="1" parent="1" source="kCC_WI8KWP-tl8FfaSpY-5" target="kCC_WI8KWP-tl8FfaSpY-7">
          <mxGeometry relative="1" as="geometry" />
        </mxCell>
        <mxCell id="kCC_WI8KWP-tl8FfaSpY-5" value="&lt;b&gt;Siga financiero ERP&lt;/b&gt;&lt;div&gt;Manejo de contabilidad, presupuesto y reportes&lt;/div&gt;" style="rounded=0;whiteSpace=wrap;html=1;fillColor=#3399FF;" vertex="1" parent="1">
          <mxGeometry x="367" y="334" width="123" height="75" as="geometry" />
        </mxCell>
        <mxCell id="kCC_WI8KWP-tl8FfaSpY-6" value="&lt;b&gt;Correo institucional&lt;/b&gt;&lt;div&gt;Medio de comunicación, Validaciones y solicitudes especiales&lt;/div&gt;" style="rounded=0;whiteSpace=wrap;html=1;" vertex="1" parent="1">
          <mxGeometry x="63" y="516" width="138" height="60" as="geometry" />
        </mxCell>
        <mxCell id="kCC_WI8KWP-tl8FfaSpY-7" value="&lt;b&gt;Inspektor/ DataLAFT&lt;/b&gt;&lt;div&gt;Validación de listas restrictivas&lt;b&gt;&lt;/b&gt;&lt;/div&gt;" style="rounded=0;whiteSpace=wrap;html=1;" vertex="1" parent="1">
          <mxGeometry x="660" y="339" width="134" height="65" as="geometry" />
        </mxCell>
        <mxCell id="kCC_WI8KWP-tl8FfaSpY-20" style="edgeStyle=orthogonalEdgeStyle;rounded=0;orthogonalLoop=1;jettySize=auto;html=1;exitX=0.765;exitY=0.026;exitDx=0;exitDy=0;exitPerimeter=0;entryX=0.75;entryY=1;entryDx=0;entryDy=0;" edge="1" parent="1" source="kCC_WI8KWP-tl8FfaSpY-9" target="kCC_WI8KWP-tl8FfaSpY-5">
          <mxGeometry relative="1" as="geometry" />
        </mxCell>
        <mxCell id="kCC_WI8KWP-tl8FfaSpY-23" style="edgeStyle=orthogonalEdgeStyle;rounded=0;orthogonalLoop=1;jettySize=auto;html=1;entryX=1;entryY=0.5;entryDx=0;entryDy=0;" edge="1" parent="1" source="kCC_WI8KWP-tl8FfaSpY-9" target="kCC_WI8KWP-tl8FfaSpY-6">
          <mxGeometry relative="1" as="geometry" />
        </mxCell>
        <mxCell id="kCC_WI8KWP-tl8FfaSpY-9" value="&lt;b&gt;Excel / share point interno&lt;/b&gt;&lt;div&gt;Seguimiento de solicitudes Local&amp;nbsp;&lt;/div&gt;" style="shape=cylinder3;whiteSpace=wrap;html=1;boundedLbl=1;backgroundOutline=1;size=15;fillColor=#3399FF;" vertex="1" parent="1">
          <mxGeometry x="363" y="491" width="127" height="109" as="geometry" />
        </mxCell>
        <mxCell id="kCC_WI8KWP-tl8FfaSpY-14" value="&lt;b&gt;&lt;font style=&quot;color: rgb(255, 51, 51);&quot;&gt;ORACLE CLOUD&lt;/font&gt;&lt;/b&gt;&lt;div&gt;&lt;b&gt;&lt;br&gt;&lt;/b&gt;&lt;/div&gt;&lt;div&gt;Contiene dos &lt;br&gt;productos tipo SaaS,&amp;nbsp;&lt;/div&gt;&lt;div&gt;encargándose de&lt;/div&gt;&lt;div&gt;&amp;nbsp;todo el escalamiento y&amp;nbsp;&lt;/div&gt;&lt;div&gt;gestión de recursos&lt;/div&gt;" style="text;html=1;align=center;verticalAlign=middle;resizable=0;points=[];autosize=1;strokeColor=none;fillColor=none;" vertex="1" parent="1">
          <mxGeometry x="201" y="283" width="144" height="113" as="geometry" />
        </mxCell>
        <mxCell id="kCC_WI8KWP-tl8FfaSpY-16" value="Gestor de proveedores&lt;div&gt;&amp;nbsp;con Terceros&lt;/div&gt;" style="text;html=1;align=center;verticalAlign=middle;resizable=0;points=[];autosize=1;strokeColor=none;fillColor=none;" vertex="1" parent="1">
          <mxGeometry x="509" y="324" width="141" height="41" as="geometry" />
        </mxCell>
        <mxCell id="kCC_WI8KWP-tl8FfaSpY-18" style="edgeStyle=orthogonalEdgeStyle;rounded=0;orthogonalLoop=1;jettySize=auto;html=1;entryX=0.299;entryY=0.013;entryDx=0;entryDy=0;entryPerimeter=0;" edge="1" parent="1" target="kCC_WI8KWP-tl8FfaSpY-9">
          <mxGeometry relative="1" as="geometry">
            <mxPoint x="400" y="407" as="sourcePoint" />
          </mxGeometry>
        </mxCell>
        <mxCell id="kCC_WI8KWP-tl8FfaSpY-21" value="Descarga&amp;nbsp;&lt;div&gt;de solicitudes&lt;/div&gt;" style="text;html=1;align=center;verticalAlign=middle;resizable=0;points=[];autosize=1;strokeColor=none;fillColor=none;" vertex="1" parent="1">
          <mxGeometry x="307" y="439" width="91" height="41" as="geometry" />
        </mxCell>
        <mxCell id="kCC_WI8KWP-tl8FfaSpY-22" value="Carga de validadores&lt;div&gt;&amp;nbsp;e indicadores internos&lt;/div&gt;" style="text;html=1;align=center;verticalAlign=middle;resizable=0;points=[];autosize=1;strokeColor=none;fillColor=none;" vertex="1" parent="1">
          <mxGeometry x="459" y="443" width="139" height="41" as="geometry" />
        </mxCell>
        <mxCell id="kCC_WI8KWP-tl8FfaSpY-26" value="" style="shape=image;verticalLabelPosition=bottom;labelBackgroundColor=default;verticalAlign=top;aspect=fixed;imageAspect=0;image=data:image/png,iVBORw0KGgoAAAANSUhEUgAAAigAAAE3CAYAAACAZbpWAAAAAXNSR0IArs4c6QAAAARnQU1BAACxjwv8YQUAAAAJcEhZcwAADsMAAA7DAcdvqGQAAP+lSURBVHhe7P1psyTHlaYJPkdVzdz97jf2QEQgsK8EARDcySSZTGZ2ZmVmZVZvM9UjUjMtIyXzN/JvzHwdmekRmZHu6pLs6qrMyqW4EyQAYt8RQCD2/a7ubmaqZz4cNXe/NzaAIEAAtDfE4rqbu5upmanqefWsoqpKhw4dOnTo0KHDpwhu944OHTp06NChQ4ffNTqC0qHDbxm6a+vQoUOHDh8eHUHp0OG3iBsRkhvt69ChQ4cOt0ZHUDp0+C2hJSKdBqVDhw4dPjo6gtKhQ4cPDFWdbB06dOjwcaIjKB06fER8WjQlv6127NYA/TaO2aFDhw4fFtKFGXfo8Jtj9+DZ/R5A8vZxYvd5P9D59Pov7j6OopOdtzumyO2+0aFDhw4fHJ0GpUOH3xCtMP+0aBpm2/BR2rL7erTjHR06dPgdoCMoHTp0+MDofFA6dOjwSaEjKB06fALoxHmHDh06fDh0BKVDh98ibkREPm2moA8HsX/ZzCMik61Dhw4dPk50BKVDh98ybkRAPpvkpEOHDh1+d+gISocOHT4edGysQ4cOHwFdmHGHDreBMnUKFYTW3mEaEd0RRtwOJnsvMzLavpePYN+cGXmzkTKTl7ccmbtMLDNvVXVylulBdNdPZq9h+m3D7InzJ7umCTuHfS7t12bNPrrz+q77vEOHDh1ug46gdOiQBe5uTPaIifEpBMGRUJQEqoiCm5W/4kiqpJSJjRO82O8AaBoT4ikRURqn4B0COAVRgWTHpW3CDkxPpgIiDkWJMZFSxPtgfEDIbU/23jvEOZqkxKTWBIUiBLwITnYSJJ3hJrP3yA6dyYl+MAJyu3Dlzq+lQ4cOs+gISocOtyEoRk80y+HsJNqKfU1oShATgiKTMFwT2CKCR3BkzUu7jUYQIzQ1xAYCoBFSsgPX0baqhiZer5FoaUQr06uxMSTvbRMB76Ao7H1T274i2NYf2N8Q8ucJTWokwQk4t7O9MzxEdYaz2YWiDjR/z0iLtXeWwOgOBnc9OoLSoUOHWXQEpUOHmxAUg5AwLYPaW5PfLUFJQAJN0bQo2bFLeh5S/lIVYVhBXUNdGSG5esVej7ZhvM35F35NqMdo06B1w3hjC60bUlVD3XD21Gk0xtym2baqaVDKgCsCZVkSQqDX6xOKQFkUiA/sOXyMYnEZBn1Sv0e5fw8sLcB8H/p92HsA+vPT4zumhMc5Yoo0mrImR/DiceJMh6JC9NBk4uZsYkEykZGOoHTo0OE3QEdQOnS4KUERmDFzJECzYsHnb2gErzrVcCSFmKBuYDiC4TZsblG/dQK2NhlurlNvb3Lx9CnSeEg93MINtxmdeZ8wHhOrilTVpFGNU8UruAT9UMx4tO9saxJlYzwkCXjvcc5RliXOGY1KOFx/ARnM4+bn0H4Pv7KELM4TFufxCwusHrub/p4DhPkBMjeA5XlYmoe5PpSFaWOct3siExqC5i16R8wmH/tUkWTkxJHNO7chIB1B6dChwyw6gtKhw20ICgniONGQoPQUxVRTAGrmmqaB0RjWN+HcRZrzl1g7dYaNc+dhbY21d94kbqwRx0MKEtXWBtRjJDaElFjq9/AJMwep4NR8UZw400IAmmbMR+S/CgmlmBugPrcof9D+Bbi2vk7VJCQE1Ht8r48UJQRP8gV1bwFZXKW/b4VizxJzR/Yzd8d+5g/tw+9dgTvugKVlIyllCaEAVaoYqZLifMCHcmJxmmhPhKmvym3QEZQOHTrMoiMoHX7voJp9LXbtuzEEyWYcM30kYyaxgeEYNjfh6jXS+++zcfYcmxcusHHqLPXFy4wvXWZ85Qq9qmJRE6GucZpwqcGnBq8Jj+LyqUVlQkhcNpdMPEtb35Y0bZmqxRApkMS2FnXToNramJTB3ABxEFtblTmNkJLSqDCSkrEvqQpHVQiyukDYs0ixuggLA5aO38P8kWPM7dvH4OAB2L8PFheg34PgAU8Ub/d15t5q5nhudxDRDWDP5ObPoUOHDr9f6AhKh88Fdnfj3QSkRfu93Z/v/v0sJCUjJOMh1eYGbn0DuXyVdPYi8fQFmgsXOPfaKzTr1xhvbtBsbeCrEUWKhBQpcQzCHDRqPiWxQVLCKXgx4V2GMDmfAskY0VRcZ58ObU1JOayn/dwFc4zVybVkQoOiooRBQXKKRvMjkeSQ5NCkpCT05hbBB7brmlFTM4w1FYlaE8NYU+w5RH//YXoH9jF36CCL997F0r3HcUcOweoSDOZJ/XmkCIh34B3JCSrG7VwmKbeCyA1q/Eye0wfVw3To0OHzgo6gdPhcYHc33klA2ggcM5OQI3ESMwvzVqgLOLVoHFLe6jGsX4VrVxmePcf2+6fZeutdtt5+n9GJ03DtKnPNiEIj9XhIIUovgNOII+EICD1QP9EktFoSCynOPiyZbiSUqIlEmhCQ9jfTJudrEiMBre6hfe+dz7LdCMpWNaSRRHDeyEJyOBxOAsEHnPPmZ5OUpPnYTlBV6iYyksK2wlMP+siBPczdeZSlO+9g/vAhlh96GI7fDb0SegUM8l8n1I4cxySTazDYG9No2Z6dT812TD1bOorSocPvEzqC0uEzjVt336ldIaFGPCIoQlJHI8JIgVgTiPggJImE2FCmBJsjuLYBJ99j7de/YuvcOS6cPMXo/GWKzTFha0TYGtNLkQVvmVHQ1m00hx0DIChmUpkVsJk/TAjHLEw477q2G13qB5DYpkWxv+3XZZKUZKdmwk6xkyYoijpPEkfthMY5quCpvKfOW3HHUZbuvZ+Vu+5kzz3H4d7jcOwwzPVIhaNOjroRiuApnM+EKpE0knLSN8nE0bUJ7nIzdNJK87H5AJfcoUOHzwE6gtLhM43bdt8s5GPOUSI5FEdxqIPkwCv4WJl/Sazg2hrx9BlGJ0+zdeIk8b33GL/1GvHaOltXruFGNQsSKBsoIgSLY8lakOvRCtsbf/ppRtti03CIqNEuEZI4Io6UX2+FPnFxld4dB5i/8wj9e+5kcN9d9I7dAQf3wtIq9AZGS1SJQBJBnPndIKataUnKbhiB6QhKhw6/T+gISofPNNruu7Mb7xJygglENGtSHB7wEftAG4jrcOkSevo043dPsvnGW6y/8y5X3z5BunKFZY2EaMnTfJNYLAcUKvhsEok6NcfsxmefoLRZctv3phFScajRF8bJUWlg1AvE+QHsWaF35BCrx4+xfOwIxcP3w713QlmgvZImlKSyh3MlHk9yELNJq312kvll6zDcbh06dPj9QEdQOnym8UEISuuoGVGiRnp4PAJbDWyOYf089bm3Gb77HtdefYPhWydIp04ja2v0mgbf1AxCQKI5trpkkTeSQJtoQnrGyXUKa8NnlaDM3MFdhiBm/ELsujQ5kMBIYIhS9UqaXonMDShXlijuP878Yw8wd/wYc/fcBYeOwNwiqIfkiQ4ar5bMbebZObWcMzIhSR06dPh9QUdQOnzmcasurJqJCYonISkSksCohpNn4OxFNt58hbPP/5J47jzjU2fhyhXmxmPmC89Cv8R7x3A4mhzTHF1d9jfJUlOnKfCnRWdaAW5Opzdv5acPdh3T96bFmDIEmdzz7N8iDvA0TmiwrLK1CFFAnWM838PvX2X+vnvY+4VHmXvoIbjrHljOpp+ihMIRBWImlOTon3ATP50bmYI6dOjw+UFHUDp85nHbLiwm7iTWsLUNl6/BydOsvfQql195g+F775DOnmKuqimGY4qqohcbvCScM4FZpZZmgIjDe9OYtIREmEaozJKW9k+6XRs/ZZglKAIW8bOjOrPlWFFpN4dKziw7ITP5PghsNRUjEnHvHtyhQ5T33Mv8gw+z54EH8Mfvgr17YW4OeoEUJJvkjAj5NvJpB2u6sa9Khw4dPj/oCEqHzzxu14UljaHeggtXSCfeZ/z62wxffZO1t95h48S7uO0tFhz0nSMouBQpFOrhkPFwmwgsrCybf0R7zJlztjEoO7Hz/WeNoDB7BSoEFbzKJCGcSkIlkUQtv4pY6vuWqLkcWNyGbDcSqanZjsKYgmpxleLIMZYfeIC9Dz9E8eD96N13IXuWYLFvqfPF3GKdYtqqHbdUEJkm/+/QocPnDx1B6fDZQetvMt1hq/gdq/W2SF3OLZKA7TU4f4rqlTe4+OyLrD3/Ms1bJ+hvbbOsSs87mqYixkRMCe88vaJEYkKSOdaqtygTwFxEJ/k5rIqvtWQ3SZnigwyzm//61rj9kT8aRK0ic1AxQgIkp6SWoIhRNyFnwc33X5KRE6eKuIRIpImOpoKt0KOeW6RaWsIfOsjc41/g0He+TTh2GA7tgfk+qSwQ5xBmktAhdsVqmqxOi9Khw+cXHUHp8OmFtiWEcxe1inOoGGlALAwnqSclR5MaqmbMAOiXJWyN4MJl6hdf4tIvfsH6iXfZPnWGcHWN+eGIhZSYi4kkiaY1U6itzJ34THRMWxAnpYmNoFwvGHe/34nbDTPhwzENO31LyuzPrX5+u/PfDq2Jxwhh63cyzVTrk8Mlyxhnj23n+XyKhJRI4kjiGbnAONhWlwXjhUWKO+5g8ZH7OfiVxykfug+OHoZeH/AWglz27SmknGtGBJlxPt7pxtuhQ4fPOjqC0uHTi1YDktfOJhUdKkoUJUmDuoamFlBPERxoQzkcwto6zVvvceXF1xk+/yLx1depr15Ft7eZR1kURy/XxxlrQ+3b1bkZJ6b1iiUHJ+fSvC1J2UVQdudU241bDbOWnHwY8br7/BO/3JtAc3bY3xR2PjFi0D6KfHcgE5RoWWw11wZqX6tA0ShFVJITohNqJ9TeXicnjPGk0McdO0TvvrtZfOwhFr7wEP7OY7B/P5R9NJSkzIBUFXFGUFoYgerQocPnBR1B6fDpxUSDkrUXMWdWy34QtU9ULqIxEhDmRGB7G949yeYLL7P2zMusP/8K9dlzDLaH+NjgNdJ3wiA4XGqQ2BC1IYmZinTi22A+FUzoURtXYthNEG4FaWvo3AK3O9puAnSj81+/x6A5B8ytW3BrzOYmadHGMIkqooKkqRNtyin3W4ISohKiWpI3B41TGq+k/EhjFJpGSGUf5uaJh/Yz9/B97P/qE/S+9CgcPQrzyzTZCXfijJuJk9/xxDp06PB5QEdQOnxqMe2aCUhIDBZSkwVfFZTKJQaoJVE7d4H1195k+/mXGL34KvXb71Gcu4QbVwycIJpAE2iDpgY0Wkp6B040+znkCBTJKoCJjmB2mPwGESTpow0zYaK8sfeSC/DMkJdbtSh+ZILCrjNkwtJqflo2kpEmJMJ2+6T4ZGYhBKIz01pyijolSMBrQV0l6iqx0e/BHQcYPHoP5aP3MP/YYyw+/iVYWkJFiM4TnTfnXLHEe+E296BDhw6fLXQEpcOnFm3XjNkHxCWPSw5yFWACQGNak/dPs/n0C6z9/NdsvfoavfMXSc02qmN6DfRqTMKLZpON4hw4Z2aLFOMkiHYqi6fibmekzm8gBm9DUHbJ9+uwWzuwO4LFu9n2XY8Ym9s14Za4nqDk/e1fc0qBGa2JpcVvP7cyAy3dQxJq3rQoicIV9ENJhbDdRNZTYlwUsDBPWFmifPRhDv7xHzG48yhy+CAsLkHZI/lAI1YAsU3o1qFDh88HOoLS4VOLtms2kmhQE9Mq9BBcE6Hahq0N0tvvcvm5F9h++iV48S38pUssjoaMy8ioHwm1UowV5x0ueBRIyfxKUkoIgnc+0xBFpmqB3JJZ6nJrInBT3IIdtAL9Vn4kmgvqtbDolpn3t/Fh0Ym57DfDzQhKC8ltmDXrpJnXrbnOqWayle9zS1hisq3fI/VLahzjqGij0Chr+1YJTzzGvice48Djj8Kdd8L+fdAbkEKB4naQuBtNax9a69WhQ4ffKTqC0uETQ9vVbiwnrt/Zft/0HUojZqqYTwm2tuD0aYZvvs3Vp59j69mXiafPMVjbYi42DJqK6BoaiajaCt+JbYKlKtWU0BSJ4pGin4VlygQlC86c5G1KDz4GgjIjzG8EhVzrZ/qNHQSlDeu9yQEE8K3p6jfE7QlKNK1Ivh6dOMpao5QcGqzgVHBqUUFGbBSNkVjXSFkg/RJCQcQRmwgKG84znJ+nvOculr/4MMtPPEb/sUfh4CEYDMAFyLlY2EVQ2vuymwB2hKVDh083OoLS4RPDlKC0XU5nBP71wiIl8wsBi9pIEkkketvbcP489a9f4tyPf8bmcy8zd+oCblzRS4meh5AaUmxQjeA9EjwxRlITkQSlDzhxOOeIeMY5OggUMVuE+b5MCErbFktxv7u9s3vav61ohp0EZVZQmkC3lPBGUlq/jdYZ1Pw5Km2IzJ4kv5CsPYnJ/qoddbZ1olC6QECMyGRSsONvfn09bF9bsM/ai/3CbpdBYt5sV5IcipxZiT17RdQh6vDqcGqmGVHFO48XRxUbqliTxCGhQEQoy5IGx/r2mK2FAfWh/ax+5UkOfOvr9B99BA4dgv4AfDG5LylNnZonrrszBAY6gtKhw6cdHUHp8LFh2rVmRXbeJup9QB0xKpoU7wPOCUkhqtWSa0wFwlyKsLkBb7zF2tO/4uLPf8nwxVcJaxusRMWlhLc6uzhSDkfNZMM508O09XPENnFi/hPJ2tiu+Nv2tqRlSlCyhNbMXzKRcEWApEhMqCaaukaCQwqP80K/LKmqMU2MqAhboxGhKEGEKiWubm9BWRIGAyh7hIUl6PXw/QHSK2iCED3gHThH0SvBO8SbVihEkMa0EBoj9XBMqht730SkTkidoBojdYWvG4oY8ZoIKdH3AZfM5OW9kZGUGpqmJqWGQSjpuUCFMtYI6hDxBPX45EjZ6ZWc+r61OZnWx6KwjCjk+43M1DMCh8dpsOdOMv8V7JY7B2PnGApoKFEXGC4t4u86zoFvfJW93/km3H0X9HrUqriinAlBTqjEHIRcAlaBGXZwlfzWdnS0pUOHTwc6gtLhY8PNCcpsThFFkydGC7DxziNOSGAag5yOJMUx/UtXqN4+QfXc82z/6jmGr75BOH0OF2t6bsZpdIeGZuavycUZPwlBneAThJ1RxLTrbhUlpURdVzjv8N7jxedEbpbWvSExrMYEH+j5QOE9znsaEhWJOjVsbG4QUaQI+H6fxjl6CwsU/T7RexYP7IdeDxkM0N6AsLKK9gdIfwC9HnP7VtDSg3eod/iyQL0ghcOJgDrz4ahrqBsYjaFq0LqBJrJ28Qr15jZpewuGQ6orl0mbm6ThNjocMr62Rtoe4TQRnKN0QkDxKKKRIiYKhRgcjROcK3ASkEZwjRAlZY5nKfAnJiHJEVhYVtkWKvlh5D4gWiCpMN2PZLOe2vGExNjDqHD0KejXyiae0dISxaMPsvytr7DwhUcoHnkQ+n3o94j52SLRzE94HH2jrzdhILNGsJt8pUOHDp8gOoLS4WPD7q5l77PwagmKKikGVM15tSUF4gQngCphuAmXL9C8/jbnn36GzedeIJw8RbG2Rn9rE00QXJtYbUItZs+czzeTeVSykBQjGT5/fforE6CazQVNjJbCTbIzZjZZALkmTYMPBcGX4ALDqqZGqLDV/zYQez3K1SXC6hK9/Xsp9qzQW11CB30OPfQAFAWUPQglDOag6OX3wT7zDryRFJxYKFPw9jqJmZ6iQkpGUmKy19E0J1RjGA1hPCReu0a9uUG1vUmzvc21k6cYX7pCXN8krm0QNkeEzRGyPcKPxxQyJkiNF0fhPM6bY2pUJWbnV59JnuQyAKJtKHTrH9PeXXsWE4IiagRLvZHGGxAUS6kvlN7jG9hMyqZz1KurlMeP03/4fo5+/7tw/91waD+x32OY/Y3KpDgV1Fmcz+Tsu0w8u710OpLSocPvFh1B6fCxYdq1siDXnHCttbCoiYqmMcMMHpoEECmCsyjiuob33yO+8hKXfvlrzv/8GeJ777O6NWTew8AlS/IVp+e9IUFhmhp9sisTFPvNLqjk1bwgeLwLpOzDorGhCG5SLE9cIvQcVYoMa2UYoZIAgzncYAFdWGTv/ffTzM1R7F0h7FulPLyfsG+FsHcZHfRw+/YY+XABnAcJZtvwBTiP1tFEqHfgneU1cWYmEYSaCG2EjIJLRhrsWtS0VhptSw2Mx9DUEBvbrq2hV64xOneJ4elz1KcvUZ++yPaZ83BtHW2uIfU1/LihaJQgDieOxkH0UCYok5ESc381XxNm7u2EpEgO92kJCmY+U6wY4Y0Iiqhpc7w3E812E9msG1JvDplfpNq/j6Wnvsjeb32N/je/DAf3s+YDgmcQHU4hunw/sj+NuwFBmb6+QZ/o0KHDJ4qOoHT4GGHCp3WQnO6bTv2qQq3eTDoCiUiRGgYkGFVw+QrV079g8xe/YOP1d9h+6z3KjQ32IJRBEBrqJDRpqkExMnI9QSELoanwmSY7mzKXjCxA1egJnmDWClWr5Osg+kTjoSGyOdqkLgqGvkBWV5HVvSwfO8bykaOEfftZuP9+UlHi5gewuAhLCzA3gEF/qhFpzR4iIDNZPUQsv1z26TABPpXxAohaHhd73e7DrlsxZx7E7Gjt/WiJC2r76wrWt+DyVeLlNeLVNcaXrhLX1rly4jU2T7+DXNuEq+uErRHzUXGieAcBgZS1TDhcMoKyow12Y1GSkRgV+0xyfFJWBE3Ck/P/E8KpinpIPhExzY0S0OTZKkrqlRWWvvIkB3/wPXpffhIOH0ZDQWrsuxLMD6mlIh1B6dDh042OoHT4GGEC0NLEt90sL5GzCEgq1CrUahVyxUWWtIGNddJ7p9l66wTr//zP1L/8FVzdoNgYMi+w5B2NNoybMbUG1JXT0078WwxtJMlEcOdqO9PvTzUpE8y0UdTh4jRQt5HESGtGLjF0kbEX3NyAsHcP83ceY+nee+kdO0b/8GE4cNAIyeFDphERnzUkDnUeda1PxAxZYqrpmShB8vs25HrnoE04jYhO1Ui+DUOW1ummmJxjh2JFsHvl7a+LCcYV0jRmJhqOYDhCz5xk+713qE6dY3TqLNXJ06RzF6jX1mA4pBccveDwKhZGnCyUeFJVevJEjAw57POWgLTka0JQMkmZ1YYpEF2k8Y3dRuw8vnHUeCrf4+rKEuWTX+TYD77P3FeegkMHoCypxbxt2/gm6QhKhw6fenQEpcPHCHOQNIKSptO+ukluVFWhzm4SzkcKafBbm/DOCS794lnWnn2R6oUXGLx/kqBQignCQiA2Fkoc8agU09PmKrvs8DeZSmUTjm1r2qienZlZJxoUVfO1yNEfqlA5GHolLvRJS3Okvavs/8IXkH17WbnrOOXRo3DoMMwtmC+JEyh9JkF27VpHNEvhJOAKPyEhCoizN2kyPO29tWcmjFja0OFkqfyz+aJF+2tVS3K3Q+xqa8LKj6R9KtreDoUUzY9lewgbG7B2jebsWbZPvMvGW2+z9u5JRmfP0bu2zvKotggqbVPbK5IUpymHUWdHWVW8Ss7N0pr6MlXZpUWx52PhyVYosiFJhTojvaaxCRYF5ErODCuGe/ax8pWn2PfdbzH3tcfh7kPQn6dWh2avawGcWFbirObpCEqHDp8ydASlw8cIIyaWBzZlfwmHqkOyyUExcgJQUEMzglOnGP/qWU7/w49Z/+XzLFy9wsGmhuCIAk1qSJooxFE4R1RHE2W60pbWbJBX5tnx0j40P402JwiqWVthEtqEohiJUDNN1CJUzlGLEEUYFo60vMDCnUfYc//d9O69h7knnoTlZVhZssRh/Xlq54nqSBrpBZ/9KTDTRsx/c8OSn0Q6T200md5Zw0x/0w7Xlm9NHD2z6UZsp5lD2tez0ExIJjdkKopbrQWtlUmYVHKuRzVOhT4JxtvI+jpcOM/2iffZevckV55+jua1NwkpUWiibKKFMadk4cuiRio0P4NMUJyC0/bRTQmKikVyCYpTRdTj1FtVIalQGpQITibhzqFWKgo2KNnYuwf3xYc4+CffZvF7T8Kdx1DtEaWt2DPVoynWB3bdqa46cocOv2N0BKXDxwhFSYx0SJJIQUnQAkli9WcFNCmbwy3KMtCLFZx6j8v//EMu/fxpxq+9gz99gcWkLJtO38RlakgkPOBFUDXSk+mJ+YiI5b9QSSAFSQtcSrgU8SIE54gaiSR0klQsGxTUE1wxsTWMnGMNZasXSHuWWH3oXg48/iirD9wLR++AhSXYfwiK0hxdxaESsFKEJpC9n5ozWmEsLVmYkIOZobibV0yEuGbhmn80+V4mLpmQmKZlhsDMoCU6+Rv5t21SuuuPCZBiMs2I5KKLMUJVwfYItkbwzltsvP4aG++8x7U33qY6dYZwZY1eSiz3SgYp4YYjKgcjL4hzeBcoIxQ5B449h9ZRVjJFaO+ZETRyXhNtM+sKiDiCOkKEKIGhOq6UBWvLCxQP3cVdP/gWy9/+uuVKKQeggqqnwTFuGope2eq1JsSP6x/BDe9lhw4dPj50BKXDx4pEYsg2kZqCPoWWuMbCdXGmPlEaJI3h5Ek2f/lLTv3nf6J++VXKq+ssjRoKKWz1PPEtMQE1FV7eNDO0Qi6BRJI0qIuI9iH1cTHiU0RE8U5oRKmJJDGSksSh4lD1pORJKqQkjAd9wqFD+ON3MP/Q3Sw/9iD9B+6GvauwuEiSgOstTJK2JMXybcwSila47XDevTEm2pGZfTsdjaeal1ZDsuvtddg9yo2cZNUVINJY4cWd3jm5FUZirF0z5558Dm5rDa5dhBOnWH/pdbZefp36jXcYnr+AbG6yNBqzWkWqnmfcLxAfLMHdqCaMGkBxwU3MO+ARMSfbiR9Kdqa1S5m9ILGopaioOJLzDIvAtSAMFwfsffQB9n3rqwz++DuWGt/30FCSij7bVUMoCjQlSifTyKcbEJLd7zt06PDxoiMoHT5WKEpNRUNCNUDOPFq4XJG4biCO4dR7rP30Z5z/4U8YvvwKC5ev0m8SA8ClEklhstJXYjYZ2RkmImzie9JqUCwhXJEKihhIalWRFXISLxCnmVCApfRyDHFsi4PFBWR5EXfkCEe/8XXm7j5GuOc47FuF5QVUIPqACyVOwuSK26o5FlZtEGmjjFqBf3MIWR7P7LuOoORPTWhOXUlvJUOn7ixtZNVs+2aPP4t8wB21fnafRHCphliZr8rVa3DifcavvcnFl15n/Y138BfOsbi5TkiYx4gYpWxSpEkWgeRauxJY7JRaeLBTI57R7dAxzUBJaloYK1/gicGzjbLpFF2eh7vv5J6//HPKJ5+AO4/CwiKj0KdSGKijGdf0yrCDQO4mJLvfd+jQ4eNFR1A6fOyIJKIqNY5Gze+g56FUYFzBmZNs/fLnnPvHH7L17AvMXb7K/ibhHMQUIfZw9K1GTvaJUMszC5mYpAk5yVqULHxFoB8dvUaoBcZiv0wOgnMEEcQFwDOMie0msVEE4p5VFu6/i5VH7mf+oYcYPPmkhQYvzkNZkkKgyYzA43CT5OwJC4Jt26BANmllQ8L1An4nbk5QZmHEZGLSobX43OzYO4X7JCdNxm2F7y2KEQLUmmg0ayFSg1/bgHMX0bffp37nNOuvvsD6ay9QXt2mtzbCVRVFSsTS0fQEQUlNjWTTl1eHV4/PDrfJKc1NCYo54EYxfuGzpcqFwDDV1B6uzs2x+KWnOPyDP6T37a/C0SOs+QDSYxlHHCZcT3aUOth9T3a/79Chw8eLjqB0+MDY3VFuNV3v6FYqJFVGItRA30EvJmRzC65do3n6ac78l39i49cv0TtznpUmspKUxsGYBLFA6M0QFNOS5IObcMpJuHQ2b0beY9VzhSSCOktspkmRxhw4a1dQ+YJhKIiLC8Q7DjL3yAOsPP4wi4/ejzt8BFb2gQ85g6tlb43JglzQSFFIrubbbm0bjKBMyclvSFB23H0jJ+hUaJrV5dbHnYWSHVZb3Oan15OT2XssxAhNFLyziKIiNuajsjWEtQ2aN1/l0iu/pnnrFMPX3iOeOU9/Y4siOHqDgPNQ16Ns0rEQZCMpRjhMgzLb5J0NSqI0onhxSNOQmki/ZzlmoiiXVVlbWGTPN7/Gof/q+5RPfYm4dx/SX8QlaEYRP2gLRhp2E5Ld7zt06PDxwv/N3/zN3+ze2aHDzTAVSTv/3gyq4LKzaXSmuRiguNEQzpyFt97h/A9/zOYvn6N3/jJ7RjULSSmj1XZJzmXtgxEA27JwFNuSM5Ji702r0MZoSE4AVzkz6ziXk4fVOvEL3UywJp5w5A72P/E4B7/9dfb+wTfoPfko1T3HqBeXcWGAOk9qc2nkZjjFko7J1GmT6+5LS1AysbjNXbvRvbUrav/l9zMC88MKTwFTL03MKrferv83+4k5Fpunr4XyJudJvRK3MAerS/iDe5g7cpDeyh4IPeomQhXNWbfOVadzFWnN12ZXlI8vVpRx2qadSChNqhGx4okCSFKLFEqKRCWNRmxub7MVI/25RXqr+5D+glm6VBCfVTAZu+/p7vcdOnT4eNFpUDp8YExCXrPQsFfcgLZYdI7mj5xadeJxUKIkFsYVXLjI9rMvsP6r57jy818S3j3JXFWxkCI+RoImovNEb/lD7GitWSJXzc0kJeUU6YIJSMGIg+UHyRlqHfgkFEloklInpSkDdS+wtbIMx+5k6aEHOPTk4/iHHoAjR2B+npHzNHVkrujZdeVoG81+K+IEyYnSwNLpmyDdvca/sWC9EYTMv3Z/sAO7jteGCH8I7DL6zLy+HqbZmMXs94VKjfP5nGI/OPBOzA+IZAqvuoYLF0kn3mP9xVcYvvI6w7dPUJ08RdjeYNFZSnt7kpYw38w9dj6V2fuys71KpIkViMN5j7hATK0btZAcxKBcQBgfPsb+r32T4z/4E8Jjj8HqIrUqvpdJcIaIRV6157L3HTp0+KTQaVA6fGC0U3W7amZGRLYmjfYTyyFiQrQVKFESQkOxsQGnTrPxy+e49OOfw3unWB7V9FEkxaw5ERrxxCTm0+GikRI3E0LsEslNBUobitoqWCbCTCzxWEgQavNBiUVgtNhnc+8C4QsPcvdf/SnzX36M4tH74chhhvPzNL5HSg6io/BipqMsqcU5kktU1MQUCd5MR6a3cTmiZ9askzUobYNusVkK+PYu32JrZXR+e4Nv3HS7MW5OUqRt+nWwI9aSqCXiSHhVgnOIc6BKo5FYK5oCbmEeObhK/8AeeisLNKoMNzeptjctFHnm2lWcEdBMCgUQybleZqBilrcggqZIxAoDatmnQkguUPQKypBIVUMcRsZbNYPBEoO9+2HvHjQI4iG12XizJs6uL/ftyfsOHTp8EugISoebYodyLcvDdo/9NS1GBBoSSfMknkxrIprJgtgBRCJuvIF/+y3WfvITLv/oJ8ib79Abj+iR8CTLRJplQMr+JdODTLOh2mo2+5PUEWkihQ+Ic0SgVnOabLJpBy/E5BjViWs+MN6zF3ngXha//mUOf/d79L7+Tfzho7C0CsUAizVxVjDYCX7iOmKCq02TbgYoIYjHibN2tWamGQvKZPsg/ya/v8XWkoZWXn5IuTmlAflYH+Tf7ja0Qjz/9eII4gjO4Zzdh8nZ8nNzwSGlh7kBfnmB3vISzfIC46Rsrm1SR4VaKENJgfme1K6BTHy8knP6GjJ/tArYEw8kyRoYkJTwmgiaLNJIE6qJOBqhG5sUqabct4hbnkNQGiCKw3nTxBkfzaSoIygdOnyi6AhKhw8E5fq5WTJFMYJiRMIh2U0kezTmUiyqQDOkuXyW0a9+xdoPf4S++gb7Nrcps8nGqaVJh/wbp6hTy4eRyUhLVCbv1XwMCgBxJM05RkWITkhOsspfGNaJoTpGq6sMHnyIpa89xZ7vfoPyscfhwB2k/jzqS1R8jszJug83kVQ7NAlGTpw5ZsrUx8T+te9+8+2WmPli26bffPtg/3b/avpruxcBsURuO5gTiBhhEe9JDmqnSHAw6CHLS8iBvczPL+IaiONItT5EmoaBc7hSqIOl2y9S1kNNSK/lTGl87p+6s69ISrlPmQnOpYhoQoiEukbWNiBFensX8CsLsLRExDIGq3et51N2uqYjKB06fMLoCEqHDwzNfgAmkiY70ZaYIDnXRpuXZJq63GnEXbpIeulV1n/4C7afeQm9co35wpO80GR/ERE7puTEYBPFxbR4jgnFLCwEAR+IIdAkJcWIU6EnjlKFUh0uOtIY1kPB+NB+yiceZs/3v8Geb3wJd99xWFlFfTkVPrvNGR9AJll7OlwHIT9QxYmlvE/5PeIIvQG9+SUGq3uY37tKHRwbW1sMh9uWWM8JhSohqhUfnNCPVqthp7EssEZYp4RqphkTDaD5D4kKaRxpvGdUOMYamb/nLsRDLQl1mXh2BKVDh98ZOoLS4QMjK0RMpZ/pAZgzqhcTHZaPpA2MsJwkSWsYb+LeeJvhT37Jxs+exb3zPlQjev3SVsG5Jo5gssuiY3KdlqzCn0JmNBaOxnsq70gx4ZPSk0CJo8BRqKeplLp2cOcRFr72OPv+6FvM/8FTuLuOMlqcI7kCoZgKtY6g/BZhvcaS/ieSpJyhxqGuMKOe7+Hm53D7V5hfWaEoC2JVMb56jXpjk36M9HxByuR3qqtqDTrZ3yl/Pt1mINaW1mzpEoTkGDUNG/WYtXrMofvuQpbmiMHhfGGmIrHU/oL1++uO26FDh48NHUHpcFNMfAwyshvBlJiQ1e1q+1QsWkeyj4ZXKDQRxlu4M6cZ/ewZ1n/0C5q33mF+e0RZetQbmWmPh7Ymi6m7qbZhxBOYGt9+YenRI+BTohSLrIkoWwk2fWBtaYHq+DHmv/kk+3/wLQZPPY674xAx9CEF0GCZYGdlzy7CcTv+0RGUm8Gem5EItVeSn1tObxfFo84jvR5uZZm5PSuEXmBYjdjY2qLZHlkfyRFdk+OhlgFXzOtEs6nN+m3uRxNrU9buJSUAvRBwmqhjw7ipqFOkNzdgbmmJYmGeoixJmmhStN7m2yKDHTp0+KTQEZQOHxy7VpCtv4hTZyrzTGK8ODyC14jUFVw4y8YLz7P+Tz9Fn3uNufUN9gSH6xcMU21J07I6HYycSD6+J+c5aU+WSclsZtY2fVuBEjRRq7KdGjZ8YLywhH/4Qfb94bdZ+uaXKZ94mHRgLxtlSaKgTEUmJzm/SUu8ZoWRtBWPb46OoNwKmsOHp3c4iSPiSGK5ZaL3pFDiygBLfQbLCywsLRLEMb6ywebGFkWvzL+2Z+I0WYg3yfQo0vaJtp/eYEuJAqXvfW6T/d47x7X1Debm5+ntXYW5HiqWjE9E8K4tVdChQ4dPCh1B6fDBsUsGCxalIwiSWr8TC/f0KDKqYW2d4fMvcOnHP2fz2RcI5y/SL6DoBWqvjOoKp0Ih2al21ryShX50FlacJdOMBsWBOpwmytRYpAaRLVHWCsdo/37CQw+y77vfZO8PvkO47y5kZZlEICVH0IBzARE3kwQsi7JZwrHT5/OG6AjKrSG0kTxGZsnvTfMBBVACmiIaBDc/R1hZZmFhnlFS1rc2cXWVTTophxvrpO4S4nJod2t+nG65ARZlpVbR2jlFvJA0Ic6izjYureHEM7e6jF9awg3m0BBQccRkJKZ7yh06fHJwu3d06PDhMM3H0RIWbeqc5nwbLl3l2vOvMHrhFTh7nl4zxnlli4rtegQKASEkxWsOFc11VaJAdG19lJykbYc2w0RQkZRBjBTJ6uFUhWe8vIC77zir3/46K9/5GunB4zR7ltFygA8D+vRw6olq5iFzX8j2qg6/PdiNzVONt0R66nA5AZtTNZ1Hk2Bo1ZRj2bOaR4f3w6MPsvr9b7Pva0+xVXgqL9ReaBxEUWJbhymbAGcJRGsV1LzTuZxlVpUUG2KqII3x1ZD+5iYL5y5RvfgGl559Ec5eMHOQ8yCOcYxdz+jQ4RNGp0HpcFtY2OjM+6zDmOw2xxMsL1cipGRVit8/y9Yzz3Pxhz/EvfsOveGInlhWrSZZcTnJBft8m9dtcg47uGKr26AeCCgBJzkAtIlIXeNpCE4ZusAaBWt79tL/4hMc+sPvsfqdrxOOH0cGc6h4xNkGra9CXnHP5BZBWiPT9IJvpSG51We/75AZojDZMePPROtNpGYGMhLhcOrABSjnKPbtZ3l5D9WoYnN7xHBzG4nQd4GkwjhBTIKXkOsuZfNjVtpM/WfFiiRmv5VEMkduF82XpTEH783hNuVgQP/Oo8jSEnXTgPeWfG4mN1D33Dt0+HjRaVA6fCCYyJ79136QV695h1WSFRgOSSfeZ+NXz+PePcnixibzDqRwRLWEWs5ZfhL7qQkoS0+fNSk5Tb0kT9GU+FSiKRAjpJTwGim0xmsEIiPxjBb30n/gCxz8g++z99vfpnnwHsYLc6iUOFcCHlWx8zrBe4dzYuecOFXu1qS0TpfXJynrhNSHQCYlU3ICDtOcecGSuKngGzHnZTeAxVW44yg8+SRH//hPWfzCE+jqAYaUjGqhToFa+kRXWtSNYgUG20jm/CRVjEcnEZL3WTMHeEV8xDFmuYTlekR6423O/ejn8PYJ2N6ClMD5ToPSocMnjI6gdPiIEHCQiCRtEIkw3IaTJ1l75TWGb5/AbQ/bRetks7QmJqmimMo+tUKrDTNWS97WIFS+AB9wClrX+Bgpg6coC2pfsCZ91lf3II8/zME//BarX/sScvgQQUok3ohE7CQXHdH4eNCSg3ZrHanJk0/7rNu732o7dm8sDHCP3cfB736V5a8+wejQXi4DowhzlCz4vvWNnHcn16fcQSoSKWvHZpysc3FDxYhqocpg3DA88T6XfvlreO8Ug9hQxAqnM2UVOnTo8LGjIygdPhoEcEIiEbWxYmvXrrL2xltcfellqnfexW8PJ6r+iUDKG2qF/ho/JSj2vbyyzqnHx75AfWGeDKqUAkXwiBe2cYz7y/QefJDV736T5W98Gb3/TlhawmthWW07/G4wQxha0jAJK5/pD5MgrV2Ept3oezi6l8FXH+PAd77K8mOPoPv20riCohF6sU3fNnOuXXowaDU3MiEnmSYBjiY2aDVmSYX+tU3OPf0co5deg411ekRcV1e1Q4dPFN3M3eEDYDrVm87DMFn1qqIxUkSFrRG8f4btl15ldOJt/NZVitTMiIF2s3Wsw3xNWqHlZhO0tWd1gjrQ1CCpwXlBCse2g8sOLs4PGN53N6vf+Cr7vv4V5PhRRv0+ddaKOOdy1aDpv1lcrz1pbT355a5PO/wWkW/uxOxzA3KiApVzbJcFHNzP3JNf4OB3v8nCU19kfHg/lwWuVmOrWj1xrrY6PZiCb6qlyScSFauipAHRAsERY0NTDelpQ384pHn7PS4//Sy8/a75VDX1zvpUHTp0+FjREZQOHxA5rHMXSQFomsYIRV3DufPE19+mfv1N/OXzLFHRJ2Wl+pSUOMQcGtujZyLg8spaWjkgYuGgosRUW8p8p1Sp4VqsuBIE7r6T5W99g6WvPoXeexfD5UU2cAxz8TiRG9gNdmG3X8mMvOwYyscIbTlDJoVWHuH6rfaOLe/YmOsRjx9h4WtfYv+3v07/gfvYnutzramt9lIuENlkoqIz/clISUtOHA6PI+CsihDeC6QaqUbM1xX9i1fZeuFVtl58CS5ehKomxoi2RTE7dOjwsaIjKB1ui4nOQc2C0wr5djEZnMM7Bxvb1G+9x+UXXiaeOoNvtpFeBJ+mhCNjlgDMqvnbla5mAVM7JUmCNIZYEVwiOWU9VqyXAXfnMQ58+6vs+8OvIvfcifT6hARzQImCxBm20+ETx+5nmzVk5Gc8a/5p/VOu3xQflX4tuORpyj7ccYiFL3+R1W88gX/0bkZ7F6iyH9NukxKTvtYmjGv3OFAPGiyfjncQYJTGiE8UzZjRmTNceP5FeO1NqGpSSqYx/MxqUm7C0Dt0+BSiIygdbgslkxHNS9IdU5zirNwvrG2x/sY7XHvpdeT8BXpSQy+Cy7VMboB2dWs5MaxGCmrHjw5qhyVpS2MkjSlcQr0w8gJ7V9n35BMc/NZX4Yv3wp5FcIEQYS4qZVKkPWA3Kf9OIDs0GFMNGTmzzW4y0T6l9om1W1DHgpZ49Wzi2OoFOH6Y1a89zp5vPkFx12FqbxqUNENUbvTUhfbARlJEPeCpU4PveVKhJGnYM+hRbm6y8dqbXHjhJagqUkqT7dOED0aYunHQ4bOFjqB0uClUlaTZa0OyykQhxalwaVIEbWBrHd5+k41fP0d99iRFM6SPxzUOYvZTwSrZ6ozPCYBXIURTvSeZbqJCSBBUKT1EL6ypcsV5xnsO0n/kMZa+/k24/yHc3DL4MvuOmMOkZOFj9Vnav5b/5LaYUfF8gG93uBlmfHlsm5rRnGSzn7Rmv6mPklGGdhNCzl8TNFA2DmkCGubg6F0sf/ObHPjud6gOHGLTFTSVEnB4JzSpJqYG52hZ9qQfpvwKTUaKU0DoUUiJV6FwMJCIXDrP6Z//At5+j97VDYoYQRNVU1PFhpgyo05AtKjklCCpkjShGiGHwttgaNBUT5IPaoqk2JCaGo21ZdNV09QkhahYpe5dFKN9bedRYkp2vpQgxsmWYkMdG2KKM15Y7dE6dPj0oiMoHW6IdkWmatVn81QKCk2MaM7AWqcGNJLOnuba888R33idhdEmCz5RJpDGI8m6WdJMbPLitfU78QlCMkoRryMoQsAISuOEazGx2Z+nd88DrDz1VfxjX4Q9B0BKyDV1xDkclrFUsn/BlJzMFpS72dbmQ7GtYygfEbtvqJsSlJak+AlJuX7zbWdBCOqYiwUlA5Kfp15cJT38EPu++10WHvkCuryHpjZTpDgQpygmpCUT7PzHBHWux4MqzvWIjcNrIKhQjbboa83icIvxm29y+elnqd87A1WD90JDom5FfTIOopmcRIWYMmlIEc3jxLb2dUuO7Eei0w1NpKQ0MVE3kapJVI1SJ2gS1NHIS0tSWjOs7u6uqqgmIjGTJdtHXjB06PBpRpdJtsMtoWSnkKS4bNBvSGhwQMTFGr89ZOvXL3LxRz/DnTzNfGoomoYUFSsbaKnXJsJ+h9A3YrJTZTHDDMQifjQmtlVo5uZx99zN0peeYPWpJ/D33oXM9a2SLVkYzh7DdnYk4zOM9hG28jSRSY4TEMV5sbrI9TZxtM3w4iV0OGSQlPlQ4ATG4zHeBytXuKu72WGtv7RZUtq+05qMKu+pFxYolxYYrC5AIRSxpqzGFka/tY2sbyAbm7itDfzWBn5zHb+5jttYRzY3YXMTNjZhaxvZHsKoglGFjMdIXSOSspNXRIhYOcUINGAUgwgkTVYeURytYnPKNayjS14EJBFqEWoBEYfP2sX24j+QNrFDh98RRD+Y8bLD7xnabpE0pwNPik+mgB8SoXA4GspqiH/vDO/9//495//2P3LHlWsspRrZ3iA2StnrU6sSb9HLJHMgwSba1rHR/BKMGGkTWeuV+EOH6H3jKyx971sMHv8i1ZFDeCkyEWoJSnvg/F83B38mcKupyLQf1jkaXO4jitOI1xqGa/D+W2z/8Odc/nf/meql19hbNawsDqgdbAyHiO9hlX9uDDW+M3HUTmLRQLWHq72S8T33cPAbX+PIlx+DfSsgjlhH4qhBR5HRtQ2IieiU5ExXKCR8soSDgoB48J7kAsVggIQCvCN5oVhdgPkeFAGKAj83h/RKCIEojsb3SK43MV+2fltE0JimtrGsS4liFcZrlJrEAM8An4dIpmUdQenwKUZHUDrcENNuocTYgIKTgIowShW+EEoibmub8X/+EW/9f/892798hruAXqpJw20cHu8CTbb33witY6SKmXpmE3ZFlyN5ItTq2N6/ysIjD7HvB99l8O2vwR2H2er18OrouXLCR3YwknYC7ubhTz1uNRVNzB4IjdXKNmuRJgIR0hBGV+GVN9j823/k1H/8R8I7J9nbKxnM90kK46q5JUEhd5PZHDwxhywPC8/aYI49Dz7A4r1HSYM+47qhrppMUGqqqxu4mIhikWazBEWSoipmd8pZkUMmKOqE5B1+dQ63OKAYDPD9HnOre+gtLRqR6ZXInn2wsARFCb0elEZeQKlTQp0gwSMipKTmACw+Rx1l/pJD6FtP5Y6gdPg0oyMoHW4NVZqqsonMB9QJ42ZEGaCox3DlKmf/H/9vNv7pp/Deu+zXZDb2lOj5Pk0VSS5Z0s6boHEmCIoIIU25RONs26gh9hdwj9zHnm98mT3f+xb62IOkwTxbCEUS+lJMjmcT8CxJ2fW+w6cSt56KzHcj4ScEhZyw3mtCZUzNFv2r1+Cnz3Lmf/2PXP2HHzO3ucXq/BxzgwFbW9v5d9dDMEZiRzW0xNkigoS17RGDvavoyjwjJ9TjBo2KRAhNohjWhKimQcnmGlHFKxATKWK1oHyAEAi9PhqC+dY6qHqO2Pe4XomUJcXCAj6TE3olxbGjuEMHKZaXGOzbQ2//PmRlCeb6NKVpZsQXgKNpIpIcgQKfzJ8LL6SQr7cjKB0+A+gISodbQxVtIqiScoE1JwmXalhfo3n5VV77v/8/Gbz8Fr31q8zVI9SZDd8nc5BViRYFdAOoWChx46CMUMxoUZocZnzZFcjBw6x+5xvs//638Y89Qjy4H5EABFBboU4gZDv79H1HUD79uPVU1KA0JBwNBWqeIjggJAUaIhVFPYL3T7L1zz/hwt/+PaNX32Jha8ze+XlGo+3dB4Vd5OR6WJtUYDge4+f6VL3ACEUbxaWc7k2haBI+ZRNPS1BQXFJILUFxiA/gAuIL1GUHcoFUWE2qRpUIUBSoDyTnaESIi3OwtEBvzyrz+/ezeMcdzB8+RG//PlhagD0rsLIERTExI0VnhAWsOKfzbnJNfCiC0v7mg36/Q4ePjo6gdLg9ooImYkpEjZSFg2oIZ85y8n//O87+T/8rRy5do19twWgb7eWJtxJ6rjSConH3USFP/GNvtXh6EcrG/A0Em6xrJ1xYWKB48CEO/+WfsPxH34EDB9gMJb3kKMSDmK/MLHZPvLvfd/j04dZTUYNSEcUTKSemmrZysVPNVosxOr5K/fIrXP3f/4lzf/cj+ifOsb8oQKsdwpnbkhMj6JbgLSFOSF4YB6FB8OqRlCsnZz8TSCRJMz4oOTlciqSo5oLrgm24yXUI4INDVambhjom81dxniSOJBCdaWeaskTm5ggre+jt3UdvdZWwtEQ8ehB31xEWjh4hHNoPy0vEuQGNeKJ4y5mb7Erb8fDBxoXmTTqC0uETRRfF0+H2UMCZY2JKDYEKqiHp9dd57x//GT3xLqtVTahrfEp453BkO7h3OYanVcrv3ACLSHDQSxBSshT44hgGx7XSMTp+J4vf+BoHvvoUcuwIhB4VDheFkBxkZ9pZ7J54d7/v8OnCrciJicfsw4FHxOeyCW1yv2jJeWKEOEaCkYaF7W24dBV3+Spxe4vgc6TXLtzYTaltT3t2a2PSREpGor0qkiLEBm0aXIozYcKtU+80tLkNlUbM8cr4jJEa1UTKOUtSyrlMwDQwKF6UXlCC1uh4RNreol7bYHz5CsMz59g6dZb1k6fYPHGS6vQ5uHAZd22DsF0RqkSRMMOYREQsHiiRLCIvj502P4y9y3dDba8lG1DaSKcOHT4JdBqUTwE+7kfwkYSzQmwi3nvUQd1sU0oFl86z/rd/z+v/n/+Z+TMX2Dus6DdQRksZGgXGXmhcTra2U8ExgaI0Ytlh+wqhbiA51AUuLfQ4v1Ay9/0/5PBf/Uv23H8frCyioU90BZJAa0ASvrj1NX6ke9DhI+M37eNGD7Lw1LxHjJyQTDvhcma0lCJOK0QqOH8OXniZ0U9+yfDHz7B54iRzRXFT0SrkQ0/25DNLftkSltlstzNaO6fWx51CEp1kxt2Z8yeH2qu9bvnL7DHJ328pvIhpWBRFpEJosBrfHiiAkLUwjsZ5KhE2eiXN8hL+6B0sPng/e+69l7kjR/B37kMPLpJ6JalXEsXT4PDi8eIn97pNcGhaKcsjoxKtXpGE66jcLLpx1uG3iY6gfArwcT+CjzJpqOZFHopKIqQKxpvw1ptc+F/+A2f/4z8wf3WN5XFDGVt/AMsWW80QFJ/n8sl83x4fJbpEclAmJURlVCs1no079lLfe4z9f/5nLP7hdylXV9DBACn6KMFU+o1pT8TvPvIUstsnpcMnjt+0j09/JWiCWpWaBk0Rp4l+TsVHjDAcwtYanDvN8I03qF5+jfqVN3Bvvkt95SpF2bupcL0xQbk1dl9TW2tIJ5FpNg7s9fTUk3NoPsZkx862GQ1re64iNIhEzONcWhdh+4YK6j11UjZIjMuC8fwcsmeV3r69hNUVFh84zvLD99A7sB8OHoDlVegPiC5QOUtsaDomD+onmk8kgmsQPK4jKB0+QXQE5VOAj/sRfJRJQ9sE3SkiGilJcPkC1S+e5vT/8h/Yfvo5FkYjFppo/gDJZmnFMr8mkUn48Gwr2itWUZJTIhEflUI8G1ViG0/z4N3s+YOvcuAv/oz0hYdofEDLAud6gDdTUJquUIFJ+OQsZqf5Dr8bfNQ+rlFINVROGQVLZBY00q8bilEDa+vUb75OPHeOtXfeYfvNt3AnT1NcvMTC5jYSI9EHUtZI7Mb1BGWy9yYQu6bc8dR2TaCZpLdkXWnzds/cB81mE7Af54NIPpQZU/J71UxSsqlUmZhb2rb7EEgCo9gw1sgQiCGgZSB5hx7cx9y9x5k/fpyle++hvOdeOHwHaWWF8cIChQZCtAip7KoCDlQakLojKB0+cXQE5VOAj/sRfJRJoyUoTawoNeFihLdPcOU//Ccu/N0/whtvs4Qy0NkATruedk87oV7/eV5leovBoFGcC6xFYdSfx3/lMY7+xR8z/wffIh0+SKWJKA7nCpx4U6uLBxHT8tyAnJDPf2Pvgw6fFD5qH9cETZUsdb1LlE0FWxtw8TKcu0Q8cZJ3f/EL9NJlqgsXqS9eYDAa0qsrFoNQ+kDdcNM8KK2Q39lLjCbcDHZJ9rn15R2fQuvPIfYqu55MT5ZJx/QnOwlHq/mzsWPfFcynRSbjuiUwoMGRPERNNBqJgIqzukOirCdlFEp6Bw+ydOdx5h+8n/Kee5i/927k2FFYWoHeHLiAOsthqzDJaosI4vwt78lHmWs6dNiNjqB8CvBxP4KPMmloDu7U1FAisLYBv3iOM//uf2PtZ79g+do1+iS8mpkmkecvtSKATifTdJ7u23f2fxKLTIiS0CQ0SdjszeOPHGP++9/k4F/8Me6+exjO9VEE8R6HR5NF+pTeoiHi7ES/C9IRlN85Pmofn/ThpobhFly5Au++y/jVN9l69Q023nib0bun6I9rfFXhYoWjwZUCJTgsqszdJCHPhBRct/cW/UbN4bWlGbsJin0yfd/2edOoTH4FU5qB6JRwtLC2mWbyZgQFhconKqeIGBlqfUiM6EA9TlSjSBV6ML9Ac3A/xfE7WXz4fuYfuJfy/ntw99yF9ufR3oAknpQjpLwaQcHf+P61+ChzTYcOu9ERlN8xPonbf7tJQ7UtmnYDCDSpoRCQGOH0OcZ//yNO/+1/onr5FfZXYwoseqHOBf3I9vgimnknZVu8TbxTExATghJJDqI6xlGo9uxn9bEnWPoXf0j5/W/CyiojsTwO4qyWSPt7Ecm2+t2YXrN0BOV3jmn3mgrlWwr/XZCmgdEQ1q7BqVM077zD5quvsvbqq6y/8SZybZM9YZ4i5ugaTNuSXKShQRP45I2o3ACtkL++RbN7bjxGJiacGbRaj53Hy7RkZud0JNjOTDemyITFGhdz6LKAWtHLKakRGlGarKqU2ZbnF8EXCJ7xuGY0qthwwMoixZEDyME9LDzyCHuffAq3/wDu0BFY3QP9PslJrv2DVYW+BW4313To8GHQEZRPELe61ar6sQ3ulEMWfxMI0DRjyiLAeAyvv82Vf//3XPq7f8affI8D2hY0S4y8UHu7BqfQa4QiWv6GJK0fis7Y542g1NRQCElKNmtFjxzn+He+R/HXf4I++TC4gsS0CrEC4mz6bzSiqkZeZqb5WcEiHUH5nWNizRDF9Gw7n9HtIOtr8O4J6ndOcPWFF9l+5RXiO2/jrl1GNq9SUrIw2IsmIaoFyzovFiKbYiYMs85KzJw/E4kbEpQWs8Sq/antmyUdrSlTcp2cWXmuOSFb+9pGw+x7TEsx8/m0RytIBdKAetAA4q1StzpznNXWpGS/SyKoCDFnw8UL6qAcNxTjhphqVBLjvjCe8+iBIxR33kd5z30sPvoog4cegqNHYWGOcbCWBNlJuj7svPVhvtuhQ0dQPnbEvFlYYfY6A0DF4hA1JavOOlGf5skwh1FOB7VMp7J2xleFmHIOiLjrdd7GI/te+6Rj2jHXErwtjbw3Fe6OvwKMYVCaeeeFVzj97/8zGz9/lt7Fi+yJCZ+t1Y0TmqxPdiqECEHFNCg7VpNTx8EkSqU1lIGh77MuJeVjj3H3v/gzyu99i+bwPnAeHyyV/eReZKJSJ6sT5H0uFmgfTl7Zu+vWpR0+aeSumkioZO8GtX4i2ezSppRXJxSqprEbDmF9A06+x9Vf/oytt97h2qtvUL9/ivLaGkuizAch+JKogSYpTdOQSPSK0lb9YlV72/Qku5FHY3ZEnd0zJQy2IzuoTr41NVdOzTamJRTMrCQi2TxjtMyWClYbR5RsJpqcwY6eeZRimZutHWZsNS2KhQEbOTETp0X25DGej9ceXrPGsooNjUYGLjDnPM6BamJMw5iGDQpGxTz9u+5i5aGHWf7io/QeeRCOHYY9i1D2wRVElKg2pnEyub9tgkU7/Y1HXEdQOnwYdATlY4RqXvVQ5TW8A/VoElQsi6RGReuElB4NM+pcIlrXuCx8STneVxU0QtNAbKCqYW0NRiOa4Qgdjai3h6TxmDgcosMh4ytXKFKyFZ1CHI1xObJGRUiFh16JH/Sh38MNBtDv4QcDtO+RZU9/voDzV9h48TXO//iXbL/yNvNrW6wkIZBwminIxOQya0tvZ+M82WZEZ0Kpig2pCFx2fer9d3DwL/+MO/7qz+Huu1DnUAeuzEVEOvxO8JGnCTUJHSXSuMb6sCZ8coRoRSiTEyt74B3zTYPb2IAT7zJ66WWu/PpZzv/qZ/S3RxTbFeW4oTeOeE14FHUW0m7y2QSly+YPlznCTnphEHL3tNgVIw+Y5qHda0ebakfacOJ2rNp6wxxR7b3dK+9ybpHsh5VmTUHJqnQ7tXZqSy7aWyWYT1cmPknspC3RFwSnHqchL3oskaJdvxUpJCeNk6z1sKuzCJ2W/JA1m0YRA4nAlg9U8/PonYdYeuIRlp94iLkv3AcHjpH6q9TOUWNFEUMZZu61YnTJxv+N0BGUDh8GHUH5uDBxDm1D9MxubLOIy1kxpxNmwtLIoxEv4GJEmjZDZg3bI9ge2t+tbdjaJm5sUq1vcOG9k1BXpPGYVFfE4YhUV6RqjI5HbF26RNBMUBJo1eBUcYpNZ06QokB6PQvjnRugZZnfBwZ751iY79PbHlOducDGW++i5y8xGNcsILYqztO4qE1Q9tqmeDUJMHtrYKZIYExKhXBpboniwYc5/Fd/zp4//h4cPATe2bGzb0uH3w0+yjShqqa9SFm6h5asJhOuySOacJIF5biGCxeJr7/J1WeeY+P5F6jOvIdcu0hR1ZYZNSo9dYS8go+ijGI9IShOs+ak9eFQJlq33ZCsPbFU9djCQSTncDWyYsfN399lCpIZ7QmYVmFyv3Tqo2KaxNZvyrRHZvbMYyU7tbbBx0ZUjADtJj82zjxOc1SNGvFI0hKUnJ5fk52rJV4K0ZnZR029NDVHRcElTx0CQ3Gs9Tx6cC/Lj9zPni8+yPz9D+HueQj2rsDSgFqEEQmvjjKZEdUcdCd3Kv+doiMoHT4MOoLycUHz0gkrGkZWfrSzlc0zNiOrA00RjbURExWoKvP52LhGdeYkrG+Qrm0gVzeoz11Cr25QX1mjXt9g89o1iA0p1qSmoakqNNl7YsOgDBNCYjVDZv4CTVVb+GAIJB9IRUEKAQ1WdKxODf2yoKeCG43RzU3ceEwfpRc8Q2loRG3SVCHg8KmdfNvqrjYJtjN9kmm14rqKRF+yfugwq9/4Bgf//E/wX34ClpaIOT1550Pyu8VHmSZUzaShqRVgZsqJArVYXZtCI73YEDZHcPIs9YuvcO3pZ1h78SWaE+/i6m3m+s5KKSSrEFy6MBGKDUoVm1YMIzpJYdYq76bt2dGV7EOnik9GFibEBJfr4OS8IJlgtL8XpuaZlLLZtHWvyec1QjJZl0wIiv3evjPRPiTFpxmqk4lPS3CMnEwvxqlFtLVoHETJhCuTLkn5StQGnmL3PTojKDpL/KuEr5TQm0NdYFOV7eBhZRG/f5XeQw+y/5tfp3jobty9R4kLi2ygFLVjbhwQD1pO/ctuBHc7L9sOHWbQEZSPC5r/U1Pntmradn3k7eabhiQlqJtMSLbhyhpcW6e6eo3q4nnOvfYisrVF2tzEbWyTrq7D5pC4vkUaVywtzKOarCCfRmJsJu9FlfleuWOl1hZWazUcTYwgLuc+cETniAjJecARqxqvQnCWtdNpRFIkZDeVkUTiLEFRR2hXhwqNs2RsPpOidsKtghUDHFeKlvPUjzzIoT/9AQvf/Rbccxfa61GJw4sQbpJgq8Mng486TbT+FylZ3RnV2TTwwuJoBFfX4O33uPz0s1x59nnSO+/CpYsMRkO8NvRKPzEeCHl4aQJRkmbBaKsAI+RifXAWswRjdq+F0tqHpkHJJliMoCCKw87VHmNCF8Tuj5NMo/PYt6ZYA1Sy5pRcOypfg874tfgZLc4O5PbmI012t5pKa4+Vl2idcFvyI8nGeEtQmPj6ZIKSyVMS8FHwSfJywJO8R0PJSGCtGjPeu8LyFx5h/slHWP7qF+k9cD9xaQnVEld71Cmu76+rizWLjqB0+DDoCMrHjewjq5KoJZIkgouUAi41sDWEzW24uo6eu8Tmu6cZnzrP+vtn2Dx9Hlm7Sti8iq/HUFe4psE1DT4mfLTVaG/QA3IiqHaVZUszvEKzPbLJN+shZLJONNVxyhlfVYSUJ+ikQlRBEiwWA6gjiuKLQNQEDqI2VLGCkP1EstNjUD+jQYHGZ3t1gpC7WwLGwer1jCqHX9hL+M5XOfzXf4Z78nHSvr1EsZo82Q2ww+8QH3WaaMTqESeUmCv/BsRMj02NO3Uenn2JtWd+zYVnn2N88n0Wh0P6ongiLkWCtsI491ttbS3W51u52GoQ/MTMOCUm7d9ZTLQNgLQEZUJOHIhDSJRa4zSizgR7zMuNlnC0yoj28K2mRFVNfZJK0KI1ek7+kk03+ers98aJJsez19lcldH+2sxAMxlr21E+MSG1v89nywdpz9b6uxS+IPjAeDSiHlc4PP1yAOKIClsOxoMe8e6jzH/li+z56pfpP/YF2HsAQt8WKbfO49YRlA4fCh1B+ZihUZEkVtuLBuoRjLctp8PmFpy/xOarb7B95jzbZy4wPHuBeOka1dU1qrV1+nXNanB4jUYqBHqFxztHyIN9e7htM1BePSLJgg+cTVCtMx6zWggFl4uatVv+kfnHqJEVAUoJxKYBIPhA0rwKzpVQG7EkbZLt6l6dre7ypNi4hDqljEqwgCYSMCxgFIRhVbBwx12s/NUfM/eXfwTHj1MN5tBc1dg735l4fsf4TaeJ9ndtH2tQalV6TaQfI2xswplzDJ97gbWfPs3mm28xOvk+vfGIfWVBETxVUxNHFf3sdNo4E85pRqC3ETjta5er1NASlGxWyiMkC1HBInPacdOK8J0mHkVwqpRqTrnttUSXHU5zf7Zg+xmiNPG3MLWhiwWS/MQV1wVv58zOr07T5MyQTbBqpMlhF9FSFDP9tFvKPir5vGrj2EpByITYJEkkZ+2bPbaKmYYSSnIQnCclJTURSRah0ytL6uBZq8dszg3g0EHmH32EvV//GotPPg53HIJ+Hy3M4flm6AhKhw+DjqB8zEhJSUkJokZMLl8mnT7N+L33qd49RfXe+6y99hasb6Gb28hojKtrPIp3Qg9HT23STXlSckWbicmBKONxNVkFotE8+PMcIWJOLpJt6WA8pi2sPlnNqeYIHHO+a1mEiuJ6BU2K+ASF89BEUt1QiBAKz0gitZgzHtmLf3Yijeb0Qq+BMpoQSA62CxgGx3bqs+++R9n7r/8C9yffhNV9bJd9QhJcUpwPODe1tXf45PFRpgnTIFiXrJ0yFmV+XOHW1+G1t9j45XNc+MXTDF99jXK4Rb+uKFKk7wUXSqoIWtX0cSSB2mVNoaasIckmS0zouizc29J3xg+E2Jo0Ji2bEohW0CstkcmaFHEkjOgXjR03tU6mwVkkmhMiQNknTnR9ptFsT+EUfK24ZG1IKFETkZQ1GkqRIoW2OVvyNajVm3ItOVFTrShKElsgJJfQ7OcmgFOHSw6nzpyE829rH6l81mQmJSQr5GnkDSpNVJLwRYELDk1K01i0lXNC9I6RNtSNw/kB9b79zD3yEItf/xJzX3+S8p67YX6JdAsS0hGUDh8GHUG5AWZviGKTa7uvndJaf452VrQVXZ4kWofQpBYGPBzD1hZcukg88S7rr73G5dde5+rrb8Llq6wkpZcUKsvYWojgnMMFR5CAS0KMiTpGokYk5y8wxzyl1+9nFbVN2mbjnyzjbEU4WT0KMVpieMlOey0slwEEZ6GDqBJRNFjyK1GlEIc0iVQ3BBHKsmSsNU22zdtxZgkKqE+k1FDkkvSi9p0tL2wHx0Z/iQNf+jIH/49/iX7jCbS/SOX7eOcsHNN5C7Xu8DvDB50mWl+QifZAs2YvC0onEU1j5PIVePsdNn/xLOf+6Sesv/EGC9tDFoJj4B2xGpGaGvEBdQGfg39SXu2rWPbjlpyYb4qzcZDb6shmS9TqSWU/Ee9y0j/ss5THQkwNEaURT/SeWhwxBBoRa0PRR3wgBUcKDj/XJwbJNXA8y3sPQs7XQztX5NsgqjTbW1DXJFWSJkbDIU1T2ziOiWI4pqhqaBpcEwlVQ2iiOc/GPHqdaT4lO8NCJKnpblwyky5qlYntGrPXjpqptXHmZGw5iiCkdkYDLTwaPKOmok6NzRHi8MGjmogpGsFLgjbKZlGiBw4wePQh9n79Kyw89SQ8cB/0+xBKIkYKRazN1pIZ1tahw23QEZRdsGkgC9ucmdFuUL5NOXzRVictQYnEVDPGnFK9QIgK2yPc5Wvw/inWXn+Lq6++wfobb6CnzxCGWxT1mAFKLzuxtUO3ndjs3B6lbC3Tds6UbLC3CaFEJi0nC4nZSUCZtbtbYb3Zh97OUe1Ebw680zbgjaCA4sUh0UKWVduIjNb+nQ/k8lW0dUV8YjjawpfBQknrxFzRZz0qG84xPHaUY3/yRyz/qz+luf9OHAOcDEje0nd7cfjOSfZTD1VlHBtU2sR5RnJJiiUz9vTSCK5dIL74Iuf+yw9Ze/rXhHdO06tqBhMHbs1awJSPnPt+Gyac+2VqI1bUQluDC+aQnkw7iDgap1SaqDUxrmrKUDBX9ChDgRPHuGmIDkIRqIYjaoWm7JHmBox6JX55mdTvkeYXWDxyDLe4SG9pgbAwx/z+VWRQ4uf7+H4ft7ACbkpQJibX9nW9BfWINBrTVDVxXNGMx1TbI9JwzPj0JdKla1Rr66SNDdKVa7j1TUtWNxxSpzHiI6VzlE4IgEvJ8iGlBl8robFxmESQEIxQ5cRqktVMXi3dgNf8Om/RCck58+8RI24TR+asBQqqKBF1kaE4tsTTLKxQ7DtC/8uPc+y/+Rdw7BjsP0wtjrFzOAcFiZBvQ7t4IT/TDh1uho6g7IJNKa3WxFZeUTQP6FkSYeuBVA8hVvieJ3lwTYKtMZy9DKfOs/H221x59VXqM+cYnz6LXLlCfzik1IbgEoUootnugR18MhFngmJD2wS0TEIH7VPJK8VWi0NW3MyindQNYsJi97wwUQ9ngjIzMamzLAqKmvEmn78lKCYMrDVKa36aOiiKJMbjIb4fiBrxtTJfDliPcM179MnHOPKXf8rC97/F+OhBfOrhtU/ylt/Ci3QE5VMOVSWlZI6jM33LiyOIIDGi4xFy5jT1yy9x5ee/YPNXz1K9f4b57TF9PCFlrSRmEmxTi00650SYTX0/2j6vSWmqhsIHSl/gnWkNa01UGomqlL0eMSZiTFSqjFRpykDqFaReQbm8jMzNMbdvH4N9+5g/dIj5gweQffug17e8PL0elAFKD2UBhbf3ocjNnfXzmiEnqPmg0exMuhgVmghNgmubFsW3tQVb2+ily4wvXmLz4kW2L1/iyqUzbK1fIm5swvaIfh1ZSI6FEJh3HjducFW0ewOIdyhQx4a6qfFOCCFk81c2H5EXJko2GYuN9OxXo2BZVTIZtO81qFTUTqgQKtdHBiuM7zzC/Le+zMqTT7Lw+Jdg7z6qoiR6zNE5n7MjKB0+KDqCcgO0t0RVqRzUKGWCMk6JgeYkYzreJjRjpFeYm9yFdXj7FPVzbzL69ZtcfvctNs6foqxq/PaQnjYsBId4BRctTHJ3sb4dScnMFt4yCskrUiME9hs3mVTads/8fBeUNuW+oZ2cJL+WlvBgp1RagpLPTz7B5Bh58p0hKDbntN9XJEViUxEGBXVT4WoY9Oa4pnDFe5b+/Acc+W//JfLEo2wvL+JiQdAeZGdIL+Ys2+HTixitJpJ48xNJuY94LDSd8Tp68RT67Eus/+PPuPL0rwjvnoJYU/QLCkpcCtls0WpP2uJ45lNlxF0mBKXdzC3D3rgEIUrWpIAEjysC4oTh1hbRO+qiYFQW6J5l3N4Vwt4VqpVFVh55kLg4z/yevczv3UvYtw/mF2Bu3uLpe/1svxWbA3JStZQ1rUUop8JXs/aINmmbZr+vZORdLMEcysQk65yzMhR1Zabh0dCSM25ukrY2uXb2Xa6dPsHmybNU5y7B2SsUl9cpNkfMjSOFKkVLhtSqVThRYtMQY4M4CN5n85DdxzxlAFaWImRVaz5KHurZbyY7GlviyYrkzARcqaNxPdYHc1QHD3Dwm9/iyPf+EO67Dw4doO73aMRMxKX4HefsCEqHW6EjKDfA5JaoWnikKCGq+U+Q8y54qxxaVmMYD61OzdnzVK+eYOP519l+5R3Gb74Pww3mCvBNxMeIFyV4IUokSoSslZlg1n4/u7NFnvjbcGIV8spyN0HZfYyMvHBrP3czat7285mFataI2Gq0xc4us7P73JCgRHO0C/3AqBohjdDvzXEZ5cqgx53/l3/N6n/9F3D8KJtliaRA0DLztIQX1xGUTzmaHOXlgkWpZPEHMaJVgz97kuHLz7L+01+y9pNfkU6eYs/2GBccrl/gtCBVba+ZJSg6Q1CysGTq2KkmbZHkCITsICpENWrTAMk7xg4uj7YIK8v0DuzF79/L6oP3MXfsCP1jd8DqMhy/04hI2TM/iqLMV2dJ8JPzk+yr7RUmTTRNJKW29s+MY27+OwulzdliAy2p0qRIjJGyKIxUpIRPyaL0RCxPkkbYugIbl+HSGtWp82ydOMXwvTOsnzxDunwNvbaOW9/CpYjEhpJEXyCgBNT808hms0yeWs0smE9KMav+gpzx2i6jcULjABo8NYhaPR/vqZJwrUmsSWDw0MOsPPUU+772VcovPgYH9pP6gUYtCrDToHT4oOgIyg2gao53s6YeIwa50JkHJFGlmsHaGpw9R3z1XbZ+/Rprz76Mvn2KuLGOjEbMecd84W2ET8J6lYZEg0W++MmKJk97OwbtzsfTftJqTNrJuiUs02/dZOBPCIrBZcdVnyfUyUdZewIyKeuuM/tnv9eSrF1Ua/KxS0pwjiiRUT2m8AUqgQuiuLuOcfzf/hvKf/FHsLLKOoLTQHBl9keIePEdQfmMoO0b7dNKo4r1y1epfvJj1v7T/87Gm29Qv/8+81XNobJHcM7C1muQZJlhQbMT1KyJpzUnzvTBmT7qk8M3HicBFUctjiYERgIjB5uDkrkH7qa44wCDI4dYvuc48/feBQf2wb494AK40lqe+zuZmFgEEDnk2ManTC52GlZsvmDXY1ZjQPszyfqhyTUY7zEziPmkxboGtdQCXhTRsdX1ahJsj+HaBlxdo7l0ha0Ll9h44XWqt96nWr/G6OoVZHOdfl2xFDyLwaMaqesKsvbHxvV0XPlkJKVtrwUCtE9ELALL2ZgMmhdbQRAnVLFhHIUoPa4UJfHIEZaf+hKHv/sdiiceg4P7IXhUcmHSjI6gdLgVOoJyA8xqUNr5MUkiEinbiXN7BOsbxFdf59Izz1G99g6jV96mOXWG+c1t+v1Ab67AJyUOq6wmtU18AO+R4EEjqbFJg3ZazP4b7fvpFGZoJziyBsU+zQ29ATlRZnbpThNPS1CcTid8W0S1X8qq6Bm0k2qeu+AGk3ALwdTvItDQUKeaIvSoElwsHEuPf4Hj//bfwHe+CYMFtlVQPM4FywuhqSMonyEo0GgyrRxCvbXN1QuXuPL3f8/F/+1vkQvnKdaustg0rALaNGiMBHUUk+T0zPTjPAIkoS5XQZ7pzmaWFBCPamCsMBZhVBbUC/MU+/dQHNiL7t/PvX/wHdi7asJyzzIszlslb++JCg6PiJ+qEMWZqSqHEbdeMZNWtRFpbTt2DpOZMWebeXFNd7UmqvZ7Lkf/Ce2CKGtbYiLFCFqbpSkUOQRPrSTGcGR+KyfPUr9zimvvn+TKe++yffI99MJ5/OYmvWrMnBP6zEQ5qeQyfzsxvaZpiDIKtSQqpwTAp4TGxqJzvBCJRHWEcsDFYcVm6FHeey/7vvF19n7tKfwj98P+fbCwhM5E5HUEpcOt8HtDUNrLnB0Qqnkk5iEqM9+bfG7qCWrX0LiG+XEN19bh7dPUr77LlV8+w/YLL+HX13Fr6/hmSJ+I9IC+olFohjFnprQS6V4CTgJOPEhDjKOJhJe2jTMT38T8MkMgFGZmxOmkY9PbzkE/SyRaH5T2205t5eRmjttWTm1hwYrTlaJ5+bdEZqewuBG8DzQxUeuY5JSy7LNZNVyZ63PnH/4Be//P/yd48jHwAxrNqfZFrFKtJpzzuUJqh08rkhXaQRCaFJGoBOfRUcXmlauMX36R7eefI777LvHdk7jLl+itr1FtbwOJgXOUKSKaV/UabMPy+ETfEEMFTKtyz0agVD4wLks2vdAszJEO7KV/z50sPXQvSw/cQ3nwKHL3Y6YlKcPUjyRG1EKMcEVbMduoROtjomA1a7IGBTDtQ9KsZbB9LjuS2hHykVrtqLTHtfHdmnraZHOKpeZnZjxZekJ7l13VbE7AtBaIaXURhWqUUxpUcOkS26dOMXzzDUZvvcX6iROMz56lv7nJ4ng8vW9J8DotFlh7yzFDnhcsE60RGFGLBKo10Q8FEhNNVeGc4AtLc1+laI7tjZBqz9ZgjurwIRaeepx93/8mS196Ag4fQcO0Mnk7H5tGZ+e81aGD/5u/+Zu/2b3z84zdg6BNfjYZ+AhEq6NhqlxBUEJsKMdjuHAFXn+HKz99htP/+COuPvssxZmzlMNtBpoYlJ6yDEQiw3pMbCCEHuIs2ZgTM/ekFElNTUoV4qwkutEHIx6SJzYjB207chn4NpGU2MTRkge7NIFcP2Tq3Goky+z3lik277Uqsk5JGo0EOD9JVOVygiqRmVwT2v5wOpMKNiPfdHpxzqKhmjHOKS6UbNYNa4tz7PvKl5h74nHS3v12jyTk62uvbfocOnx60cSIpuzoCRYKn0Ndy1Awv7rK8tGjzC8vEXsllRO2mpptTSTvcM4ifQAkazIED3gSzkyrzrIpGyEQkhiRrZ1wtXCc7nlGh/ex8NjD7Pvalzj87W+y8KUnCA8/hNxxFPqL0LP+NarqXPM3j3sRxGefj+wHJt5bPiJnPlDiTGthXT9HtNlwRdpKzBntUJTJQqd1hLdop/Z1O4yM3Ej+S/6+fU8QmzucjcuUlCYatSGP8VqExgfSoI9fXqLYv5+5Q4dY2n8Av7xCvbBo2qUqUonQ5AWNb9ugedHhJPudWB4VQ0QkQl7ABO8n2h3nAyEUOO+IJLaqIXO9PgtFj6auWbt6laYZszQ/YHBwPywvId5PcyWl9oKNaE1npg4dPscalA96WVEtG2ORV2oo0FhYogtWoZMU4fJVmvdOsvbs81x75jnWX3uT5v3TLNQj9vl2xTEVpq0Tn43q6YATEpKysli0db/LidSMkrR1WE2RYWnq7Qi2AkvOtBiaPeNdzI5vWfPQTtzq7HpcVDQqUYWYk6B40Zw+v6E/79na3GLOL9HrLbCVInWTo41SQ6PZWTGTkFZ7ktpLuxU5AYZ1w9LKCuPNqzgawvwSp7eGXHvkXh7/t/8jc3/wXdK+g1ZRGcvTklpiJGbb7wjKpxs3G28TrVpUK4g53IQrF+Hku2y+9jLnf/0CG2++BefOszQcUkbHQEp6oY+oo2qUcYwINWURaaIlEGvEEYMlUqscXFmap3jyMQ488RhHH38Mue9+WFyGogehBAmQjBIYvzFSYm3MjdwRPXdjzF7l7b99a0yPdZN7t+vV9bfYdkwNR/YlF3PYckymVdnahq0h9QsvcuZHP+bqG68yfO8E/a1NDnjHwHuoK2IScAVNY4uIEBwxVqRmSC8ovuhT1bkoolpot8MesmIFQZu8gnHqqHBsxoQuzLNw7AjusUe447/5a3jwIVjZS6wTVIofFGioGdcVZTHIc+CNsXuB2eHzjd87Dcp1yP1dmaphwVIyi4jZeM+fY/ulVzj3s6e58stn0LdO0L96jb0xsugTXi3VvB3CCIY52mWiMVkXtEmo8iZWgM98PwSyGah10tOZjKztb6bNbrUaidTUOY9tVhvn1ZrmBHBeI4X3FL0eZb+HCITgKDyEoKhPVHUFKVA1ic3GSEnPCxprIyH59kh7z/Jm09GtEVUpeiVaj6yWiS/YEiHeexerX/8KvWN3oYMFU31n+1NLhsRN71+HzxomNglLGe8t5JelOVhZolxdYu7AAZaOHmN+z17qBLULrI1qNrfHxCYRvGe+36MsHVEbxHvwJVXZY6vfJx48QPHAvSx+5Ske+qu/YOXJJ5B77oLBgFj2SC6ABBs9wkRDQn5pL3L//gDCb6brf2RMj3Xjf9ef6TqGAtf9vv2aIKGwiKSyR+r1CfPzLOzfz2DfKjooqVLDcLhNXUf6oaQseogIRSgILuAd9MqAk0RVDRmPKkLoZ8fZluC1Ny8vhrImaTJ+m4iLDWFcMa4rGPTpz/WRlRVcUdhzcVarTJyZ9271HG71WYfPH35vCMrsCm92YIlYlEotMJJkabQ9hBgtB8GJd9h69lku/fIZLvzqGbZfe4PepSss1Q3LKeE1ksgV8JBMULKqeDK56GSTbJYxSmIkJDrzbk/iMZWNRyckJf8+VzsVO/rEBi+AD4r3gg+WEj6Ip3CO0nkKlPHWNVJTUTc1TawpgjfnNpfAJXzpQQJFb57kA2MPvhfoB6GpRuAtzHiyGp6dIz7AfBFVCUWAZD4ElfOMyx69Rx5i75e/RDh8BHoDaJ+Tms7cnk2edDt8xtD2eXumGhtcU2f3Eof0S9izh3DnnfTuvZe5O47QX1rFL61Q+YJR3RDHFT5GirpGXCIVMErKKAkbvTk4epzlr36Fg3/6A/Z99zvIgw/Avr0wGFCHQOM9aRISTB6f0960W9jtfv9ZwYQM5Cskm66dcxAcBI/0AizO4w4dYHDsDhaPHqJYWGBc1Yw2R8hmRdJI0QsUwdHUY0bbW2hqcEFwwSOuwNGzCTLPc5MFmZVmxKviVazOjwrBebxCqmu2h0OG21u4XsHgyEFYXqQpA5UAKhS+mLmCG+Oz+ow6/Gb4vSEos2gJijBdUDUoDQ09Er3YWF6Tcxe5+rOfcfqf/on1V14lvn+K+c0tVlJkLkXceEzU2uKEZwjKREUpTCdqs9dMNB/tCsmKkVlpdxvk0xWEta3VzOTDTV7nUGiNpNSYXTtZ0qikllrcEkgpvX6JKwuiD0QfqBFqB7XA0Auntza5oomtcsBVJwwXelT9gkYiVzfWCL0ym1lyGzKy//BtoUAIwbQxJEYSqAYD+o99geUnn8DvOwBlb6eZQMT8Ej7A8Tt8uiFi+VBSrLJp0KE+kEIJRR+ZX4I9+whHjzB3xx0s7tuL9ntIGdhuxlzbXGetGTP0js2ypDlwgN4jD3Psj/+IPd/9DuFLX4JDh0je03hPdAF8iZNgOXSyKN3dg3cLu93vPyu4rtWTwqL2ofrsjxYCqSxxywv4wwdYOHCAleVl8AXbw4q1rXWaakgvFAQgNhUaG8QLrizwvkeKksnJZBaabEIbIm3Ot06EXlEQvPnPxNiwvb5O1dT0FhcoDx3Czw9oFEQdIZPJ665nBp/VZ9ThN8Pn1gelxW0vL0JKiUYaXAHFeAyXLzN+5W3WXniNCz//CfXrr9KrGnrjhkVxLKigdYVWFdGDlt4IRlukC5fzJ5DJSRsL0PqU5GGokMTqZphupEVus7QmIcuXIjuyvk6nBjSZbtV7c3J1nkahTslyTBBpEIZ4KhzJB6vV4WBcKHHPPLo4T39hL2FunsHKIkv9Hgsbm1x59TXqM2cZjBqKSTEya97EB+V2cA7vPU29RSJyjYAeOsL+/+G/Y/Vf/jkcPkLq9Xf9yAhKh88GbjzO2jB9RYgg0fLCal51q7f+3CZA9A1sbcKlS3DyJJuvvcbVV19n/e23uXbqLGlrxJ5HHmT/155i75e/hH/0Mdh3EHwPBJJL2TfLHFiNlGRfDARc6xJq+KwJuxvf4xk/n9nLEaufFdt6YgJNnSBCETCfnnEFa2vwyhtceu4FLv/0p4x//TyLMbHsA4UopIYxDXUQPD2kCTnS6no4TZYfJedxIZ9XCk8jynZs2Iw1Wwf2M/eNr3D8L/+c4lvfhKVVxtFIT8iLuBa7n9Hu9x0+3/i9JiiqapOXKo4GmhGcv4i++TYXf/EcF3/xHPH0uyxtr1M0SoiJkJQiqflGiJDE0j1bDY5c3tzianKOgzYjpqEN3SPnF9CJGYcs+fMm09fT+ce+aBOSDWSH0A8FTUpUKGMRhikx0sRYI2OB2C9hMI9fWMbPL7J04CC9hQWWVpbwS3PMHT9IM9fHD5ZwvT7M9+0kp87S/PTnnPj7f2B+fZMyTkOSJ61tQ55vAhFyiHUCrSHApehwd97FoX/zP7D4F38Ge/eRZqrA2u+mTowdPv246TjLPkUWCZJQNbqtLUnB+HWlkegjAyJFilCN4eJF4htvsPHeSa69f5ZmfZv9jz7E8lceh+PHYWERLeaI0XqkKUZtzLi2/2iClMzB1Lcrf8NnrX/d7B7fjKAkTcSU6+oIOHGkmNgeDamamkXvmQ8FbG/B5Svw619z4R//kcsvvUw8c5a5umJZzEdECo9IQTNqdSVT2OkFSYmgShCxRHOxIaWIKz2NJOrYIOK47BzjO+5g9Tt/wOG//gvKxx+H+SXWhiPmez2mwdz5mc5gGlnU4fcBv9cEBSDFGk+C7W04d5bt517g2i+fZfP5V9G3ThLiFvM+4nEEHDElNCVLslZ4XDJHMGMZWZGsRh2sbkUuEAY2iNXh1OfvT9WiNsxzTgMssoisprUwS1tXTP5iM5NEiMOKBmEksO0hzg9gYQ6/OE9cXmT1Cw8Tl5bp7zlAsbzC6h3HCPPzsLwIiwNTywRvK1HnjVDVFbz0Gqf/w3/k8t//HXuurlHGaVI3mdAnmxhveZdFqOoxRSGEXsnZOtG79wGO/dv/kfBf/QAWFkkz2SXtJx1B+SzhZuPMfIqmWr+2r6RchDOJEFUhRnxKeMk1ZBzQ5AiUjU3qtXVSEyn3rCAH9sFgjnFS89lKbpIFFcmp6IVJVI7V5bOMrLP4rPWvm93jnQRlek2qiZQrh6opkFBt2B41VA0U4uiXBWVwoA2sX4a3X+f8j37MpZ/+nOqNt1le22BePH3vUTxVc30bFPMZa8PvekWJpERdjYGELzyNRGJsCC4wSkLl59m+8xgLf/o9jv/LP0ceeZCrdc1iOcBNTtHmhmkXaW1W6w6/L/j9ICiqmQzMTkjZ7NKMIDVw/hL8+kVO//MPufqLZ/DnLrG/MrVzkgovFruvOQzWSpMLZVTKJof5TtxYW82IWP4GaSaSXNRnM5C1pTXbtNVbdeZvIpmPipgJSVRIWAhxdGK1MfLnTVFQ9UuquR6r997F3KED7D9+jOKOw/Dg/VbwbH4R+vM2iTln12/+bSCOOlkdFeeUoqrQZ1/k7f/537H5j//A/mvXKGYJSpvDzi7rFgTFSNa4GtHvFfhej/fqhsEjj3LP/+3/iv+j70F/jpT1MrNC47MmQH6fcbNppN1vLlgyqRdlmsdEEohC1kzm2jZq+U7KYI6XNFkDqYkkjhQ86sxR0+FJGqGOFJITgEkmKN76T8xTgMv5jlp81vrXze4x+f7eiKC0SegA85eTRAgDFEeToG4a8w1KNQMXKanhxEmu/Oxpzv/wJ4yff5n++gYrTbSkbq4t6Gj+bTb+HeqcaWtUGfT6EJV6PKbwgiscURKxqZEETgpiDJwtC8qvP8Xd/+1f0/vet9DlZVRtDqJ9hPl1m0TSTbLPdPh9wGeeoNyu+XU1BlW8K/Eup1hOisYKUoVoDedPcfkffsyZv/svjF5/kz0bWyyKZwFhLDVjGqM3kp1Zs4ZEEXox0o+thoSch8QGkDmRZtIx8TuZEiVpuROCmPsISiTSELUhSSLhSQRoBKmUKiqjCHHQJy3OUy3OU+9ZYe7YEfY/cC8HHnkQd8chWF2B5RUIAcpyUkodEVR8zkQpGA1qbAJPBagQtaYcj4k/fYaX/1//E+65Z9i/sWE1e2bSe7c+KLd+Asq4HiMe+mXJMEYuLM5z9I/+kL3/h/+a5rFHCINl1E99UD5rgqPDB4ACrT+EGsM1MdcKI/PNUmYziuYMyTNjPGcQyj9qo7xsRE00CcyQlKxBYapQ+czidnOd8ZPZi5zcYTQ7zFvBwJyMLSs+2u+JWKIDhjVcvEp64SXO/tN/4fJPf0r/5EkGdWI+lAQnCE1ObKAWhRgKkhMaIpIEH83M40VssSXmR9emn1aEjbLg8sIC8tij3POv/ztWv/Mdkgs0RYF68CKE7D5U5XmmyBTlN8Xt7uHt0M1Nnyw+11E8Niht0Jomwk0TqmlCmgbOnGbzV89w6Yc/hVffYmV7m+WmwccGUpxEHbRhdRYn6XF4nHqCJoLmwTc5l82WQp6IbeawaVTaCXkyxwKWybVuKurUEEmoAwkODSWVKxkibOMY9vv4w4fp33sXi4/cz+ITX+Chf/WXHPzW11n48pPI3XfBsaOwsse0JkWPxnmi92ZG8cGyT7bZaNt1kIDDW+YWSUhd4947xaXnniecO8d8VVl67HYipCVg7YXfHFGjpcR2nnET2Rj0WXjgXhYee4R4aD8u9CyRVkY3CXz+0Ba2bIlJOxCm9KIlFdP9TDSRbrrN/GYSWdb2lzy2bFzN9qGs1/w96Fc3usYZA4mZSCbTkM0A7W1LQC0OkYCUc7j5Bfplj9hE6tGQqm7QOuJQCiBkx1jBTM8JJYnaPKGSC3u084U9uYkOKwcOSBMp+30GqyvMre5BlpZQ71BvPjOmXTYtGzOZpX5XuNH97fDx4XNNUKbExFOJUIn5e/g2x8mZc2z96Kec+0//wMYzLzB/6QrLQBkbNFl4nTgP6qyMuzpcsr8+2eZydIIJ69YxdidLbwfl7MBqX7W6GNQGbEuoRDwigWEKnN2s2Z5bRO46Rv+xh1j42hPs+/ZX2Pvdr7P4tSfhofuh1ZoM5k3YR0FryyDrMHLgxe0IF7amqrUfCw9EkhGUZgwnTnD+mWfxFy8yVzeWdyVrT/gQBGWyOlOoYmR7fo6lBx5g4bFH0cOH8KE3cZikmwQ+F9i9TtWJxi2TkLwinvShrEWZxe16QdtPdveXG73fve/zio9yneosf4oiSFHgej384iILK0uMewXbsaEaDYnVmDIpJdBLNrs1Rk+AnAdFHT4ZSZHs/2PmPCE5LDJRFR1XVum8qRmNhizcdx+uV+QS7zbX0gYcTL38djf9E8NHub8dPjw+/x5HYk5zipJSQ5EaGG7DeycZPfc8Z3/4E4bPv8LitQ1Wk1I2kVjXRE24XkEIAZ9NGz6H2bZ/W2cu07K04cK7MV3xzcJMI2rpolUIvqTozREG82hvnnHosyEFa715wv0PMvfUkxz6kz/i/v/+X3H0v/9r5v/8B/C1L8H996CLizS9PhWOKioUfSh7SK+HK3uWUVIl68fb0E/bTDbk1mXHXCSaX05TodVomgr8AwiNG8GJTNT7IOAC4gpwBckVOQdMh88bZrrZdePiRp+1ZOWDkd4Ov204HIFA5P/P3n8/yXmkeZ7gx91fESJ1IqE1oQgQ1GSxFEu1quqbm9md2d2xPbP7r9bW7nZm7Mxuzba7bmZaVHeXYlWXYLEEtQAJCpDQKrUI9b7u/twP7m9EZCIBqioSqMovzBEZ8Ua8wuXXHwmFEqjnsGcn5onH2PvX32bXn38Tc+IIaxPjLGlNO6bVEC+IdXhrg4Q1bmTC3zFVR5xrJKavUFqRiDCKQs/O4899wOqrr8MH70NZkDiHIUbE7ku9byWxW/jjxh+3BEUk7NiAmlY0jEF1uvDBByz89ndc+fkvWHvlNUYXFpgyhlGtQ9pwTQj6pHWQQPgYXE3igKtYtCJKT2IuHXVrYLHqbSAA64+hFKlOqCU5ThnaXlj10E4z/PgkMr2N9PgJTvyHf8/2p7/E+JOPoE8cgZ3bIa+BgHiNSpsonWF0ijEpIoEoDczjNmQKXbc6BLGsQEjyg6CVg7UV7Nn3uPHiK2TLK9Sti6LbodN8xMXEGI2I4KyjJ0J3bJzp06epP/oIbtu2fsSKClu7lD9+KKL9SCXd2BAxWFVlg/Rj3W82YONnG9//KeDTPLOT4FWlVEIpnm5ZBiLRqMO2aRpTU6RG0+l0aa2sUHR71EwS0mckJsRcUQpFlDb3tz5VOg+ijDiolRM0uVekaGynw8LqCiPbtpE3ajA5CaJQQxsYRVD7fJ74sPrdSMQ3w53PsIVhfL6t/YeGUiAe5R2mKGFpFd49x8oLLzH7m9+y9tpr5EtLjGtNJp5er0NRFqg0Jc3rFD2hKIrgdquGSsjNiyiLVzELaH8A3oqqQ27Q/ABQAivec6MouFwUXEsN9tABJr/yRY78z/+eo//x35P+5TdJn3wMjh2BqWm6KHrGYLMaUmvQtUJhhbIUShuynHoV+IbTglOV6HagQqpKMPo1g9T2lZVJJSny0VBxE2z+6a2oFpRQPwplEpRJQSWEfdIfdzf8U0WfZHyESVnF8VGVjfiwhWELnxwSNxveC7a0iHhSbUjSlFIpelpRZhns3sX4l7/M7q8/TfOhB+nObGPBaFpao0xKkub9AJWVwFYIcaKchCzO2vmQjNUJpXV4B9oKWc9RW+ty86VXWHzjTZhbQDkBF22kB9bRdz2qdWCzsoWPh3tmZQiivg9v4uHvBMYtZEpgrQUfXGD1+ZeYffY5em++ycTKEhNGBT/94MsCJkFUglhD6nIMGq+LWEpEl/hYRJV4VRnSrlfzfPidBqyK46LrsTQ1Sv7w/cz8xdeY+b//BRP/9i/g//YN+MrjMN6ELENKhy1sMD2TYPTrlEblGSpPMHlCkgY3wIEMJUTW9EpwOhibOT1UlAISlCQIafAYikVFPfLw3rZ6rspu4KM8p0glwYl65SQNaidlsBKi7m7hjwsbyYkiSN9uVzaSki068hlChf+00sFHxoZgeXUgdw7VK4JDQa0O+/cz9uUvsu3pL6FPHGFxtMGyMXQl2PoN5pXwaofmGoDMQRoM9XAYSp1QqgRPSlIKy2+fY+Wt9ygvXYVuAUOSa1B45/H+k5ePg4+65gyj2gYOtoMf7/dbWI97hqDcHnEhlkGOG4l2Fko82vagaMHsDfzb77Ly0iv03niLxsIiO7OUhlEUrkQZTd5okOd1yp6l0+qSpTl5XhuaLSXGNYmxTZRF4fsTbNUdg6sx+MrFGBdCbiNIHJg9ndBKMhbqNeanx3HHD7Pta1/i8L/5K7b/xTcwjz1MuX2Gdp7RBawxqCwnSXOSJOQZcU4orKX0DusF58MuSMQHydGGWpJILPp/9w8qED2QsMQw5MgmGt8hUiJD729X+t+jktjEVxWOeGfXxWrYwh8pog3CRy1b+H1iY40Ovw/iDkFhjCFLEpQIvrQoHyQpeMFZS+Ec3TSFfXuZePJRxh5/mN7+3SxkKS0PPRsiBQvgdHAtDsM9eA8ZFQz1E5WQqpQ0yYJXoUnQ2pB6aF+7hrt2Dbl6NYThL7rooocuC0xRoHsFunuH0ivQRSxlGYq1objwTEoGWeWrmWojpajmrjBnDT7z+OBlOfyt/pfZpK638Glw18ZB+Wi3JYEsiEc5g7gQgEx0zIZjeyBdWFnAP/syV77/M5Z/9zLbVtZoJoKUbQpxeK1InQqBomLivioAmqZEU/a7qFKhVEt5IgnGGwoFRZSgeCXgS8T3SBBqiSExOVrntJ1iuWtZyzPajRr+4B72PP0UMw/cT/3YEdg+E+KWmDRIctDBk2hDv6+GVTB6CZEBNk7uVQ3eWpUbPvDBeM1rB3hS0TC3gPzLD3jx//2fGJubZ6JXrosiC2GXVBGe20PQWiHeUZaONtA9cZTD/+F/oPbXf0V3314SDCGl2wAb7Q62sIUtfBLceXRWWD9XVJu9TY4rQbsCyg5cvsbsM//K1e//hOzMORq9Lrl2aAMq1SSiUB0bI2uHzY4BRMUAkxJsSiR66XQSzWrNUG6fYuqR0+x76gtw3xFIMyij56WNESI3gwLGRoJxb70OtQwajZCjTMXglEn0FtQakhQQvA9BA+OjQ+XWEGPsBIQEjF6FfE+pQBLTmyCDTZfEOrodggL9Nve/hVtwTxMUEY+XEhEhIUMpExduUGWB8iWszVGeeZXr//xzWs+9SvPGPDOFxWtLz7YpjcInOhAUFxL+gaYwUGpFKp7ERwWoCkVFH35BMNZgfBpSu6cmhO4GlBQoKUiNCoZlhadTQNvkMD6N2r8bv3cXjQeOsfsrX0DPTMP0JKQ5XsVEaj4JG5xBMIFN8WELuFSVwvB5hurXC6I8TltASCWBuUXkhz/kxf/jPzF6Y7ZPUEzYFMEQQdlwtg0IBMV7jy0tHaXonDjC4f/w76j99V9R7t2DJokREwbY+Ewb329hC1v4/eN2866I4CWqSrRHDNRbLdyZs1z9px/T/tlvMNevMVK0UVJSUmIc5E5Tzxp4r+gWPUxSTWZRmhqj5wlQGFgRR7eeIlPj7H7gJNm2GToC7U5Bt9Oju9K6RR1YwSkY3TGDadbJRproeo3RmRmSRoOk0UDV62Q7ZiDPIM8DeanXYpLVMFE6H6TcAEqZECWXKrZVmPU9Hu09xglambDu9ENMcMfZcIugfDzcMwSlej+8UIkIVlyIgqpTTGSwSkCtrqHKAs6+zs2f/pQr//ob8ks3mfEw0ivoSg9vPNYonIYsSlCCqkNTGqE0kDpP6mWIoAQJCgRVivgUJENpjTYabx22KDDKkyiHSwyFhmXr6ZoUNzXNyNGjTDz2IKOPniI/fAimp5EkRbIcTIZg0N6EWEY6mITciZV/2OK9jqCwCUnZjKAsLMMzz/Dyf/7P1C5fZaJThGzGQ8kCK8NgFet8MwgCOgRxstbRVkLn+BZB2cIW7kZsnHeH4Z2nLC3eKFwKo6WFhQXcy28w+/PnWHnxedLz75LbHspZjBVSb6jlTawYukUPnYZxHpKqVrIK+nNRWZRYY+jlCWZiHJvltEtLr2sR79AhH/a6+6ogCsQkkCSoPIU0IxsdwdTrpI0GplGnsX0bZnyE2vQUtZlt6B0zMD0VNof1Woi4TZS2KI1TCR6D6KEAdwLiXFATKY3SOjgkVPHFh6pQQZRyB2wRlI+He5ugQLTpAO/Bi5BpReIdLCzC7DyrP/g+sz//BWtvf0BztcukSTFFjwJLMpJhFZTekjpIKxP0PkERUu9JXWXFF3WqDFZkr3I8Gcp5tHfhVcBohdGKVa1YFEd3pIHZuYP6kUNse+QhRh85BccPQXMErzLEpFgB7xSpyYKkwsUenf6eCQobSMoGgpJIglpahZ8+w8v/5b+QXbjEZDsQlKQKdT+Ui0fH02yKvgExWGtpI7RP3Md9UcVj9+0N+Ym2CMoWtvC5Y+O8W0FEwIN3UCpPB0dDPDUFXLmOvPUu1//1x1z9/t8zbS0jTsi8wvcsigRPEhxx4u5GRePoEBk22IMYDzWVUNiSntG4LMUqQ2EdiCbPEqC4ozuPUhonQuk9hQheG5zWeK1xRlOkGlfLMBNjmMlJ6rt3MrpvL+N796DHxqjt2BEIy9h4UC0laXCc0AYbY76E6xBU1/G6LkpXNKD9YH7dSFDC6rI1l31U3LVxUIJhVWTZQmzW6B4bGzh8Z7AIihIyX6J6Pbh4iaVnf83VZ35K+v4FxqwwqjSpiYzXKESbvm40kaAz1UqFqIdaEC0kCAY/8MwNd9TvaqJM8KTxjgTIkowkyXAmwaY1FtOUleYo9VMnmP7Sk+x8+kvUn3wYDu3HNuv0VIKkOU4loA3GJOGZKlWKCglb79SnP2zxDvcdX28p8bexosM7je6VFO+/x9xbZ1CLS9RK1w9OF/cY/XPfEbFtUOC9pwSK6SlGjx0hP3oEPzERxaR60OabnHSzz7awhS18NlAqevnomCw1bg7zNINaDTU2ymjNsLJwg7LThm4Rkgui6HS7iEC9XsOJ689HIel0mHOqpb4U1/f88Xi8d4izpApqqcaXHbQvUN6ivEWLQ4vF4DDV32LJlCfXkCvI8KTekdiCpOhhOm1kaRk/t0Dv8nXW3v2AxdfOMv/yGfyVm9hLVzHXbmKWVwIjy1KUAaMszpeUSlBJMPytjP1VjOZUSZeHzWSG567w1/q5bGtmuz3uWoLSR5/Qx14tgxYVEbwLkQbRkCqFsQXMzdJ7+XWu/eyXqPfeZ2qtReYEg2CMxmQZKk0onY+RXHU0eqoW3yBRECXokD84LuDxPsLwigRF4xGUd6SAKEPPCcsOllRCsX07o488yMQTjzD9pScwD56EnTPQHKEwCY4EpdJwPgnBA8SHZ42c5Y7SEz7q4l3ddv85Nh4P2lWi0FWXJfb8+4GgzC/0CYqJdaRjO1RVIuo2bhpxvyMKxAuFCMX0JGPHj1I7fhQ3OY7GDA3tzfGRnnELW9jCHwwiHnEetMIkCUkSjE+11sEgtZYw1jB0lldYvnQ95NnJEhJjSBMz2FuKHwqFUPkRh3mi8A6rBCcx6L4K843RCq08+DKqecLvsyQl0RqjFEYpnC0QsSjnwTnyJCFVmgxFhqKmFA2laSrDiCgaPUe+2iWZX0FuzNO6fI3l85dYuXiJ1cuXKedmydZWMUUHeh1MlpJlKUmUqItE49owCYa/hqaqQMYGH8RvrHu/NbPdHnc/QakYShVGvloUq2M+dlYtQYi4tEDrzTeZ++VzLP/mBRrLS4x6GxZgJVhCtESJ7sjKh7wRqRdSXyW6oq/HCIMhpnuHPjGpOqRSQcmkvMMoRQdYckK7OQK79zH6xCPs+IunqZ0+jj68DzU1GULRE7x/jOiQuwJF5egrBHcZMVHM8SGd+NMu3kJFgqqMo6CtRS6eZ+HsWfzsHPUi5OKpRJh9KUpM5OUjv5KYHHFdgZgJOhKUqQnGjh+lfuwodmI8SFC2CMoWtnDXQmI2ZFEWBWhtSOJc7H0gGiozmPEmaeHpXZ1nbWEBg1DPUlKl8GVZmfENFvGhecIrhUoMyhi0MSitUUqjTYIosNYRIrVoQpafBO8U4hTeKZwLkh2vwrYSNM4Ftbn3CvEKkXC/Go32UNcpdWVoKM2oNtiVVcqFBYq5eXo3rtO+fIXelSuoK1fh6lWSXgFFAWWJUmCi+sgrhdVhDhueqbYIyqfDvUFQVBCiVXKEMFg8SglGa7QC7Usoe3DxIkvPv8jKb18kv3KVpivIJDiRWQ29sqTTK/DOkZkkEAMPRnxwTY5XChKBSoISxAWiguGUxHDLKvIHXQ1erWllOZ2RUbKjR9n15S+x/etfInn4JGbPDnojDaw2iDIhZL5XYcAOiTu1BmU0ogWHw3tPou6stfy0i3cgEBKfMswW2jr8pYvMv30We2OWWlGivZCICkkDq99GdVggKFW9DY+6OCSVQkToiaecGGPy2BFqx49ix8cwOgkW83fAp33GLWxhC58CUZ0epj6FuOCe60UFtU/cJKp6TkZKulayNr+IbbVIEbS1lN1uHOtxLK+LixSzIUs4r0gILKWVJjEJIkLZK8h0ihLdL0anIfuySkI4BmNQJkHrFK1T8AqtEhIT86oZg1YqxF5yHqxFSosUPaTXY7JZZ0Rr0qKH7rRxSwt0rl5l+f33WXjnHVauXqN7c46s3SbRBvI6xqRBeqPCJrOa/pQEwwQdFrBgqjC04byFnEj8b2uu6+PeICiRNvhojFTZmwRBh4Qoh87BhUvM/ehn3Pjxz0muXmPclSRiARt1mqGDGKVJBExl2IpDVBQt6mh/okKHMqUjcwqd5Fid0nOebvxNonwYAGRIXqelFMtjo9QfPMmuP3ua0b/8Opw+DhNjUMsxSYrRSczlE7YfokGZ6EOvI+NRQaepUCRKozfYZ2wsFXG7He7U3UUkECwBwQCaRBkoLebmIu0Ll1k69x5ptxPIiQPlQoJDnRh0koRcPkr6mZI1IUFYkIuEwem9xyso8JT1OlMH9pPffww/NY7WYYK5E7YIyha28IfH8LzS34Hd8j7Y8Skd9S9RnKpVitI1yEfJayO4tR7l3Aq+3cHbLrYsMWkazxG3gtVcSLyuhOSiBo32cTPkhMQpMkx/TqmkrpXVXEVygkOACl5CnqD6iesEEq18o01hmH+DOt8bwScgYkEsRgupFmoK6uLJy5Ks3aV7fZblc+dZe/8i+spNsqU1tBNUlpHmGYkKIf1xDmV9tMMJHpkhIKVC6YEl4zpIWHfC49xy9E8Sd5ar3xUI4sOKkEjIgoOPUhTvy5B5d2EROXeB8sx71C9cJ1lYQlotxIVE4ELw49dxGU5E+uQEZXHKU2oJxQQSpCBEPCQFp7EWvKg4OEHhcCKs9Rw3i5LW5Dhjjz7Ajm98icbjp7G7p6GehsBrOrjSanQI21ypRYZVI4RnJHbeYOE+LCC8FX2p0m3Kh6HSA6thnQwEy9y0js6a+KinMaJJdUK91iBNU6zztHtdvFRW9WG6qAxp+2HMq0kvxjzQ1mK6PShL9IaIt1vYwhbuLgzmEhX8VCLBCAM3ZhxG4VSC1TmMTMHBQzTuP0W2ez+2PkIXBVkajGv7kpPqChVbCH+F7MdxgyMhH5jxEubDGDG8+llYBar1Idoj9m84uv3G7a0SF6KLS3RVVh60x2uHMx5vPJ4SJZZEHLn3NJxnxHrGCsd4r2RHu8fOhWXq73zA2i9+w/UfPMPyj35K+YtnKV96CW7cJHWWNK4xWBuCzElQi+k4B26Kqlq3yEkfd7kEZdDbJAbMQUWpiXgMPkhIii689wE3n/0NKy+8Su3GPDXnyKNHDhDTfofOr6Xq8FVCvfDq48oq1QBERf2noQziFzJjyLQhjcO1rQ3LWrOyfZzmkw+y9y++Qe2px1B79qHrYyEIkNmEB1b3Ff+/DacOBqubfP5REc56e6oSphYGk0S1SXIO5udYPfc+nL/IZMeSFYIughs1EupMJdGSPXoAKWI69aGnUVqDDruuUoSiVmPswAHykydQO2bQJouuSrfH1qDdwhbuTgxmF8F7SIyGTFPD4dZWaS3O41ZXSCV4AikVSQ5BYrJx9lMEdVJ8E86s6DsueO0RXb2GdCKiJP7tAvEgvKqoqq9K9d3BuhLV0vFSxtP3Ptr4T6PITEKmNBQFxfIyK9ev0bp2ld61K8iN66hOB+V9WHfyBLTGao0YE2KAxvVLNuT5WSeh2kIfm6ycdxtiI1bsOqoQjBAivCpgaZ7VN99k/uVXkZs3aZSW3EMS035XSe+MVzEaamDWEDprUBsNSWmiwZbTih7Q9oITyFVC3aTk0b2m0IbVNKHYPs3Ek4+w8y+/TvrUo3BgD77ZQEyGF93vjBs75WeD4S3FZmWD4CTmFEKBpAafJ6BTjEoxOsPoJJCTflwaYuC6eK3h8aWqz4IERWuF0RpE8NYFMWjFiLawhS3ck+iTCwHxDtECzRwO72Pk9DHqRw/hR8dZc4JTeiBBiWXwVzV9RGlIP8mp4LTHacFqH/92eO3wKqjnRYfXEDzK9rPOiwoqnX4ZIieKKI0Z5jB3+icKX5QoWzKqFVMaposuzWtX0GfeoPvsL7nyT//CxX/+IUu//R1y/gPotmN0faH04KwgzoXYUzHDs0iUAm2o1y3cxRIUqZI5xYWwEi3qqPowEOxO2qvw5hmu/uRnrLz0KhO9glEvOFuSplkIEhY7YRAdhmA6SgnSl5yEawaCG5hy6DQDF1ktoJ3Ha0UhniXxrGQpxZ49jD3+ONuf/jIjTzwCO3awmtURlYYIqVpVPT8OxYiKEAy/GRqyG/99UgwG/ebok5H+riE+L4LqtOjcvMHV115Ht7sobUiSDJMkGKODeipEK4guygEhX8/QXWuN8yGjsWhF2yQk26YZPXYEtWsnpBmyQYKyUWKy8f0WtrCFzxeqGpeVCpcQSkA0SKLQRpFkBul0Wbs+S3txiYYJm8swH8Y5N+5r+nNfPGewyRuaxKLNXl9EG//sS8nj74MpX5iBYvSs/vHBfYfvVtZ+lTGrkRjNJP5+3VmiDZ2NuYayPCHPDJn2qLKLW1umfXMRe2MRWV1FdXtkgMpzdJ6hjUZL8C8ShiZfXdkSbpjz1r3708RdS1AqDNQTgT5Utg1YC0UP3n+XuV8+y/VfPkftxk3GUCTe4rygkzTYq8QIf6qKcxKlJT7agfiKgETpTOi4gcdXqh8jgnGejnesOcdKLaOYmWb8scfZ861vUXv4NOzeRSer01EpWgWDrgFj7z9Qv7PHt3fsitUQ+aSoxvbtIDH+gBAMW4kRYkOyxS6ytsrsB+9jgFI87aJHq71GacuglYkBlcIZqjrecNdK4Qhhob1StJQi27aN5v3HMXv3QF5H9BZB2cIW7kVUc0wVvt4rwRtFYhTUc9LSUs4uUS4tkXQ7JNHuTPVn9fXzBtHglTg/9Utf/T6YXwZzzeC31R2FOaP6ZjSc3XQ+vPUc/XNFz00qApEarAbrSoqiC96ixZKKI8PT9IZa27I2N8fc5SusLC6iRKgbjU6D6zTKRImyDuwqRqSNvC3e72b3+aeHu5+gRHodeGfQWWI9vuih2y2Wn32Wheeeo3jvHOPWkmihxCLa4FBYFUhGNRiq0VBJTiSSHlMFaovGWZWqQ7THGYfxHiOella00xTZt5fxxx5l59e+Rvb44zC1HZI6eEOCIZFomBXJiWKwyIYdQny+of83Q3/QfEJsPiAHGNCnQFAUgbAZJSCOVAqSsZz6nimkmdNTnp4rQINTnuD6XxmiVfW8/q5DMDtCGGoFqwJmcpLmyeOkBw9sEZQtbOGPANUcK96jhiQZGk221oW1VXrXr5D5QFAGm8IBUalOVJESHz19KrWQquapKPE1UY1voio/xEAZfDduaeNr9b6afwehI1Bxi6VCLrb+NSuVVCRIKsY68dZhnQtbM61D7JYkJU0ytLX0VtawC0v05pfwi8sk7TZZr4dKMny9GRQ6SqOMDhvlIYISbA4H8pTqrz/FGfDuJyhx+RRMSAoogC3R3TasrXLjX75P+8WXabRaTCYGj1B4h9YJzkf1TSQoiorwROmJimI9r/qGUUFcGDukAqcd1rhgPOUVK2lGd3KS+oOnmfnql6k/9BDF9u04laJI0VXIfILRVtW1wrXju/5r9Yy373rrl/pbUR3pP9+GcuezrycoJhqihBeP8iXOl4wf2cfY4f1M7JihsW2K+sQYPktZ6rVZK3qICaHqfRzslYg0nDbsRAJBCfW64h16cpKxB06QHd4P9QaiB27Gqvrdbd5vYQtb+OwwmEvuDE0UGPcXWYLnpDaYboldXGLxnXfIYr6ysPeMy2/8YRDiBgJRkYTqWxU5CRupQFJC0LbKM1LFbPLhN/3Pw8nCTCjBJi5edOj8YSMFkaT0rz8kwSGES1ACiUnI8hxthuiVKGyvQJUlTZMwrgy628Mvr1AuLdGZmyWrN0i3bQuOHgYwGtGVRSTBy1QIs3JVJ/FpqroVgrr8TwF3LUFRKlhyl2WB0grBYD1AidEOLp5j6Rc/5eYvnqV2c566hySGM01IMMoM/PQraV0lAQwXCB3NBcNZAaxW+MTgMwNJ8L7p+RKHJzV1rEtZmtrGyJNPsP/bf0n+xSdhxw5UnoUIiDr41RPjqEAINGR0SMmt9CCmSSVGDPRh8Pfm/+6MOx0fHKummVuLospBpPoSTa0AbdC1BjRGoTGG2raD/OAhmkePMnL4EGb/frI9e5nvlfRI6IpmrVPQKx3OChhDkmWIgiTRGHEURYeeUfRyg901zcTxQ6ixCVBp/45Q1V0N3m8RlC1s4bPFxhE3mC2GZ6ahv5WKG8Kw4BsUWicgBtUYod4coXXuA4rlNVy7S80YsszQtR16WFRuKEsXAsB5jxcfYofEorwnNyGOVJirBpIOZxRWEV2O4/3K0KLufYhPEtcAr0LGYolqZ0EN7PD6DhmBPA1LeXRlA6lCgM8Q5FOF5K7RYFF0RTqCE7Qqe7iVJbpXrzF78TJucZHRegaTY6i8RgmUNhjOhojiIDhKsTh8WC98CNktQfCyDn/MZOWuJSgVvCsBcBi8F1Ll0J0V3GuvsPDsL7Hvvk+z3SX1A3ZtJOSIGKxwEkPSB3nBYGBBEj17rA4ExSooibkgvMciOISeZFAfxzxwivGnv0zzkYdwe3eh8iy60BLc1SIhqlZWpTRax0Br/QPrB/md/300DM68vtz56IYrxY/D71RIBJSkITqeSaHRhMlx2L4dtX0b9X0HGD94iMbUNJO7d1Of3kY6MoaYFG8S2tax1u3hVah/o4ItUJmmdFOD7NrG6JGDpJMzkNQGd6uqex6+/aH3W9jCFj4T3DpjDEp1vIIE516IzgxaBXsLRCFpihJh9dw52nPzlEvL5FqR5wYrJUUi6DRBeRU3l2Ez1y8xuD3EHGze47zDek/pLNY7rK8SEVbzppAmBqNU3xYw2B9GyUlffRPICQRSE4hIWC+Cwf/gQav7iIL4oKbyQZqznpwE2zwjnsRZsl5B3m5j19ZgrRXsGus5Jq9hag2yJA3SZxF05b2kAknzeJAY4n+48iO2CMrnBYnNLA4LaCVkysPFCyz++rcsvfAyemGZeun6Ham/0EZoCS7F1estA0upqO6J1MXHSKlW0A5EJfS8YrXRJD95nO1/9hVGv/gIasd2yGtDPv23dhRFiIq48fN7DkIYzGkKJkWMRrIcMzGJmhynfmgftSP7aR7cS35wD35mEjcxRq9ex9ZqtL2jZx2uFDQpXUnoeo3evoNtR4+RzuyGvN6/3BZB2cIW7k0EdURAP2J29b8UpN0lOstz9OZnMWVJroLnj9OERViG4qRsLJVBad9rSJMlCZkxpEaRGYX2LmY4jkE4pcRJgfMFztuYRmRwzupaIcibkERbxGozK5UjRXSmqOahYbWPxPXDqyhiUQOj1wqK4NLsrKNca7G2skp3eZWa16S1UVSjjkk1VkEvkiYVFQAiYePrjIYhc4X+uf+I58a7m6AoQDzWOxxCZsCsrrD44sssPPtryrPnyLsleeU63P/ZsGgukJN1a5yqOmDQM7rY0TSaBE0S2arGUJiUMmsg9x1g8uknmPjyE3B0P6rewPpgW6HNrUHGqk4UVFX3ageqJgYDSYJTmgJFqaBEBduTPEM3c5gahZlJ9K4Zmvv2Ut+9m4n9+5natw890sQ0G6BTnBg6JLQ8yLZppu67j3zP3iCdqa6q4rWHbmOLoGxhC3cnNhuZVdqL/tynFBhHmls6i7MsX7oC3R5SlpQidIFCwIqmRFHA+qIUpVKUAiXgYuqTIE1xIauweKjCU6ggzzGpQqmYGVlHOxOlY/SKQFBCJFxBDREUiM4ZQ56erk8OBrYpYWM7TGDCeTdWSl9t5Dym26W72qI7v4Rr9xjRKbqew0gNSTTdqMJKCVmalQKnhAKLQkgqt+fq3H/Ec6OSzz5y2MeAUNoeZdmjXq+HnDtvnuXSP32fxR89Q+38JZpKB1/zqkjoaJWFeEXpXfTcqcLhmJiDximFFY9yihRDkuSIh45z9BCWG0303r2Mff1xpv/sKWrHjtKemiAhR0vWV+H073iTCIHDx+8l9J8jSpdsjHYiIqiY+TlB0GJD0Dsc4h26dNDphdLuIvPX6czfoHvhOt1LN5i/epP5+UXcnhkOfOUp7vvmt2DP3upSt5KRLYKyhS3clRhePIalBv35GEJQMu9Rrg1rN7j8Lz/g4veeofzgEmMejFbYxCDahNhRlRHJBhgB1+qSxLnHiMd1u+As+BLlHDWTkABaebQS8iQJqU2UwmjDWqeL8wS7QIYi1sa1I4n5fyqJiIvEpHpvCJ6eA8SNLoGwVMwk/C/RLmWgKgokytPSKd00p5zZTvPYCcaeeoTxLz6GOnQIOzaGMUGhJYSksQWWAkeKoU7eN0L+Y8ddT1B6tod3JfU0hbk5Or/4NVf/+Qd0X3iJ8YVF8iRkkoyEOJITIfExYJgASih1sDOpwhwnPpCUUgslHmMVOSk6ySkdrImjmyaU+w8w8cSTTP35F9BPHMePjrGWZuSSkZNt4LJDi3rEvSxBCTuLUGcSdyxIDOpW6V8FEIcoj41ZjYP4NcSNUbbE+y6UXdKlFsyv0r02y+Lla6ziGNu7mx0PPwo7dkKfh2yoL7VFULawhbsVG0lKBRWLAN47tPRQbo3VN99i8Vcv0vngEuMmIUtTdL0OpspqvvlYNx6KhVVMGTIQ40rK1iq+6OGKLpSWzvwidHv4ooeyBbosMdairA3Z2JMs2AT2PYgq6XuQshsfQ0xEQ1oXJSguSkyCVL66P4m/HLyrJCt9LyUfVDthrhTElWhxmLSGQ7OgE9ojo3DyKBNfeZLtT30Rc/9JqNVAGxyWUoU8QYKQkJCRbFh1/nhxVxMUQSikJEGCWOyNN1n6wU+Z/8nP4dJ5pm1JpgxagntZMH+NO3svkWmHTtgz9JMAQjhuBJz2lDhMGQiKNQltgU4tRaYmqD31Raa/9U3yh4/h905jxWDFYHSK1kHYpodqcGN13tsEJaZZ3HD74sMorIzRRCovfiCSGodgxeF9yJdUN1FV5Bx0C1haouh1SOt11NQMvjYyICeb8JMtgrKFLdy92IykVATFR3djEYvBoddacPkqdnkZ5R0mz6FWhzQLc8TGCaCCKOgUUMT8a7YHRQdxBb7soUrLjfcvYVda2JVVaK1RzM0jK6uUyyvIWosJbcidw1sLPiiKFAO352pjC1XslYEapz81KbUJFQufuEhmTN+ANkhRNIGsWGXx2pNqg/HQ8tDymtXpCdJj9zH15a+y7WtfJ9m7B8bGsBoKIxgNiQ5mCDGO+p8E7nKCAj1KamhYnGflZ79g7h9/QPf5l0hXFpg0ikQ0yquY4yEwYy2QiCPxHhOzX/YSKIJBOULoiEYErwUrJUmpyMhoKc2a1hQzE+RH9jP1V9+m9rWnSXZO023WUVYwVkOa4I3uZ9zs3/MfIUGpLOAhWLkHi/dQpHrmSncbAp7ggI7yWDy58+RaUyaKHiWZAuMsxtmQ3VPX8CqkX7xdXd3u8y1sYQt3BzaSlGrE+ujR4pynLC3NJEH7EsqCbtHBpCkmycAkeG3WnWc9VMwB6INKRyy2aKPxaOUxArJaIGtd3NIKenUVNzuPnZujdf0mbm6etXPvo1dW8EUPygLty/46Yfxg49qPnxJnuf49qcBSwrwYSVP/kAqSehXOEQhKKCostkhuKIzHd9pk3mFUhnjDSp7RGmlSHjvB5NNfZ+eTj5McOwIjDYosQXlP6lwwFDbRS/VPAHcHQYnJcoKP96DiBeiUXRoaePMtLv7X/8b8L39J4+o1mkVBU4jJGQwSrCH6y2ZlxV0J4Cp9ItHjrOpAhbdgNE2foHueG97TGhkheegE27/5ZUaf/hocPQp5SplqlKtEgAoxMUzQhhrcaINyry2ug7uP7bJxyhgalH2C0veYIgpOo1g0imaNqLC7EIdSEnTE8ZuekDF6IJP5eLjX6ncLW/hjxfBMIXGJ788iMb5JEt2QEY/3tp/pXKLUYuPiO0QBAtuJ84bCI84OJSuNF7MeeiUUZZDWdrrQ7kKnS3HuHYr5WVavXWP58iWKq9dhbp5kuUXDBhuWVCnSGLgyMRoRT+FKSm8BQSfB7tA6B/0MzQqlgxrcxczuRKJTrQ8K8InCKg+2xAgYQgTcQmsKbVgYG4VDB5n50lPs+OpX4NhRmBjDV16qQ16jqMqNKDiSoBRmM4eNe3h+vHsIigheZINBqWBdQbK2ivzrzzn/d/+d1TOvMba2QqMUMqcQZfAqQUlCMGEKv0PZmM0yWmjHDtK3po4Epec8yiQ0vUH3HNfTFLtnN/nXnmTqr75O7fRDuG0zMNTQlW2G0h9tSb3XOkiYUDZ+EiaZwXQx+FboQqEopSBKrSCGpJagua1+10+bHnMihbDVwZrnw2tzc9xrdbyFLfyxYtMFZWiZ2bjkSBy/61XJ4c3GUT28Wap4SfUdj1DEjPRGwDghcQJOohjHQ3sJ2iuU12/QvXSZ8tx53AeXkMvXyZZW6Cwt4bsdVK8gsY7MaDKtUGlIjmp9GTa5SuN9kBwrQnLZcH+RiMRgdYpolBIR5r0QjVahgglCNPpVAqtZQnd0BO4/ztTTX2X8y1+C+w5DrYavDHurKuiTuWCELDo4ZGys33t5brw73Ixj3huqBu2vgYJ2JVy9yupvnqf7xltkS0uMlI5EVf7ySd+heF13DubT/Y/UUNGDj4NRllf0gE6a0tu9g+aDJ5l46lHyB46hJqeQNI/fHZx/OL7JhzX/vdxBhlERiIpGhBLaa/3GJ3xDCJImohdQ+EF/2IYWk1A/cU9129rc/NMBPmodD/rZFrawhT8EPsnYUnGeGPpk6P/NUR0bfCdGxK4ivVLN0TGGilHQqMHYKGZqknz3Tur79tLcv5d8/x6SA3tYG8tpNQwrxrMsBS3XxVKijJAahXhwTvAuhrxXBhPlxn1iMDQZDmbK/i0SpsKhIzI0d2pQrqTd6dFrd0lNSjY2Do06Pk9wakDm+vs+FaLqKjUgSsP4qHPj3Yi7gqBI/78NlSke2i26Z9/m5s9/hbz7PiOdLnXn0UojysQUlxvICQzsJiLdrDpD9c2qGJ3gnLCGotWooY8cYuoLj1F//CHU/hBArMoT0yckQ68fpenv5Q4SMFxjw58NY+P78FE/UmP1lSr7QPQECgSlElvGXdSGsvHKm+Gj1HHsER/pfFvYwhY+OTYO43XHNhmrn5aghN8HUlLJYnXlOBHJiU8MK3haiYZajXR0LEbGnkbv2405tJd85yTZzknM5BguN4gWRBzdbpui00KZFEggkhMkSGaEkEiweg7ZhKCooZtWrNs/9+fHRAmpWGy3oFhu0y1K0qxONjaCH2+CMYhSeB08jJyEqOdK6aAyc/6WsBab1fe9gs+doKxfNIbsNUTAWpibY/X5F5h79tckV2/Q9ELmBefBOTUkPRk+21DLE9a+dZ15uOiEnvXMGkVv13aajz3ExFNPoI8exo6N4XUSGn9DQ3+cRv843/1jgIp1zpBkJXxWSV9UzCA6/Dr04w2o2upO+Dh1/FHOt4UtfJ4Y3gffqa9Wc+dHxe2+X11vs2O/D9xpfIZDYQ7ozw/VseEvMjge5pAYUbZPBlj3JNXWtNogBQcJFYNxVokGDSQ51EdgdIxk+yT13dsZ2bGdfNs2alNTuDxnxTqWihKXZpCkiNZok4BSfWcCpSM5GbqbiqBUz1HNPVUJH4ZnCaTGkyhPqhPS0tHudCl6PbJ6jXx6ElOvo1UwJO5v/uL0KT4EqjPG9OvlTvV+L+AuICiVG2tgvqGFJegLixLeeZul3/yOzpmzjK61qUX9oveBHQeZWBCxhTj1ldSk6hjRZHOoE/eLUqBDKPvliTGSk8eZeupJmo8+hJrZTifNUShMleAv4uM2+sf9/r2OipT03zMQtVYkpToCQwym+mgDqva6Ez5OHX+U821hC58L4tQ1TBjU0Ocbv/pxiEX1/f75Kqwbq384bJxDBwto/DwSlGHc6X42HceVuUBlPxoXcB8Ji1EqJOSTIKD3aLxKsCbBpim6WUONN9FTk9S2b2dkZoZ0dBzVHEHyBj3rKIoCVzkGaIWSkDNH6XDNYMcb7i48cqQpcd9cTXfh3iuSEUlK9E5qJikNB71Oh/ZKC6+hNtLENEZQ9SbKGIiSEl/VRTz/RgnKvYzPlaBUjSnR/ya0ZSQo1kGvoPXb37Lw4ov4a9cYEQ/iAhdRBk0Qd4UWD85s/ZFX6Qr6FkWhmwwHVlMous7TMwY5uI+pJx9lx5OPow4cgLSGl6Bd7HPxOMA+zmLIJ/j+vY5q8PUpZDUwhwYl0XZMQgLq/pF+4wxh8Lvb48PquJqcK0Pfdd+W6vMBNp5vo2534/F7Beuf4sPr9feJjd5tG/FxjscuNISQ6XXdJ7ecYuPT3w63/PCzxWYEZejYRmz8aON7Njz5LceHPrjl2GeJT0FQqueLIZr6433w+7g+hGRrVaD8UNcqxNHySkWJbopO6yGL+8Q2sokZspmd1HfvQZRQ9jr0bIF4PyAoBIISTxivuYGgEDbMffowfK8KQHDaU5jg2GG8x3qP7fUoy+CVlGR1km07UGmCTjUuJrbVqtpIV4lpB7iX567PlaAwRCkUMUKfUkF6UlrodFn8159RnD2LWV6mqcE6iyhIMJhIUERF6UngrhE6ePUoGWzQpXJjjl49SrHqPEW9TnryGNu+/BTpqZO4ySms13irMIq+G9sWQdkcw083GJoVo4+DY2iMVO6EUo3l/gluWXWqTzf7eB36dbx+Vup/NFyo+lp1cBN8WJvd9nh1vtscvhuw8ZE/k1vdyB421uGHHb8FYVyvx/qV/dbjbPL0t8OmP/5scCeCUn14Byg2PObQ+eLb9Rj64JZjnyU+BUEhPnK1nsjQscolOeTkcX2yUh0XpXCRoIhoRAxWpViToWtN1PgUZtt2Grv3Mj7aYCQ39MqCbrcbUqt4j+DRWsLMEm0i+348Kkx04V+MKBtvXqokg+FGkTyhTBVFp4MuS1JjyJWC0lKsrFEkOaOHj0KaQqIpvcOrIDUJmZ8rMnR73Hlc3V34XAlK4InBGlr70HzehYRIrK7Ce+e4+E//iLl8kawoSJ2gXYj6pwm2C14JwUQpqnfimUMThQh8RgdDJiWCmGBgpERAaW5qg7rvCLu/9U2ajz8GO3dg8xwvFkVJYoLPuxoSSX7cci+i6uQfXgYDL7xWZmrDNiZDf6NBx51FrBpFPKwCceifcciUSDHYCVTX6h9kaNCpDZNz/E21U+l/HCU761aCj4Hq64NzVtFfhq8ywPpPN15sw51VBt5V2WTx/kSIYSSGz6645eZ+fxh6jr5BNEOPr0LerP7zbayW4Xq4pQ6GOgdsZLq3nut26H+vOn/84Jbr/eGxrk8NP0pVDUOfS/XIQ21ZHV73/Yj+pp6hqovfGT7Xxt8N4/cxl22cG1Uc+EoNzyMfrTD0Wv1dnWUwC8VzqsGnGoNWJtigKINSISmfiYEqwiwlmOj8oxKDyjJoNtBTU+R7DzCxYze2PkKrKGm1WriiF5LW6hRUEoiLsygRUmMwxmC9DzmJotS4qvdBCfOi9oKxkEqC0sEo13qh7HTpdAtqKLLROmrbKM6AVxqtTPRcqtrw9g35+2jHzwqfO0Hxwc4aE706emWXxCi4fpPi1Ve58YufMbKwQOqCyCsEtwldURSRnGwyIuMVFMElWJwHAUk0JYB4lNYsTU5Rf/gRdnzly3D0Pmg26WqFoiTVNhoc/fEYHX0UbJwIbl9u/y98oxrqVZ0N6m/DfLvJudd/PozBtQcHN20XiQrp4V3KEBRDnHaT43fC+t9t7H+DODB93HL+6oP1v9u8H1e45SQfC9WEOKQI3bR+fz9Y/yz9atpwQSVDgs9PfSMb63uzuqxuYPhGNvtehU99Ux8Zw31qmFBsbKPhY9VCV9khsJF4Rwz3fzV8rfiBqCECeQdsOs4+JTa2yMcpm50jboOGPqv+VVnqI3WJ6pDgmlyRE0FHYqKrXZOiH8FV1RswsQ09tY1kbCIkHSwtqtfFdDpYr0AlpAqMd+A8yns84FSoZDVETqheY1HOYxykGIxKEIKnqvKgrcN1euh2h3zbOGrfNnSjgZgM4qY93O6d+vMfpg3/UPhcrWmi4C24S6kQZTRJNXgL8/PMfnAB1Sv7QdWqAVRVr1DtrDZrkPC5cxZnHRL91o0ocELXQUun1PbtY+TYfTAzCXkSgoeJC30yBsbZwqdHFSpvs5aqavjj1nQ1OaNCX6gIb1D5SXAR1DEYXOwRQRgbLE6q36KCdGa4bMS6Y1FE298FVfdSpV9XxCB0HlEeH1+HC7hYKtVkVW7Xnz8dNqxH6+r6D3PFTRCDJjpVlTg5x9VEYtr76t9GrD+6yfHh34sMPWnVyJuU/nI2XIZ/d3ehv6ht+Hxde27y2Fv4PaCqU6Ngcozm/UfZ9a2vs/s7f0HtS0+xcugQC5mh59qItmSZJknB+h69soNXDhIdEhDGNlHR6SPxkLiYrNCHC/nKwLcKaIlHuh2Wr1xm7vUzFGfexSytUlchRkuJo4wuz8P4sLntbsbnSlCIpkqBpAiFCyoVul06c/PMX7iAKgYEpZo6wk/jRLRuK3vrSHTW4pxDxAeWLBqxgaCsJSkjBw8wef8xmJnCpxorQRUUdHnrrriFT4zQNv3FfMOR4dePgj4hiK+BcARDNY/HEXIAubgYeiKRjRGA+yVe9OMO2er7/fsYJiqRBFXEpE9O+tQo9HhRlcHeoAy+s+Hfx73B26B63mqkVHX+WSxgXglegQ3pVPrUrCIpvhrHm3WS6sC6xtvk+C0KrFvf3gKJFdAnLBtr5+5B9QjDt1z169s/4BZ+r1Ax4Fs9x+3cBqeO0/jql5j+xtcZ+8pXqB3eDzl0bYfCdVHGk6YKnagwH+DXGfISJV7GQ+qrFCwKJEiew3ervu1RZY/OzRvMvn6G5Rdeg4tXoNMhIWSSt1KJI/848LkSFBV4RojEJxJUOyLQalFcu07n4hXSXhkT+0U7lWhsdPvxOJhglECiNQaP1iDKxcVL0arVKHbsoHnsKOnBAzA2ihgDCCE2bZUpZgufFzaKIqv3g88Hq8/6/9f/4xbpW+V8Hi331y1K6jPfRQ8kM9XjVISqWnc+eS/snyI+xvDTbHyy/nf/AFAEUXklMd8omayO377aNzs+3P7xVXwsccc46AW3lk04T7/qN+w6P8ud5/D9rMOQhE6oni98MXDcEDZdZJgOh/cqphMZ9LUh0j5UV1vYHP06A0BRGkMvSfDNJuzdQ/OxR9n9599i+mtfxt9/lPnJUa5pYQGhNCakIsYj3q3TCKzTDohCS1RBxeS3olQ/DqlWQqaErOzSOX+e1Zdexb75Nty4CWVBhsIYPegbn3G//UPg8ycoUU4h4kmNAe9gaYnelWuYxRWy0sdkc1VjDu90NqLK/TIgMonWJAq0FkT7EHlPG9T0NM2T99M8ehS2TUGeI0ZjtCYdikJ4bzfvvY/bkZQB4lQed5FBQrFhgEowxoyan37P6e+3VWVEV/3buEpsYtgXsU6X/0lRPcK6xXT95FItmp8Ew7s1htf3IfSH1R8Qg9rd/ELDLRBb4Q7HY+WrqvIqxd3tVGYhiNX6dt3QzhIrel1tfb7o38lmZIp4v/3+Xdk+BSJTFap+OnSO9SdZ9+cWboN+lWmFNYaeTlg1KWuNEdze3eiHTjP9za+x45tPk586TntqgtU0odAhsayKquY+OVn3t0JXBEWiNUxFUFRoQI1QMzCWahprq8i7H7Dy6utw/gIsLKBsGbLR/RE15OdKUACMDxIL4+Ng6xW0rlyjdekqza4ld1X666FpbVgi+yGopkNR4DR0xdLTimT3DqYfOU2yfz/UmsHy2sdOQsxYvPFkW7hrUPUHLcEjS+FQ4kNGZe8x3gWjau8xEsI09WMfDC1c1Y40nPQ2ZZOeMCyR6asg+5NONdFsXpRolBiQmKqhsn2oOvW6VaTCrffwURH6cuXtFhKTVRNjVRvV9z7CkKoqBQjnHdCq26PiEsHIfaj0d48bf/FJ0F9Chtp5qCi3odyqZuvn8Bo0wt2DTQycGaq/qk3jx4Mn2Dh/buETw6tg7GoE6kAOpBBcRcdqcOp+Gn/+58x86y8Yf+Rx9I7dlGkdK4aUhAwd7E086NiYEts1ZH9XKDF9V2X681O02FQenQjN1JCsrLDw1jssv/EWXL1J0ulh7MB9ehihL/QntHsGnytBUdUEFV/xQK9k9co12pev0eyVZDHT42aD76OgGpgS7RFKBTZPYfs09eNHYGYmhDrWSVzsiNmVQ4OGRt3C54nhFhhezCpJmRZBi8OIw0ggJP0Sxd6IQ4vvkxS1zkB1eDrfrGwuvajuZVAE7au+qiIR+fAyICab2Tzdet2Pg+ps4UnCufr3Gk9dERTNYCe+KYQhccwQSanswT7sXmNVDxO6wXirRttHLYPnqJ4uyDurUrVtZfFSFYsiZDrf3FB5+BwfH59MtF7V+aAequtXzxm+VdVxJQ0MQb9C/6/EI0PnGjoHQ3W1vp4+8aP+yUEAH2OmGA+5hbQQTBFMBzpKaI2OsnjsOGNf+Sq7n/46Y0dPQHMM6zXKQuJ1sDWJWoH++Oyr79RgwxIJhRA6gcJjXY/CdWhmmkbZo3P+Aguvn0Wu3kS1emgXbCg3w1CL3zNQ8vFG0u8f1uG9Be3RXuDtc1z6m//O8g9/xtTcIqn0SMSuG6hUO4nAPPqVvnFqVwhKbNgVJQldYJ4UvfcAU//uO+z4t9+B3fsgq4UNrK/YZ4yvooMtSj+o1xY+Ee40MBTgrA8iTh3q2bkyGDVX4VMEsB56JXRLKIP7Xhy/oX217w9oJKZX76NiEIQT6vhafV9pSFKo5ZAaEMECKk1BGcAhYkEUWiXgI7Pv9mB5BYoe1NKw0Nr4VFqH0/eN1jb0oY12NEaFxVKCuiKcI55HJ5DVIc3C/alwGReNuVOT3LIoBjXU4BrO2Vi/GvESJJbahHpzBfQKaLWh1Ql1PT4G46NgEsSDiAZt+qFsFIAIXgtOBRf+qpr1UFVXt+AApzSpAuUd2DKUoghRo70DV/bvf3iCXo/qGYd7lIT+UBRQb8Q2VTDehDQB56DbCe0lQLcbXptNmJxA0pSe9aQmQa0Tpw2/bqZeHKCq+3V3p6JCq5JURdsQJZ4Ej/YueCzaEsrYBt7HAJNm8PxVu1Z9uD+ghnU2hLYUFzO8G0QrpF5D12rhS7YEW0Dhw2pokmDsmWg6CeQmD/1iCBufeeP7P0bcaUmsQuZXmxKJQdrEeEQLNkZ2HW114coNus+/yPwvnqX1yms0r12nZoURDN5AgUMlBkkMReFwzmN0hlEpVIb0CEoF8qzwFFgKLLnJUIWwmNXRB+9j/OmvMvmXf05y6n7IUyTROPHghEQlgKKMuYKSavzeA7gLCIql6HUwNYUpLPzrb7n8f/0dnRdfYaLVRlHE3W5AXzS9Qa++OQSPRZRHpzkd0dzI6kw99iR7/9f/Ef3FxzGjY4hJw7dF+gNQCNcI0+S90px3J4bn0I1QgCs9+JAnQ2mF90UgBDhs2UOttGB5DbW4hlpqIWttVKeIBs9CTwuFDukSqv6hfNDZKgkDXCnX7zNeBz1ytRdXjQaNbdtJJ8ZIpkJqc5vnSJZhlcK5gsx4xGlSXcdbj0bw12+y8voZOrM3qKVgSiEpNE5pemnQOaeRoDil8cQAdRvglSCp4MXhfMjrkaYpJklIkhSV5oxs34Mem8Bsm4CxJi4xFC6Q+tSEbNvDCAku48VEULaMhMdgvZC4SFB8D7e6SPuDD+hduoydX8EUHrVnJ437DlKf2QnNMdB5WPSjbkYRGtUZj9WR2ItgvML4ahWNMzkhnURPJeRYkm4Hs7YKS4t0F+Yplpfx7TVot8LtohAMXpkheUnoRVWr3QLnKNsd0lqTQhnc+CgzDxyntm0S31qjc/06y+++x6hSFCttOlrROHSAqQdOIVPTdAQylQUbt4oYbMCdFuc+QZFhtWEIE6aDYIROWaASQ6Y9uuxh2qvYxXl68zfxK0uUy8uoXoknQ0gJPVgDlZtpfPahnfcAgteOnuuATUhUHTs2wtiB/Uzs34Pkhtb1a3Rv3sB0PUlPKOo1mvv2YLZPsVZLqCc1Ul+FNgvY+Mwb3/+poS/oGprVhteMAkuJR0uI7VW7eInVX/+WtWd+ivndC7i5JaYwkBtarovVCtKE0griFSbJENEYkSABxmOigtYrh1MOpyzKeRIvlOkobmSa9vFjbPs3f83EN56GmSnIEgpxqNKTqjB2iyQQlHSLoHx0SFniyh5JAqy18P/8r1z8u3/GnnmLiW4nimQHtH54E/HhEJDgcFrolE6SsTyznT3f/CY7/t13cKeOYWoNRAeCsuGXQJiTtwjKp8OdCAqEg9Z6vFgSA4l30OnCjXnshcusfPAu5fUrlIsr2MVV3FoH1S1xIljxlEoo9WBXo6K4W0cRuMKitO0vPMH4rPLS0piRUcZ37ibbNs3Yvj3UDu2D/XtgfIQyT+iJJ6vleK8xpoYuLKbo0XnrLOe+9y/Mv3mGvGiTO8hcWFgLA0o8uQ+5o7wOBm+bQRCcjo7SziEiZHlOYgxJmkKas/3ICdIdOxg5fhB99BDs3A5pRumF0guJSTZZWML7oM7xKCVYpREg9R4KCzdn6b3/AR/87GesnX0bltukTmN3zjB68jg7H3uUsVMnYXKaMjE4DV4LiUAilVg62IlpCZcMOnWH4PASXPwzNMoBC8tw4ybuymW6Fy6ycuUSqzeuUS6voqJkQ1RoFx8NBYdHfCW+vrUmFV5g0XvaoyOMPXCcE3/5Tbbt30vr+hzLb5zhrf/+d0xrQ9kr6dRzZp58lGN/8U3M8WO4NAdJosl+ON9G3GlxluhR44nxXeLcoQnqAC3Q6xbUTALdFty8gb3wPsvvvcvi+XO4xQXKpWVU1yKkeJJIUFS0i/FAyCEzaNn1SJKUXlkwZ8GNTdI8cZS9X3qSgyeO4xLNzTfOsPLee0i7xLcL/NQE2+4/zvTJI/iZcbSqdu8b+9EAG9//qaFaLcOyOdjQVui5AosLJgM6obG8AhcvUTz/IovP/oqVl19nfH6ZWi2hLDt0e10ESNKcJMkRpSldUE0nIpjYC6QaUdrhjA3RZp1gyXHJKK29e5n42tPM/NnT8PBJaNYpALFCHjcXZRxKWxKUjwFXFOBKjPIwv0jrv/4z1//lGTj3HpNlEXMnDG6xr+b5CFAI+BLvHStoOo0mnLqfQ//mr6l/82nKvbswJovhhG+PjZ1wCx8PH0ZQJKorHAXiCxpr7SAefeksqy++Sef8myTzlyhX25QrLVThSL1BG4PSGqvAqqiXr04YbSyUgFYlRpVx4tUhOmN0Jhc0ZZLhaw38+Bh62zT1E4cZffgktROHMAd345sjuDTHeYNOctJuge60sC++zGv/6f/D3PO/YweWhoNcUtCaQodIkrl1aJFAUG5TDwKQaLwI4hzihSwNfVKhKIwh3b4T2bmd5P5DTD/5MOmjD8Hu3YjJWBMhiaG7K6wn1WG5d95SKtDK0MDB8grlK28z96vnuf6znyHnzmFaJTWVsjo1gT58gOkvP8mOr32Z2v0n6EyMUiCUOHLR5FTeckLiBFywgu0lglMWGzcXCkdzrUTNLlO8d57VM2fpvP0u9vx57NwsfnkBU1hqPqaDVeFXgajE5TiqXm63OHtlsBiuaqF3eB97vvUVjv6bvyDZsRN34TpzP3uWN/9f/wczKLrWsjxSY8fXv8Txf/fXpE89Bo0mQhb7xua40zxQEZSwiASiEuKVBjJnHNDzsNbGvn+OlTOvs/LaKxTn3sPPz5K11jAdS2oFkQSJBCW4wTuUcqBKFGWog1s6kiIzdXpdz4XEwJHD7PjGV9j5ja8wsnsXq8srtM68hb50mZW5JaTnyQ/sITu4l9FjB2gc2Q9pHdHZuhre+Mwb3/+p4cOWS+dLnDhKY7DKMFKUJO0OXLzMysuvMPfDn6Beeo3Ml+RiKbtdxJakeQ2lE0oviFJhA+CDbZFWcRODYLWjNBYjccz5DGczlscnyE6dYvLPvsr4d74Bu7bT0xrnoGFqCGCjytxEj/17AZ9rqHsA52xwEbcOLl1l+bcv033nPZLVJeobyAm3mZyGUU1g1feUCC4SFD85ydijDzH9lS/AgX34Wh7D2N9+UmJrUP5BoQDlPYmCtCwxi4uUb7/H4m9fZO6539F6+TXU7DWy9gq+08XZMpgKGo0YhWiN1zHeQ2VrGu1NQyTZsOMP0Rs1XgVSEqQo0dTBC/RK3Fqb3uwCq7OzdBbmMbagkafoWh2TN8CkFEoj3pGIQ1+7yvxvfgtXLrFTQ8MFl3jShMIE4uQkXFslCaJ1tCkJRapiNCSBbClt0EaTZdmAZDhPd3WV9vISa8uLuF6PPM1ImqOoxgjKpOG7t/TTMHYU4MVT2hIQUiWYXgHXb9J+4RVu/Pw5zKXLTHa6jDgYURrlHVIWiBKSLKWxbZp0fAK0UKqg4jJR3qBFgnTEq5iNNXjIGIS6d9TaPdT7F2k9/wqrL7zK/G9eYvn1t/AXr6HW2uQCmU5RyiA6AZ0gxuBNVU+hnUMxoe2G609rSq1pKyimx5l4+H4OfuVJ6ifugyxHLbdov/c+7q2zTBLVQVlK4+Bepk4dx+zfTZllhCQaA5K3ERvngeGZadD3QnAtIsXIEHQR7XsuX4ez7zH/3HPcfPZZVl99DXXtGrVej9QGtUCwHUkQbfA6xsAwgfgF+5/KLslsKJquhzXraW+bYOKRB9jzpScYOXUMledcn5tDFpeYFnDdgjzJGNu5A9+oUeYptekJdFaPti8DbHzmje+3sB6BX4f5xUabxiTLUI0G2dgY2lnWlhdYXFtBrCXVmlwUidE4ZyltiTImSj0DPdd95V6VYDVsSPCgxaCdpnCewpZIM2d8/24YHSWp5TgBZZIw10ViEk397gl8/gRFPEZpKAq6b77D8u9ewp2/QN5bo6YsXlhHSz6sbvu2kFXRQimO1SQl3bOXqS8+Tv3xh2B6CmdCsii9RVA+U1QTe7+NvIOyhKVF2u++z+yvfsPss7+m+9pbjN2cI28tYzqrwTIhSzBZBrUMnSao1KCMwWiNTkJRqRkcSzUqMZAkqCRFmwSVJGhjwveNIUNRczCKZrTwqHYLu7REubaK9j3SJEVPz6BqDdooxFtyb+HKZdZ+9zvyG9fZpYSkKPFWSEea+NEGZCkkJsTXSdN4H4NSvVdJWGAw4X60STBJEowqrUdKy6hW6G6HcnWVXqtF6YWs1iAdm0QaoxCzegdSc6usRhQh1pDWZN6hllbw75xj5dcv0H7+FZpLy2yzjhFR1MVjrCMpSqy3ODyN7TOo6SlINaWJrt1VgrUhViiJUJggmk4RkrUW7upNWs+/zNLPf0Xxxjvw7kXy2UXGu5aRJKVeq5OkGd6ENiJJUUkyqKvUoNI0tF+y/rUqNkuxzRojxw+z/+kvMPbo6ZC+QmlkYY3uu+fwb77JWIwsXdYzagf3suPR03BgNz2V9vO03A7D80BVuwOTlWoBUUhcThJcyMey1oJrN1l67nnWfvcirRdexL91lrGlJabKkrqEBHFKp4jJQafBMDqScJVItHuNBDb2X7WuJJQmwTUaJEcOMP3EQ0w/ehr278Ybw/JqC5mdo7nWRkqH8iD1HJpN8qlx6jNTwVkg5qepykZs9tkWBvAioDRaJ6CDx481Bmo5bmyMZp7iyjYLN2fpLa2QC4xEY3fvLV48YnTfM6sfmLRSTRNy+Rid4L2QiCGTYNivvMPXM9LpSbKJcRgfhyRFdDAaU0KIxXIPteHnquIRwHpLKsDCIsvP/Iyb3/1HzFtvMVIsk7sejpgwKeJW0eZ69MX8AAhiPC1XMF9rMnL6Ifb/P/496de/BCNjlCZF6zR4ZtwB91KD3o1Yv1yG6Zs4r2sI5GRxGTn7Ljd/8zyzv/kNxdvvoFYWmU4NbSUUqSHdPk02M00yMQnNJsakKJ2Eyd25gZOoCtsEiVIVRCM+xgaW4EWhZWAZ75fXWL1yjdpaQb5SYMuSji0oJ+rkh3eTP/QQu/7y25jj99MbG8WVPWq2hzz3az743/537Btn2JsYOj1H2RinduQ+5NA+emmG90JZFBgTjB03QwhlHS1iKlsOF7KX9toddKtFOn8TvbLC2mqLXpqhDh9hx9e+xuS3vkV++hRSTyh1ZRQ8fKWw4GqlAYfxFtbW4N33mf/lr1n612exb7yF7vVoGh1STYjHFg5B0xkfxe7czrZvf5uRp5+mdmgPvakmTgCtyUhIRMeoYFCmjo4paUhJ0mkh719h+eU3Wfz1c/RefRmZa2FWCpRJyRojMDNJMTmKHhshn5wIPAcJKQJ07DmKYJkbbUQ286ortWBTGDt2mF1PPQEH9mIbNRJn4OwlZr/3fa7+n/9fpoqSbuFYGR9h/Otf4sj/+h/gyYcpkrwfp+Z2uC1BifASQ/ojKDy5K1GdLvbyDdrvnOPq936Iefsc3LxOsrZCmhuSZo3OaJPVPGdi70HM6OSQ/Y1HlAMdVTxiUGKC6e2tVYBFobIU2beXqYcfZPT+E7iZaUzPsXJtlqU3XoWL51E9h2sV9EYaTBy9j+mTR1C7tqGzWvQA2uTkEX/qc+GHLZdWQih7rTQGhcPjrMXEjMl68QbF6y9z+fvPsPKr52ncnGdHt0SroIIttMIajXGKxMe4SXEMi1KIlCgdvH8KZ0kkIZeMNp52qljbvZPGE4+z/zt/hXnkQZiYwkaCErzrBHUPiVA+d4LiCVmKuXKdG9/7Pje/+w+MXrzIuGqhihZe5Yga2Ih8HIIiSnDGsyYlS2OTTD/5FPv+n/8zPPkwXqU4lWKSbEvF8wfGgKAEPX3VQn2C0unh37/Ayk+fY/4nv6R4521GlhdwaQ+pedi1n/TgUZr37ad+aB+13TtxY2OIShCVkDiPctGQur+Zj3ksAC8pIilKPAqL9hYlZT8mhlpcYPbNt1h75W38W5cwiyskrQ4u17jxnPb+g0x841vs+da3UEfvw2lIxGJ/+Usu/m//O/bs20yhWBOF2XOAbV/6IvUvPRVdWGv0nEUllb/0ZpCBAWRFUEpH2elStDvkK8u899//fzSvXkNuLFG0Lb2pGaa/+GUm/vrbNL/6RRivYdNgVaOil1tAMLRUOthDUPTg5k06z73A1R89Q+ellxldWKA0hqTewDQMXkqSlS5Zx1IkCd28Bk9+kfFv/BnbnjwNB3ZgE0OhNZlKSCS6xAp0E0tPW8Z6bdTcTbrPv8mV7/+SlVd/x/jCZaQNxmX4yRnqBw6RnTqGPnEf+e4dpNNTeB0MAkW7kFwtkjckBUlD7Jj1lQcQFvLEoSfGyHfupEwTOl4YlxTevMC1f/gnbvzXv2WyW9DtlKyOjjD9ja9w6D/+T/DkI7gsZITdzCB+s/G/GUEJdw6WIEHKix4sLrH4+llu/voFOj/+V7ZdvUbaa2O8pTNaIz2wF3PqBO7QQbYdO4Wa2BbJiUKUiwTFgnIoXwPJb+tZ6KXEugLbHKW+cxdmYpIy1eQFsNRm9cp7rFx+F9WxmAKKPGfb0SPUD+6hN5KTJnkMEHZ7bFYXf0r4sOXSKijFoZ0nj9GpxYcI5hhF4lq4xevY515g7nvP0HrxVWbmVzDR07A0mq4SjDckLkGJRvc36IKWEoPDp4aOOBKVUtM5XbG0KFlsjsChIxz7n/49ta99GXbtwqUp0icobEpu71Z8rgSFaJuurYezZ/ngb77Lyr/8hKn5eeqJBdeL6aZNfzgOq3CGsdlDSMxou+Ita4cOs/vbf8W2f/MduO9wCM+kgzh9WO+82QDc7LMtfDRIJCVStZkEVQRxn6hcCXOLLD/7a67+w/dRL58haa2SFT1aY3XUnhl2fvGrTDz8GOyaCWViHPJozOdVMK2vOkC/owz9LTpEbY2UGHGhVMG5uj24dpPWq2+w8MIrdM68jblwje7aCqaWUmzbhhy6j73f+XPGv/llku3bwXncL37J9f/8X2i98QZ50aNtDI3DRzjw7b+Gb38HduwIcTiQGJ9iuJcOi/oCQVn3HAKUFooSWh0u/59/w+qvf4d6/z3qRcFalmGOHWfi3/4P7PzOX+EnRvCNjESrEFNEAFRwUlSaoldSTxNYXkDOvMa1H/6Exed+i7p0jXErLGc5tX17mT68l8IInbPn8ReugRSIFpZ37Wbqi19i37f/DPXoKag3ccrEpJoSbCYwFLrEas/o8iLF22+z/MyvmP3+z+hePc+UKlhzhnRiJ81Tp5h89FGap0/AsYMwPhFi0RAHOX5ATpChNoztvRFaCDktFKQZhXf0vGXUAmcvcP0f/on5v/sHpnpdeq1VFpoNxr/5Te77j/8LPP4oLk+hL9sbQIa8+IangY13UL3vlSVKQa4UutumfPc9rv/0l8z9/FeMXbhEY36BjrfoiRHSo4eYePQ0zSceheNHYGIHpM1Bx+3XQ6wLSUGGpb3RCry6ughYG2h/mkOW4lONdsHuRHXXcKuL2E5BpgyS5SSTE9Co4RKNMekdF+CteTDgTnUkSmHFgXVowGiDUkH1I4D2XXzRxly6zuqvnufyv/wQefUNRm2HSR1MGkpPJOMVIQ/ST6VsCDiJ4BNDTwSjElKVUaoQI2VVp5QjE2z/yz9j27/9Dur0KVxzhEI8qXiSJIF4L9wDbXpnuvwZIIizgYUFutevYTotEu+xaFxWw2sTDYPiD/qLTiQrVRl8jAzlobDW470m3b6dxrGjMLkdVB1lcjC3Sk7u1Pm28PEgInHNjXvL/jwaAxBRQtmGm5dZeutVWmdfZWT5GqP0cJQUExM0Hv4CE1/9BjzxBTh2P2zfHeJyZHVIa5DnUK9DI5Z6LLUa5FXJkJpGagappUi9hm808Y1RfGMcxrfDoftpfv2bzHznzxl/8lHSXTuwOsVYRbNVkp67SPutNylnLwNlCBpXevIkxTqHTRSlFgpKbG7CPYw0Q2C1egr1bFAaGb6R4RoZtpFiGyllnuLyDF+L323WkYkR7LZx2DHD7qeexm3fR9cYajVFTbVpz1+guzYLvsB7G6s3Bt2IZEfFMVGWHkpgdpaV115h+fVXSG9eo1latNPYrEH94BHGn/4mM9/6NrUjpyibU5RoUilRN69iz77O2rm3YX4eSo/xCcp7REo8Dqs8ooKpKWttWh9cov3eu4zN3WDCWTQaNzpGduI401/7Cs0/+yo8ehK3Zxo3WkPqsdTqSK2J5CNIPorkY0htZNCuVRsPFak1cGkdZ+pYn6BURp7Ugt5FhXQa+OC7lWtLQjC2DpanIUBbFaRNqWhwHEs1//QNFfvsd1AqOwFXlmgraCfQarN8/gKd198ge+ddRldXkXaLtgb272Xm6S/T/NbX4ZEHYN9OZHwE26hhG3ko9Rq23sDWRrHZODZvYms1bC3H1jJsPcXWEmzNYOuaslmjGJvANkeCMbFz6NLhtVA2E/zkOOmBw9RPnMAcO0py6EAg+1mOiZ6Mle3JZmULARvrZbhoIFOGLM1I0gxlghGzNgnGJJA28LVx2H2Qxhe/QuOxx1mdmWEl04hxGDw1J6ReESy8KnmZR1OAsjjtgxpRaTxQiMOLoNGMlJ7x+RW6Z99j7f3zsLICOJwrQ0DUvhQ74G5f7z53ggKECJKtFklRhNwpfVuBdcr0j4zqJ4Ki4z2ulpNOjKObjWC0qIIx2/pt9hb+EBjmldVeT6J1Oh7oFpQXruLOXyNv99DWUWjw28YZPXEfow/eD3t2wFgDGnmQnAy3YTVxrltUor42loqsViV49Ay91wqfpzAxitm/i/zYIfITh6jt2U6SppiiJOv0sDfnKW7MhWirAiakyMZZR5bkJCa4GDsVTCYw4HQMO6t10O9HtRQ6BRWKqBxnapRJDWtqWF3DqwzvU3AJiEZPj6JGNWIsSizGeZLSkZQhImtiwlD2Eu1uFKAkBCnEMZYBK3PI2bOsvfk2Zn6RrLAUeFZyTXb0II1HTsOpY3DyCOOPnyK9/wDFWIPSQy5Cce0qs797kc6Lr8PCAqiCQixFYiiMpheJQM2WMLeEXLyOn13CeI8XhdUp9X17GD19nPqJw7BzGkbqIY+JCV5Vw+22rvS9GG5T4li+43QxJH0djPoPH/8fdZbweLTWpEqFbfD8Cv7qLMnsIs2uZXWtx1o+QnboMFOPPkL2wAOw/yCMTgE1ENO3QVpfqpBtDo0NRcVXXLRY8SHVAxajPSoNAieLw0kVqTlKoNjM42sLnwUUOjhlJAY9Pcn0yROMnTqOHZ+g7QyFj56G6ta+XPXxOLTRPqbKiL1TVZFzxGFXV+hdvQaz85jSUjMGo5NA2O8hfP4ExZbQbVMsLuLX2hgfE7tJ0KV/GghQKIUaG2VkZoZatGr2KjTlR5t2tvBpUdWyUOUpiZ9JcO9dOXcJf/46ebtECkuRKLJ9O5h88H7GHzoJu7dR1lNcFkJE93nr0Gt1oUp61idDrJeo+Wo3PFS8UfhUIfUUtWc74w8eZ+yh+6nv3YXSCul0qZWW3s05Vi5cDsHGCK6eQpDSaUIMD+s8hbPhnnQIwFa5OFfLjKArP2jAhOVFJViVYHWK1Qlog1EpCdFwcTTB1S1iHIlWGOtJCk9iY9j4GE3WOhfC4GuF1eCVR1OC6yCX3+f6Sy+yduYs+fIaWWGxRqF2zbDtiUcYffwhOLQHDuwgf/QEI48eR++cxpmETATm5lh97Qzt374MFy9QuDYuVXRNQlcFCZJB0K0OXL2J++Aq5ewCYl0Yc7U6E0cOM/7w/XB4L25yhCIJYRj/MCPxU04gfXw0iuJ98JDQaLACNxbonb+Kur5AoxCsyvHTuxg98QBjDz0Mhw7DxBToOrgMKQUpy9uUAil7iO2EUnaQsovYLmJ74XjRgaKF912sKmKUX8GJi+kTfl/1sYVPDBGU98GDdHyEkfuPseOxR6jt2kOHjLYdRJ0e+lH8XxOcjsPENcj3FXLIKQnG2YilXF2hdfkq9tpNaHVIVIJRBufurT7w+RIUkZCLotOit7CAXV7BuKC7Uz7Ef/g0JEWUokxTzNQ0zV07YXICEoONi9bWgP2MEI0PVdy5hbpXIefLWofVy9dgbomaj6nM84zG/j1MnjiG3r8XRhrYJARjcyLBlS9CVWRk6JXqfSyDq2/+DwkW9D4xMDKG2ruP+vEjjO7fjUoNruyhyx69+XnaV67D0krou9qAgLMOV3jKnsNah/eVbkXItEK5MqpBQhEJBSlR3qK8RcTjvcd6h3M2Pp0D14HuKizcJGmvkniPUoaeV5Q6xWsTVJVKoeJ+2kVJg0IwzoYcNdeusvrG6yy+9jr2yjVMYekBvclxag8cZ9ujD6H37wvqsMTAnp2MP3g/jUOHKEfGscpgrMXP3mT1jTdYfPUVkhs3qMdol0EErYLBe7tF+9p1epeu4pZWUc6jkpx0YprxQ4dIDx+E6Ul8mg3C2Q+Z3/y+0D+fCmL5PmGVaBl1GylCX+wd40Z8FFTnNtoEtVGvoHdzjvalqxSLi2S+ZMwI2+uGnTUFvVW4fhneOQuvvgovvYp+5U3Mq2dvX147i3ntrfj6Nua1dzCvvhvLe5iX38a8+Bb2jXcoL16BldUwlypN6QRbGZJv4XOF1gZMik9z2LGDiYdOM3L/SdqTUywbQ6FDxGbpZ9eu2i0QFImbG7XOny30QKUkGNy21rAXL9N6/4Mg7fRhG+BcZZ92b+DzJSjEJGndEHfCLS+jnUMrFVy0yk9XmQJIXiObmaG5c2dIgGb0BoLyKS6whTuir5utRBtR/RIGlYB12NUWsrhKs11QQ5FmGWqkSbJzB+zaSWdkhE5isDqqZsQHFVHf7iicty8dIRDTjSqfajhvVkQ8Ig5RhtLkIX7A3t3Uds6Qj9YxWjCuxK2sIEvLIQy/c2Eh8iExoS8FW3pEFCYJMRDwwViuaK/hfQ8nXbx08b6Lsx287SBlGym7gahIyLYrlJTFKq63gl2dh9mrzL32IuX1a5jS0iscXa/RzVHysfFgl+Gj2YkyuLjoKxFU0YO1Vfy777D08kuU779PY62FLktskpAd2MfkFx6DY0cox0Zoi9ADmBwlPX6YyZMnyXftR9KcRmqYFEFducTiK6/Qe/fdoOO2FmVdsCfzDnodZGkZM7+IaXVQTtBZnXxqO8n2HfjpcSRL6QWfqmAuHYfi71cnHm1xUGitoZ9pOBwKWt7QRzbjKoo7S06q2WP4jpMkDW3f7aDX2ujlVWi3SFxB3XfIWvO0L75L6/nnWP7hP3Pt7/4b1777XW7+X3/L3N/8N+b/5h82LQt/+/cs/O3fsfi3f8/id/+Bpe/+A0vf/UeWvvs9lv72n1j823/i5t98jyt/8z0uff9nLL76JuVcWJh03JH/Xqt2Cx8Lod9VRSHKUCgDzSb68CEmH3mY/MgxitExShPUxMFapMrAHhetaCy+TnLSV4B6jBISA7rdhms36X5wAXf9OnTaIIIt7QYrlLsbnz9B8Ra6HfxaC9ph4jdKkWiNqmatTwhRoOo1sqlJ9NQkNOo4o3E66un7Bm9b+EOiP83HpgykJWQolsKGRU15nBJKA6pRJxsbh8YoYnIEjQ7BNPs5X6pWk81UOoNLr/vOOhXP0He1UiQ6DHbtFKgc6iMkIyNQz3CJ4JXFll18txO8a/oLXgiaVAX8U4TkcHiBbkH3+k26Fy+TXr1Odvka6aVrpJevkl24RHr+Esn5S+TnL9E4f4XRC1cYu3iZkUuXyD/4APPeOyRvnYE33mDt1y+TXpil3lMUVtHL6uR79jKybx+MjIAJWTuqdMNagvcGq224fI3rL73K0htnMatr1ExCT2uY2cbEAydpnjoJU+N0teCdI/MqGBfv2sHYAw8w8uCD+G3TSJ6jM0PZXaX1/vt0X3gVzn1A2m5Rt57cAd5jfRfnehjxoV4BnWZkYxOY5mgwUHeKtFSkEu43jEXZhBDcrlXvgMg2PnRBrsRt6665sSd92EluD/EOEUeZeGwulL5Ha3GO2bff5uJzv+X8j3/G9R//gtmfPsvNn/yCaz/5KZd/8uNYfjQoP/0hl37yQy498yMuPvMjLv74R1z48Y+48KMfh/LjZ7j442d4619/ypnf/ZrL77/N8uo81heUWJx4Em0wmzgFbOGzhaBi+gJF4sFj8ONjNE7ez+SjD5Pu3kWpdUhoqkKSyEEfVHGsVMazg7OGM8fEqNpjbIFZWqJz5Spr167BympwCKu+fo/g8yco4qDbxq6uIa02OIvSCqM04gaeH58EgkLyDD02CmOjkJmQlE1J3+BuC58BoqdV/DNKVIIEhcIi3uGVxxmh0FAajU+z4KWjgpGo8ZGgxMRrVb+oyEklCK007beUIZWP3/DeaE2idfC+6CnwBpIcsgxroFQOUoUXG904fVgEXUhbr1Xlqh6kRVoI7sGrayxcvMTCW+9w5cc/Zf6Hz7D4w2dY+sFPWPzRT1n60U9Z+dFPWf3hT1j7px+y+k8/YOGff8DCv3yflWeeYfEHP+DKP32Py3//j/iX3mJqvsuEquMlxY+OM3LoEPnBA5CHJGOhfsPkZ0RBKdj5JebeeofZ197EXbzKuErI0pQWQr5/L9MPPQj791HWM6wREhTaQWkdZbMB993H2COPYHbtopsYesrhpMBfv077ty+x/MprqKUlMi+BoIin63oUtocSHzJUS4zykuaQ1VEmQzlDbjWp0/2+EWlrv2EGBKNvtFR9sCmqo3ce1aF++oQodpBwrT7tHSrV+w9H5VFYXcKJw2EpEkeRg6kZEhx6eRVzdZbG5Tm23Vhm59wa228uM3FzlrHZa4zNXmVs7losV8P72auM3rzK6I1roVy/zuiN64zeuMHo9Rs0b9wkX1miboRt02Ps3LuDkclRxCic97DRy30LnwvCZin09ESg5xVrSQK7djL20GlGDh6gjBFoB+SkmtUiQanc7VH9flpJUcCjtCP1JenqGuWNWdo3bkKnAyIhwu2HjJC7CZ8vQZGw0yyXVynXVknxGCOgHV4sOrpt6TjwVZwEINSxqBBx0itHcLwKpkUGhdeanlaU9RpMjcNoA2LnqPK+3jvNdG+jEtuHNWZIZuUJ6gilgpuq8yFIlVP4QsCC9sTonhoRFY1Ng9omCD7DwAy5YUJ6co0fhIomGFwjHsQHdc7QP49E9YLGKUVp4o2VJaUtKcWjTHAbNNoE9Q0E1aTRlM5iTIjTE54r2jeIp/SOnrOU3R6v/uw5XvnHH3Hmu//A+9/9e25+7/tc/4fvceHv/45z/+2/8f7f/yMf/P0/c+Hvf8CFv/sRl773DFd++HNu/OxXXP/tC7DWovCeJa1YHR+ncfIEEw8+ADu2URjBGofzBaq01CxBH7baoffeBZaef43ywg0a1pAlDYq0jtu+ndEHT5MfPY4encBjSFWKSRqgargyQQoDkxPUHjrB6OlTdLfvppdm5Eqod9t0PzjH4suvI2fPw2IbZQ24FGVThBSbJBTKUdCl9B1K1wFfBNsaDejofyIGL6EPhBZZTzh9Nc614LXHa4/bUHwUq/XX4EpdFFU4MVXQOuohEmPieI8IeG1xOrpxxoiw/T6Cx4e4oP0S0rdVxaNQYVNFVDt6jxePUsF42WR1dG0MaYxhxyZwE9MU49OU49vw09spp6bpTk3SmZ6kMzVJd2qC3uQkxcQkdnwSNzGFm5jCTkzGMo6dGMNOjmInRmHPDsYfPMmeRx9m8r770GPjGG1IUMF2qbKNul3Zwh8OUdUcJ8HQVxUhOKMH6g2SQ4dpHDuBndlF12T40iLK41KPVY7QnWPGPwjB+5RDUZXAtL14TJYgCZQry/jzV+H6fFC9bpLf7m7G50tQCLNGa2EJu7rKSJ7QqKeIchRlQZYmIX1XJdYfqtcBtwzThVfRN1xAYxCt6SnQk2Oku7bDWJOuFtCatNLP9/McbOEPiarZtKriSknYIaMxtQY6TUOYZ2sRUSinsaslrPWQElSMCRCpB04HMuFV2GUrIaQmHyqVv4yRkCjBVNePheieilLBjMSCGIPLTTBM63RorbUorMOkGd55tDZk9XpQSeEhS+gVBYkJ4nOjg82NKCBPSUcazOzbw8FDh9jemKC52KVx7hpjb19g5r3zTL93jvH33qV57hyNcx8wcv4K4+9fZ/S9qyRnztN4/zrbl9ocSGvUjaGlhFmjSY/dx31/9i0aTzwGY006Ji7SrofulSFzbtfC9VlWX3ub1ktnaCx1GZEanY6nk9SZfvBhJr/wOOzYSWlylMrIyNAmQ0xOzTTJXA2yHA7uZOcXn2L84SfQYxPUFIwrT7Y8R/etd1j99avwwXVcAdiMGqOk2Sg2y+gqR48OpXTodVewRQvvCtAS7YpUTGURO8eQZEuibVHYiAhOeWwsw3+H9yELLFEvH/loUHlpjZUB/fEEd2xfBeyT+LkqcZQ43DoKUhGUAam9laSARwuIjVJfbYJHjzEk2lB2C3qFUOo6amoHjcNHqR+/Hzl0H7L/EOl9x0mOHkcfP4o6dgx1/Bj62DHMsaNkR4+RHzlOfjSU2tHj1I4di+UItWP3UTt+mPqp44w+9hBjJ47D2AQiCi2a3CSk6k5Zhrbw2SCsNaGbCk57slTTMCnOpLidu5h68BHG7n8I1xjDFRZlBFcLWYzDbyNB0RLIiQqu58F7J9joOetI8hRVS7Crq3Tfeh+5cBnKLqjQo+8VfL7JAr2HsqB15i3ar7yGmZ0jrA8O76v8IR+GuPxFvV7l7llq6KaG5PAhJh58gPzAfopaDaVStArxBm63cdgYlGjj+y18PEh0vwy7ykAttVYo6zGdHquvvY794CI4R6I0RZqRT00xcvAw6cwMiak8f4gLWRBoVnIwrVRMVxDULAMdbSiVOSzoMMCHjgvBJqnEIRoShKTVhktXaL/6Ot0z7+CX1xALvbFRxh48ydjx4zCzHa5dZ+7Z53CzczSTlI441NQYkw+cJD19GsaaiBJSo2lkKbU0IRFP0WnRba2iSkvTZEw3RtGFo6ETMoneTV6w3mOVopdlLNVzyj27GHvkQXZ95cs0H3oQ9u6Bep1CwCgdXAm1QTsP169TvH6G1iuv4M99QN5p43tterWE0WMHmXniQcyBPaA1prSYdhuz2kK32qhWO+Traa1CexnaK6jWGiPLS6j56+RrSyjrkF5BRwxeZaRTU9RmtkOuQHr0Ll5m9f0PcMuLTChBVEqS5IweOojZuwvyBlaFTMXKKIwOu8nKhqZq19iDgt2SBBdLxcD4evAvtLF4MEoF6Yl4EudhYYXWW2+z8tabNLzF2x7tNCG/7z6mTz8Iu/dAooO4rj+LhH/hvNX5B9cKAcjXf8/5sAEyWkGvh1y+SvviRdzcLHUnFIUmHR1n/IHjbP/i40w88TDjD59i4vQpGqfvZ/yR+9n28CmmH3qAqYceYNuDD7DtwdNMPnia8YdOM/7QA4w/XP19mvGHHuyXiYceZOz0A4wfO0a6aye+0UDSDEyCkZDbKez0bjfrbeEPieEaF+jvtrVW/WS1ojRJr0e5uEgxN4tZXMJo0EFHipYk9vtoa6JiegyC1E5VV1EKlMaLYJUhrTdp7N9Lct8+ktERUCFzeoW7eX37fAmKeOh2WX39DVovv0Y6v0CmiTvUagH5MFTfGBAUEaHUiiJPaZw8wfiDD5Ls3UWZZ2iVYIgBkapTbGifjQ228f0WPh4kZr4FBT7sQrUxoe0Ki5w7T3H+Er7bpaYNPRQ+Tajt3EG6YwZqeQjmRRh8gWRUA7IyLKm8M9bL8cM6pfBOBet5HyQmLjjf4ICuL1mVDpkWMlugr92gfP0tVl5+A3nvIqrnKByYvbvZ9vjD1I4dg8lpuDnL8q9/jZ9foCbQdiUyMcL4yfvJHjgFIyM4I5g8pbF9mpGxJqKg1WrRXW2hSk/NKUZMFoxvrcWgyfKc2tg46dg4anyc7vgoycmj1B46ye6vfYXRJx+DfftgdAx0iregvMYkachl01rFvn6Gped+Q+eNM5gbN6hJyOfid06y44nT5McOslq0WfrgAv7yVeT8B/j338OeP489f4Hy4vvYCx9QXPqA8tIHJNeu0LlxFXvjKllrhVQUmYfCG8rSU9ZC2PRssoEaNTC3wNqFy9jZWcY7BWIFY4Vk+zaSnTtQE+NQryFaEB28qLyz/fYKTR1bWEk/J0nf9yom9qtKlUNGSSAo+EBQjA0EpXP2LEtnz1AXhy97tLOE2pH7mH7wQdi9F50GmxSt4jnjq6KKNxEsrMPrQP9UeYF6DyWCSnVIXtkrMEsrdC9fpXvlCmmnoCiA5hjpiYPUHrkfHj2FPnUEjuwP8WcO74PD+1GH9qEP7UMd3AcH98Oh/eH18AE4fBAOHYjlUCwH4eBB0r17Saa34ZtNyixmekajvEeFHV8kKNw66W3hDw61brWqIs8G1U9FGJR4tCsoblxHrt9Aej1qgJZoBA/R1sSFEu1UQj8N0hWlKpsqQUyCyeuwbZLaoX2omW3hWlsE5SNAgih96aVX6Lz6BvnSEgYXRPI6xbmgvx1gY0WGfXFlmKZU2Mt4L8FVq1Fn5PRpRh88jdqxnSJN0QSCEqTJ1c5+w1m3CMrvB3E0VsaOSsLOVnTIqFnZgJmbcyxdvMja4iL1aCvgyxJVr1EfaaKbDXQtDTuJaN3uVdg3eAkykkq9ovQmRcXdeBy8SqsgwakWQLGkYhkvLfraDdyZt1l54RVW33gbNbuITnPaaUZ67DDTX3iE9PAhGBmD6zdY/e1vsLM3SZ2j7UqYGGHs/hPUTp6EkSZWCRiDGR1BNxtkaYZKUzplSWktvXaHXrdHbaRGx5dIMyffNcP4yWM0HzhK7cHjqPvvY9eXn2Lq4YeonTgOu3ZBrY7VwXbDoPHWkymN6XXg2hVWn/sdy795nvLiRdJehzKD7kSDxiOnmH7qCRgb452z73HhuefpvH6W5TOvs/zGayy8+eagvHWGhbfOsPjWGVbfPUfrwkX8jZuYVgexgndCxwurnTYd76g36jS3j8P0KEmnR2t2jvbVG5ilVUrvELF0ajlmfJx8cgo9NkaSgKjgYm20ChIglQTpadhqhgn4Q8wnQhr5MKdodEhdjyPxHhaWWH37LEtn36TpLVJ26SSG5pEjTD5wGnbtARPczcNFB7KSIdFdCAaswq5X6dCP+ou+VngJHohVdm2Kgu71ayyev4BfXiXxGqMNvUYOEyPUdu+E7duDF1aWQ16PZShNQ5bHvDr50Of5UAnvJc8gy5AkodQKq4JrtVZB7I94RKsQuyeMxo3T3hY+C9zSj4dsU7RCGUOCUNy4QXn1GmVrjcx7jE4RMbGPVvmZKrWP6gd9jB0T712wwVMJHk2vUSfbv5ds796Q82qLoHwEeA/tDjd/81u6r59hpNXCiMcoSJIMW9ohglK14uC9QoXdUpWISYedlBfBpQl+dITRRx+hfvo0TE3RMwYthkR0ZKH92W3ovLc22Mb3W/hoiCQ+1nQkJATXOa98yNliEkyvYO3GTZavXyNpt0nEI60WhbcYo6mPNZFmHWVUMGDXCq9VaGcfDKN1lLZJJTUZLkjIKOot1jlEPEoHI0nvHIktqTuLnlvAnTnL6gsvs/LSq7TPXSBtF5jRcez0NM0H72fqi4+idu4IuYAuXWT5t7+me/UKTWPo4jGT40ycOkl2/0lkdCQElzMaMQZTq2FGx8iaDeojI5TW0lleZXV1mekd06zYDt1aguycovnQcfRjp0i++hgjjz9Icuwoetcu/MQERZpT6gSnQiwEg0L5sDCyOEf7tVdZ+eVvsG+8hV5eop4aFjKPOrKPHd/6OvkTj0NjjIX3LrD6wmskb71LbfYa9dlrJLNzpLNzJLOzJPNzpHOzJHPzqNl59NIyeacksWHoOhRiDCjB2ZJMhNrUCGbXNGQ5qldQ3JjD3VjASYFSPWY7bTqlpzYyQj45CY0ck1Yia4kSEhMCUfUn82oxjVGmNytK0FojPsRRsq5ElCNRwPwCK++8w9JbZ2h6C0WHbmJoHD7M5P2nYPvOQKJ1mEcG431gkE1lgKuC0VPlAurx4W8ErSTsgEWhtAnGt8vLtK5eo5hfYMJkqE6XG2srLBc9dKPByMwMNEbwRqN0BjoDneC0wSuDiypJpQ1OG2yMcxNKsMWyWoXvJ+E7TilMYtAqujrjcCq4xmuVrptHt2a2zxaq6kJDdR/3aeF49ODxCwv0rl6lPT9P3u2RpzUgwbkSpXxURwbVjsTgbVWkWVDgg8OAQlEWjqJRp7Z/H/X9+6HZ2CIoHwnew1qbud+9QPHmWca7vWAGqRSJSbDWDVXecJOG93GuQLwP0UWVQkcvD59nyNgIzYceJj9xHMbHKbXGYEjQUSw2sPIfxsYG2/h+Cx8P/cFXfRBS2MQWjY1YFhTzc7i5WXSvR9M6irKkaHdI0pQkSdHWogn2FqnSZB5yiR4K1qKci8WuL96hvMN4h7aWNHp6JWVJWpQkq2voa7Pwzjlav3uRlZdfw124hF9ZQyuNmxwnP3If448/SOOR+0MSQKXh4iWWfvMcxfXrjGYZPTzp5ARTpx7AnDyFGh0NOyal8aUjUQmq0cSMjlIfb6JSjfUWbwty7+ktr2ELizIp6cgY2cg4zOyA6e1Qb0Ka41WCDNliVIMgUaDWWvD6GRZ+8Syt199Azd0kBSRPWZsaZfzRh9jxzW/CfUcha6JLIV1ZoZy9DrZLpnyc5KIqJV5HVySPmFMnZoHxKiFJExpZii9LfLtD2aihpyfJxsbJshS/uEQxO48tW6SuQ3eth1p1GGeokWFEAvFwIfmZcqFor9FeRS8uhfIhx4gSHw3cNxQPFA5dehCF8SFBWoKCpVXKc++z9MZrjHqLKrr00oR8334mj5+AqRlcaTGZRotHOwnX9fHVCdp5tC1RtkQ5h3YW7UKfMs6H16JAlw6coJwHW6BdgWm3KBYXSYo2qlyjsAW208WIokFKopMYOduA1zB0feNC4kHlPNpbjC8x3q4rSSzGC4mHVITESchrFusrzI0mqkcHCGNya377vNDXSMflLTiDaGqdFnbuBqvXrqNbrdhHFN6XoB2igtE20LfbCm4BYZdmVPBqBLBOaOc5Zs9uxg4egKmpgco8rm+Vx9tAHX934HMhKH23U+dhrcWNX/+W8uzbTNog6tUKjEk2qHj+/+z9Z7AlR3rfDf6ezKo651x/b/tGd8M1vBkMgAEwGBDkGGk4L4eUoRz1vorVG6FQSKKkVYRCipUUq2BQ3xSxkj5trBRihLiUXq0ocgyNJJIzHAMz8G4artEA2vu+9rgymbkfMqtOnXPv7W5g0OjG4Pw7su8pm1mZWZn/evIxGxAUQJzzfjQApbUXDYvCNhPczDRTn72f+NbbYWqSTGu/wCOChIFdgtxWamkUG+0b4zIhngpSKTX6JZqgMuD5YRIRTzZJ1tbIjh1HllfY6kCMob+ywtryGt2lNczKKrqfEmU5rtvHrXVw7R6u28P1+7heb5D6XVyvB70eNutjshQbjqleD+l0cMurFIvL2CMnWXvldbovvMraM8+Tvfs+E2sdYqVwrSb5tq0sPHg/U/ffhb7rZmwj9hPK8WOsPfsjsjNnmEoapDYQlDvvRG6/AyanEOvQTogKP/G7KEJaCcxO0ZyZQDU0yuR03j1Oo5sTG0EVsHJ+lZXFVaJMaOgmLCxgdIx2Cm0V2vq6NNpbsEXW4k6eJnv6ObpPPkN27Chx3iduNejHEVN338m2LzxC8uBDXJhdINJNpqfnmFGG9rnj9PptlAg2amCjJi5q4HQDosSLhGPBJWCTJjZp+f0qQltHYgpcP8OurrIkDjM7w9yO7cjCLLrTI19cJl09R9RdZrpoMN+JSBc7rJ1ZIl9ewXTb6GAl5ToZ0smhk0PPQreAXub9OPTa0O95T769Pq7Xh75P0ulhljvYdh+VFuS9HsZmxChYXsO8+x4rB37MjCtQeUoWRUS7r2Nh/20wu4UszyDrYbsd37e6fVSa+7y6vh/R63iPnN2QOh3oDLbztTZ5t0fWzcj6KcZmJI2ISRHs2jLLJ94hzteYjmJaqSE9t0rvzBLS7uF6KbFVkBYhv5Bvp+uDU3a60FuF7jJ014ZTZw06q7i1DrbTQ7V7sNrB9rqesGuNjhIvYa6tKAyPauMx7oqjFJW4WnXXVhG9EE8QFYMr4MIZlo4eRZZXiZwn68bmiLI1SZ54clIZCXiqEivQrsBYizGOVR0RXXcdC7feCju2+fAYNQxLDoex2f6PA+I+Wt/Sl4WKoOQFnDrLi//6/4X63vfZ1+vibIoSR6wbZFk+Ujn11yp4/nQWW+RYLag4RqPJraM93cDeuJfdf+P/RuPnvggLs/S0InKKCIW4ch3PR47cDFezcT7pKHtWucxSmop7T77+TVU4lDGwtkrx7Asc+fYfsPbyqyystCnSjDwvWIxiivk5pq/bxdze65i77jri2VmU9oqABkdRyWkCpPy+8PoBTin/JWksyvkvS5Nl5GmGOXeBlUPvwanTFMdP4Po9JltN7Mw02dws9qabufFrv0h8z63oO2/COYO0U3jmWU78v/8/rLz4MlujhGVTEN14Pft++S8Q/fk/Dzt3UjgQ0WinQCDHrx3H2kK3DcePk71ygLf+r28wc2EVWVz1ARS7XezUBDN37GfmvrvZ8pWfhd27YH47NCcpdOSD8ylL4grvJ+XFV1n9nd+n98SPMMsX0M5ityzQXZhjz5/7GtM/+wW44w7OxzHNzDJlBd57h2Pf/RM6J07SLArEae9KG2+iiuCtBFSGUzmWCEtEkhW41Q6cOo07eYq0vYLtd7mwcxvzX3iE/V/9MvquW+HUEheefY0zT34HDr7KtJmgkTZYLBxpa4Jk73ZaN+xg+oZ9JDt2YNFAhJIYrRt+6BSHE4OVPCzpDEaBspWVKCKJSQuHixr0p5qovdvZsmMHnFvmwp/8MUd++7+yPe1Bu0MvjmnccQf7vvA4XH8jhUAv7Q7mDuclDs6B4PyyIN6Pjt/2+wjHAXQcQZzQkYQOiubWebbv3I70+rRfeYnXf/s3mblwmhmZwPYc51f62MYkE9fvZWLfHrbtvwU9N4/EGokjr/vtu3KQNOaIFH5H1d/DX4HCRViVUEhE5oRiepKJ63YxuW8Pass8Kglu+NeRkY32jfGRw4X/XNnLvDM2h4867rB+ydYquHCB/PnnOPaNb+OeeZ5mL6NZQFH00VEgKKX1jgTnbU5DkCgmsWBtRm6gsJozEy1mv/AI1//VvwKP/ww0m9igjwfed4oob37vldEH/eFqzoEfK0EZzUpyAyfP8j/+0T9m3zuH2LW6DKoAsYhTOFvGyKhXUFhjCy+udg5bFBAJBkeiE3qF4fSUZvaR+7n+b/8duO9+aCUUKvIa+VahSoc1IwTlajbGTyuqdg+hvl19icdZsAYpMjh7ju5rBzj5/SdYfvYF1OnzbMktqUAqIJEPjJc0m8SNJlpHaB2R4x2iDRBe/vDTT2m+vyjnEBfi3gTlQdXro7pdmmhsv2C5yMkmm8Q37WXm3tuY/exDzDz+Z2B2ht5kQuQMca+DefIZzv5//yvnnvoRC9awpgS9/0b2/MVfZOIvfh2276RvY7RqEIdu5ZR3PIYr0M6CKWC1Tfd7T9B+8TXO/vA57NETTGYpUxMxbjbmXEOYfvQRZh/6PPMPfh527qUTx2Q4ZpVDZX149x2O/o//QfsPvsuO04vYtS5raZ9s/41s/bnH2fpXfhlu3oebaGKaiSeLhUF6KfRS/7Wel3VYKlyUcCAZkONEKIC4l8K5C/R+9ArH/uef0j/9PrOuR7vVYmLfPiYfe4iZLz5Kc9v12KWMxe//Txa/94fIhTVkuQ+poRklqEZCLpYiafnQBuH9E/EKs4EtBGdtgdDaoB1SditxiFZEcYPzaz06xMj+m9j6Zx5n/+cfgbUeZ777HU5/83eYW1lFtfuoKMI0EkwzwTa9Imphyi9Sn62qxh1PCAa9ymfsixZYNw5jctTEBOdcxDmJmb3zLu7+8pdZuPVmyLsc+Z3fojjwMv0T53GLHZJMmJQGEmly51DTU17yG3Itc/NSDwcqmJSK17kZmBF5mlZIRGaFRSt04ybRTTez59HHuO6Rz6Fv2EPUbCBRKdrfeJwbj39XGM5blw30m3w7WilwFIAgaHTfwnsnufA7v0P7976NXlph0kCR91BR2efq9w36JxbEOaJGTFrkiNLEUZMT/Tbxjddx/V/+KyR/5a/D3CxGCSrWYA2WHFHeq4+mUVnFbYSPs49clSWeEn6Jp8uh//nHzC0uMpX2QbzSWVjAGXmN/L6SpJS/cA4iv/4WSURuHZ1WRPOGPcw++CDs2glx5N/0aqEhvPQyrIPycVb+pxLiR9xBG4ATrximRBE1GsSNBKs1PVOwlvYpXE5ic8TkkKXoLEP3+9BuY9dWcZ01VL+N7nVqqY3utVHdNrrbR3dSom4P3et7QtLvoXp9pJ8i/QyVQeoUbaVZm53G3XwDs/ffx9aHPsfk7XcgW7ZhW01MpFHWoouC4shxLrx0gMUjx5mIE/pa47ZsZfau20nuuAUmJymcRqkIXT27T1L35RLFxBMNWjPT6CShl2bkaYrJc7R12CxnaXnZL3mqhEZrksbMDK0k9u/Q4iInv/Mdzv/oGcy7R4g7HTIlyNZ5Wp+9m4VHH0LfeTvMzyNJjETKB89TQZkzTrziXBkSYmYKZmtpZsp7Yp6aws3NIQsLqLk5mJjA9DNWlpYpOm0a/RQpFI1CkyUN1Owcra27kB27mJhs0JiZwDQnWCssvcJQpAYsxE6jDbg0Q/X66L5vI7900kF6XVS3h+70ido9ok4f3e6jO34ZxHX7mHaPzoVlut0UPTnF7M03su2+u2nt3An9lN7xY6y9/TqNLMVlhSfGQZckyjOifh/V7qC7XaJuB93tEPW66G7oT90euttHdVJUL0V1ff6qm/p+1E1xnT5pu0cntejpGXbecSc77roTvXcXzE8zNz/DzJYt9CVmqd1nZbmDyQzKahoSoYzXj1H9MqW+LsrUS31/7fWRbj/8TX3q9aGTY1f7dHs5xA1m9l3PjrvuZPam6zHzM4gq/QBtPsaNx78rjZJYlANB2Celwz8f2FFnDtfNyY8fo//+uxRrbRoWtJaao7VqMBm0qQszZORXErxlqya1Bt1KaOzdR+Pue6E14fVQgiWjdd6780CC8ikmKMM6KF0O/a8/ZjYQFKeGTf2GURvhw/9KgtG39l8bWrxspDcZM3HDXqbvfwB27PTB1Oo+NMq+IarSPfk4K/5TiUAG663ocD5Oi2iiOEamp2hMT9OancFOTdJrxMQYZp1BRcp/OVqLLTLyfo+028akXSh62KxM3Sq5rIvrZ7i+wWY5NssweUaR5xR54aN7uggdT5PPzCF799C4+062PPYoOx59lIl7P4Ps2oVJElwS4ZSgiwLV65EeOcGFV99i+cQpmnFMVynsli3M3n4brTtvg8kprHgvs9V3azmmBHsVUJ5lz0wg87NMbNuKRJqisPS7KaZTEOWweOY0WafN6mqHfi9lfnIaaTSgvUbv0CEOfvPbFG+85Z07WYuZnyK5eR/TX3iAyYfv86bJrRZWB7fvwUOqAkQraETQiCGJ1qdGhItjXCPGNJuYqIFOYiSOcc6RWUt+9gL6zBI6VaiVnAupIY+aTO/YRXTdLtg2T7JnF9HsFvKohVMNnFVkuSPtGfK8wBU5Jh+kqo2yHNcvvHfckExaUGQFeWbIc0OaWXp9Qz9u0tizl+3338vW++/2CoGpQS+e58JrL5H0e5h+ijOGwhaYPPSJfs9Hfk77kKe4LEXCX5en2CyH1GEzg8sKbGaqZHKDyQzWwFq/wExMs+POu9j3yOdo3r4fts+QTkRECwuoLdvRrRmkMYnWLZrxBEoSFJo8TzFZismLoVSUv7OCIjMU9b+5r4ciM5AqTFfIogZTu/ew677PsO2+u5Hd2+lPNkB59eeLYTwGXmlsRlBKqxwf2TvybouIF8/TO/o+vQsXaGQFOlgfrr/HAILXxzTOR7LWKPqmoIgUdsdOZu5/AKamIYqq0liCZSPil3lrNx3tE6PbVxJXhaCUEOug3ePQH/1RRVB8pDUvXr0oQXF+kBcEiwWtsDi0KAoH3YmEiRv3MXXfZ2H7Dog8QSmvL9eyRyUoY3yc8G1hCctswTU4zSbx3ByzO3YwtXsXralJWjNT6B3b0du34xbmMXOzmNlZ8pkZ7MIcbFnAzs+vS25+HrsQji3MYhb8+XZLmeaRnbto7b+Fxp23suXhB9j52CPMPXA/0S37YXYOkgZGi3czAChrUM5SXFhl9fgZuv0+0dwU6dw06rrdzN55G5O33AyTEzg0Wnm/OzDw4eIHluD4S4S8KNDNFszOMTExiVGaVEXYRotiskU226A3EXPewbKx6IlJ5qamcf2Us8eOcertN9HOoKcnSXZtR27YQ+PO25h+4D6iO7zCrlWaonTa7vyyhH8X8Ho8zmCc3TgBBUJuHKkxGOuQKCaOE5oTLbrtDmu9Hm56lqLRYrGRkE5OonbuILluF/HWLbBlgXh2C9NbtjG5fTuTO3YgW7eQTU+Sz0zg5iaw8zPY+RnM/Ax2zv+287M+zflk5mYxC7Pk87PkC7NkC7PYhQXi7TtRe69j7r572PnIA+ib9sL0lK/nvM+p44eRyQmyyUmKuTl6s9NkczPkszMUszMU8zMUC7MU8z7l4W8xN0s+P0cxNxf2h3PLNBf+bp2nMz9D69ZbuOlnH2PyM3fDrm3YRNFxBaIToul5GnNbmN+9l63X7aG1Yzv5zBS9yQb9qRgz2/SxdeanyUOMnXxuimJuusovn5vx23P+PP97BrOwBbOwDW7Yw9b772HnQ/ej9t8A0xOksfcRFa0bU4fxcU4+n05cmqA4q9DOf8Kozirp6aOsHj9Js5vRiCKs9UtBg+uHpSgK7/jNS0MU2ilSaygiRb6wwNb7H6ikqQMFXeeNgRyV1+QSo31idPtK4mPVQaEmPYGgg3LqHP/rH/1j9r3zDjtXV7CqAJzXZnb4qhMGdliEtTYXvsQFrC1wkWCwNCSmVxjOb5lg+5ceY/v//jfgrrshiSlE8G6tgh8U53VQxgTl6sH5mICYYMgKLphTessUOl3s0cOo06ewWY5Jc9J2l6zbw2T+Sxtj1wska7zTO/EK+gUCKE+IXHASHU3MsLB7H8zOoHZu91/dU9M4FVGE2DpOFcGklWDWnMORU6w8d4D2saM0dE7XGZibZe6u25m5906YmcU6jYhGrO/HPkqpl+Apr1YAOPK0T5xE3j/B6hrm/WMsv3OY3vsnUf028bRhzfRYcQlpPMnOG29hz437EeDU4fdITx0h6a2i0xRnCprbtjG5bx/NW/bjduxAmi2sirwTvFANfghcv5w9CgcUzgfaxCmK3PiI41rRTFPotLnw6qusvH2Q6b4jWemxmOXI9AzNu29j4t47aG2bxzQimtZCP/Xh31dXsRcW6Swukl04S7F0HhXGB8dAD8Yrqvql+7K8pQeUQkGhIHKaFg36rSYzd97K5B37YfusX1N3wOnTnHr+WZJuD9vxEpE0S8E6oqBY6HU7wkOLC2EZwmZZY65UiR2GFaGIFW1jmbluH3vv+YwPRdCISCNHHmucS1BO08otqjC+Ds5foH/mDJ1zZ8kXT6HTNoRxcpDKec2XYTCGDnRQwOFUCytNmJtm4eYbmLxlP2zdgo0UvUgTo4gvolvAxzz5fCrhbFCSHdZBcZLjyHFEWBOhDEhu0YcPsvqdP+Dot/6Y2XfPMB0rrOmP3jT89b1UBS/ZBaDRJESsOcNqAmu33cLtv/r3mXr0UZicwCo/HjksSqw3My5jY5V3HROUkqAsY5VXXr0cggJeKd1ag4vBYEkCQVncNs3OLz/Gll/5P+COuyDxk413hu/drPuhZkxQriacC4HbcJhy8nQWcXh/JQ5Ig5lnUUCe41XTjVcwLUxt8B5BUF6kcmwU+pCIJ6Zln2o0YW7B6ylFniQ4UcERlqq8NvoIyQTdJVCdDE4tw8oiTAoUKX1RNLdvh61bcEoHqxhfNotgVNA9KQlKKJ6zBVLGXzDWM4Iz52GtB/0uzCgwGXmhSI2mMTlLPDUDIvRXl2hqByaFNIUi8880PQ0LC9jWBEhQ7yyrSfxwJmU1XQI5zusJWYXNLE4EFSsSYyDtImsdpN/3cYR6KaQ5OI1dmMVuW0BNNCk0KGOInHf8TncAAHW0SURBVPVNYXzUaPLMm/B22kODbfXTuWFbTOsG7V2STuOgX+CiGNmzG6aaFLFgxZIogSyD1bYvVz8DY7yppfNxj0rX+IPKKK0tRstT72e1ihM/M3SLAt2aprF1OzRbWGfIxaCShMJFgCZxPhoUFv/seQZZCquLkHWH718rTtV/q3KFr+6yn7sIWyiKZkKyMA9zs5AkgGDCguKl2vrjnHw+lQjeir26twzaMRAUiHE2DkG2HY2zR+k9/V2O/v/+gNaLh5gUh0g+3PdqCN2w7Bkoq4idpqdhrSGc3buHW/7232bLF38OZmcotArehV2IiFzeZdAPRvvEqC+dK4lrg6D83/8x+w4NExQf/6L2Rm1CULQSTI2gxET0jWVlxyy7/szjzP7VX4Hb7oB4PUEBr0Q0POiM8XHCuTAxOD8Bmmri9M65lPUeQgm6J1jjJyWlwsQV3kYZfqmAQCzCF6aEKLN4KYCfImp2nDrEbykKf89Igwj5oKuhgtVYoSBVfp24mQHk2EaGcZY8N0RJC6cilFPExpfLKR992QSrsVJ64S1SAGcwNseIV9xOdHPwfLmP/osARkHuQAUyJfh6iYJ81hqfXAgHoCOs8hLDMlFWV02Qe6k3IBVLgSOyGuk7rBJUotHioMjQZcxoVYAyvoy5l1CaOPIen8HLysR7uPTkoibmHh2Kqkm5ROnVKowHLhyWQFry3G80W4Ajy/qoWCFRiHLuovBpGUIdt0Id21CHdUhpbRGw4SgZClN1PW8F5V2SKy/5EcFr/TiEBBc8XTtniaLIf2E566Mql/VQ3pPQUGW9VGNgKTUppyEv/cEIGHxfi2NERdiqn/l63vAxahidjMb4qOGlFEH7K7hbsEAO5AgJ2AaFg8I5JlZOk778BMf/8++RfP81mjZHKW9uP8CgzSSMU2F2Q1khsoos0awlcGrXTnb99b/Ovq/9PGydJ1UaHSdeeui8V+5RDPeJUo/z48HHl9NmcPiv5xAOXcoX8oN4tHO1Lw3CS60VKiotd8rzhoe7Ma4+fHuUlKTyYVqN1dY50qKglxf0CkPXWtKgD1EoRaEVRawxUYSJVC1pikh7fyFakytNoSKMaKzSIbCKD5pllCIHUmPIncOVQVeqpRBfQvAWR36kF1JjyCJF0WqwWkAeNaAxgdMx1vrZwItPwwd6kL6U9/T3C11XqTDVCEjQFRHv0r+INZ28IEdBFGGTCBcrcluQmoJcC31TkFpLoTW20SDXETmKwlhMlvv3qXqWQSpxsYnL4ec/RTDTluCanrAkojUGR15kdIqcVWfpRwrTiMhjRe4MaZFjTOGd1SuN0xqnNAYht47MODIHGUIKpAgpQiY+5cq3odFRcBwXFHhLqVcSQ6uBacRYBWgf59UPporcQmodfWPp4+gFc+kcL7VzWuEiDXFIUYSrp7iWV5niGOIEFyXYKCZXES5qQdwkFyFzDokiJE58MMEi9y74sZ4jx16vKbMFnSwldw6rtCeVOsLq2C/L6dinKMZGETaKMVGMiRJM1MBEDaxuYuMGrtnANpoUSpOVEbELizFmaMlqjKuFwZtXSTOR8MHkJWwC4IwntnGEnZxFz0zjmlBIvn75bwR+VxixRMKSrhA58U4uF5e9k0FnQ2gG5/VB8d6iLz0alARoffqocfUJivUBj3p5RloU6CjCWv9CRVFU+8bbHMYYjPFfjUpr75hLCCHUB9f7hq9fOcZVR7CeGpIqBJ0ApUBpRRxHNOKIJIlpJA0iHaHEx2HyCZRYlDiUCn/F66X4yC4K5QL1CTpHFv/i2hD0TYkiThKiRgPiGBdioSgJOkulBZh4GVzDKSbjJlGkEaeYSmZIXIuGtIhsTBziyVgUttJzCkQskIUSTsA4h6gIpXygPEH8cBF8JjSaE4iKKHBYLVgNKlFEiUKUI0o0OlZB0c0RKUVDa5pa04oi4uCyXuqpVgY2GGwcniC6sLQVW/F1G0MUCZ5SWR+QMVboZkSz0WRCNYlUBJFGxRFRkqCbDVyc+AmXCOM01mmQYIatYh8kEG91oFHEShOJIhIv84zwK/cDCcJIuZUOHyX+jEar6Z35ERPrBlEUkTRikmZCo5mg8SECSq7qfYtsnrxDrVoaOioolfhlPBw6jkmaDVzoa6rRRDcbqGaMJBoVa6zzUZyTWDPZahEHa69q6W9d25R6WmVP0kHtNfZLAxL5UAihFn3gRY1oTwhRwxaLG6UxrjT8OOIla2U7evVlaCBEfsnbZEQqh1aL1rY9bLlxH8mWhHa+tr7vhY+fKoWe43NwGOWwGFRhaKQF+fGTcO48xBFJpFHGom2Q4tWlhpvA98CNcbFjHwZXn6CIQmnlbfRrZILyYS/yzpSHfEMPWstZi7UWZ0ckKyMoG3iMq4uhdgg/qmavscqynTfvEvXXdvjcQA0Ge70QZCDBCNOeX2byyzGlIm3pvMtJUBQNU0P58gje66pyg/g1gic9PrvaoDRKDmqrFojydx18Wo089WCRZuhJN6+QGmo9/bLOH0ZVZldu+JJ4cXUoSzjBl1TC8FLWxnB06WoyrJYt6r9DS42QqdqZFcqnGq2Tofqp7jly/w1rc/jKS6NesvWl9H3M96cgVAtpkIcrb3MJ1O9cf5L6c9VrvzzTEfpztW+Mq4mN2sG3Wwh4ShDgOut/NCZQrQloxbhIhWXx0W462v9qA5sQlF8hMgbV6wVdtXyIkEj1X/3mw6nsseuP1IryEeLqExStUUqhdXAeFVAfty4GcSNrZNZ65TtjccZ/aQ2N9wGOy7v/GB8PrtZXnAt9zQayYpX/XU9+GqulsO/iWH+83OP/1iZH+clf7WpYGiE/5c5qYCknydr4dTnwX3zrn2lzVJmPHhhjAwyNRxu0Tb02Pe1bX7uj22NceyjbdbOJvdxWyuvAgYKkSTIxiZ6Y9MuKIp7AlGn0JgGjfUHwenymIigFznqF9XI0Wl+yUbHrBhldQVx9giLrJ6fyd8kUR7+g/LavKH9J+d0A4qSKfooxlXv1jTDcIBths/1jXLP4oE1WmwyqV3LoS7dMA4Ky/tUfxVBvXXeE0IfXHdj4kuHt0WPhXnVJg985KLuVmjLN4Kr6xubY8LQNd3441At8JW57FXDRvKs2Hj5rXd8Lh6vTa2kj1PeXvy/nujGuLTi8PxKl/eI0oiBpEE1Ow+QkNo4riS4jbX1JOFDW+iCbabBkwwGltLiMiDxyt/pA+DHj6hMUa4P42xfFOUccx0RRRJ4XQbGrJsQcIisOpTybBL8A5/UOfJyRvNP1Vhk1lPcYxka1fxVb5VOE0qqrrvh1OdhY0rLxcCysX2uvUjjHlcsV5ULuT4jRfC6Fzc6vtsOu8lmq47U+XdcxgTJIYv1Ta/39L4UqvzL/qt7CDhfacKjOhqncpqniTRu0ywco4yg+/JUfHTYqw/rn82eV0mK/HDS8wlevr80wOGfwzy8WBp2ucky82E3G+FhQb8/NkhJvIKKU12NDRcj8PNHsHCaOq1nJN+egP406N91wFDOGfK0N7Q4UBaKjEI9Oe3PjKiryaKlC2mg54griKhMUX4Va+yWeShBdG+yEGqFYV+MjO0LLlVFrCYqzw+eVFVzuX3fTMT7R+OAvUF36MPR7k3QtQljfzavXppz4aofHuLZQH41+klHpYn10s/1jXDtwzgbF+KAeYp0nDnFCESfBTQFVS19qXBrtR8o6JM38h7t1UDqiFHBlwEHYYNSr57JZbh89rjJBAXDEcUQSx4H/ffDXU1TJ+LxExhmLM8broASCUn6lVF+DwpBW/BifPtRfO0Xp52RgRVFPQ6/oNdRlqqJsNLPVPnhcuV07PMa1jcuaBmoNWp9CxvhkwjpHbgqscxhrsMZ6qUbSxCUNjNY+AGAlyRy0+cXavhq/rPVOC/Pg76nWhaQaMC52p48XV5+gRIJqJn6tzQbtYGd9QCRhUFlDFTcYiSuCIUDQljcEkXdhwBjvgEbw62xV3QficlGSstn+MT4I6hKx+lLO5S7nXFGUehsXkZoQ+tOodOUnxdA9LydtULahcowWauT6n6g7X0S064/UhcuXh+Fn8M7UyudcV9aL5M9GdbFBPQ3nV57xYVGWOmyN1nNI69qwfl6J8plH4Mr/LpY2QXm/+vNeC6/bGBeHc86b9of2MjgfdThJMI0mVun1TR82Rpu3nDLr5yvnkDzDpaPu8j026od1jPar0fRR4+oSFAGSiBvvup1OltHudL3bemfppylRFAfT49HHHzRFURRhS3CiKLRQaEWsI7LVDnZ5mSJLw9nhHiH2gA9v7b1KelJUb+LLGAXGuCxYO6hb5xzGmJ+YqAyu9S+yT/V71vePpvX5rtcPuLIYff5LpUvB1si2cw5n199jfT1cfvIYHY5CCutHXiQdvMdbhw3m/hul0hXAYLtWziD4HE4+Ns4grb/nRve9WDLWjtxzOK0vw3B5XNhYX8+XPjZI4X6h3uqpKsdIWlcHxv+tt5ILZqXKqyJhiwJTjDr5Wp/GuLpQ2vsOcgJKR6g49o4D5+aY3rGLZHomBPsczFnOrX/fS/9FtvbbOYcWaGnh6PuHBq9vlfvlzXkbjABD6aPE1XV1bwpYW+X0b/8uZ//jbzH1/mFmZxKczeinhqmJGVxRBC93o49f/vZUw5uHClrF9PKCdKZJ67ab2fF//h+4n/k80dw8OTERGkEwZFiK4BJKBffn3leFRxhtKxWzMT4M6gOfiFSDahRFiAidTodiRJH5Q0OovVyfvvWM0cHhY3/8UIDLybcq6+Wc/EFQa/ah7vBx4cPmv0HdCQNJS71t3Sa3Vcq7anDhI8AYg4iQJAmtVqs6djF8HOR8jM3b0GApQuQkZb1TR40gx46y8vvf4vA3vsXWoydpFMarsroygGV9dWAY/pj3w5PGEXZ2DnnsYfb9838MW7ZiJAkq7d47tL9igNE+IaKHtq8krjJBMdDrsPiNb3P2P/5nmgcPMj2pcSYjzRyTE9O4Ir8kQXECJoSx1xKRFob+VBN90152/p//O+rxR4m3bKPQTSIfpgtDjqVAnArRjccE5UrBOf+155yPq+OcQ2uNMYYjR47wjW98g3fffXf0sg+B8rUf7StjfFxwXHI1BsLEexmnfWA4Bk0/tIzyMaJ6/iv0jJuhfL9EhDzPKYqCrVu38uCDD/KFL3yBXbt2rZtsRnGp42N8NLgYQckxXh/OeseOCkEd35ygqBpB2eieJUFxQD+OcHNz8DM1gkKMq+l/li48Soz2iU8XQUl7LP/e/+Dcf/wtGm++xUQTbJGR5zDZmsYVmfeot+GkI4GgOAp8DJWIiNxYehMJXL+bnX/zV4h+7gtE23ZQxBNoIgCMK3DiO0LdIG9MUK4MfCwQLzlxIc5St9vl1Vdf5V/9q3/Fs88+O3rJh8CYoFxtfJDB5Eq00Gj+VyKPi+Fq5m+MQQfHl2nql7VvvfVWfvEXf5Ff+qVf4s4776TRaIxeNoTRyWiMK4fRvgJQYAJBEbRVPuTHEEH5NluPnqBR2KDA73W/LpegpHGEmZtFHnuEff/8H+O2bsMSVXPpgJzU5umhPiEfa7DAq0tQrIEsI/3TH3DhN/4LxfMv0IwMsYJetyBSMbHyrmPCFdW15TxksUikKawFUURo8sLSToRi9zYW/tpfZOZ/+zPEe/ZSJC1wEeIUTixgUKWLh/ESzxVFKUHRWpOmKUopjDEcOnSIJ598kjNnzqwbHOvbH3M3HWOMTxy01mitKYqCXq+HMYatW7dy33338cADDzA/P3/J92j0HRzjCqD8htoAOYacAuUU2mpwDo1DnTxB5w9/j/d+91vMv3+MZmHRdYXrQEA2JilewmIFepEmnZhAPf4oN//Lf4bdsgWn6gSFddRpPUHZpPBXAFeZoHiTp+yHT3HhN/4L6TPP0lA5DS30uwWxiomGCMooHAaLijS58Q7fEokxhWU1cnS3zDD/V/4c87/48zRuvJG8NQk29h76cCDG+82TMUG50iiV+ESEfr+P1pokSVhZWUFEiON4XccfE5Qxxrh8FEWBBJ0TgCzLqqCrjUYDrfUl36PRd3CMK4CLEJQCQ3YJgjL3/jFahatcIogbEJOSpAxjsATUizT9kqD8P/8f2K1bK4IyurRTYrRPjG5fSVx9glIUmB89y+J//C90nnyaBhkNLaS9gkg0kVq/JjaAwwaCUli/bJC4CGssK9qxMt1i8s//PDv+4teZvO128tYUkNQIig0ExY0JyhVC2d5lvdoQqVpEiCK/3OZGFGlLlL8/5i46xhifSGRZNkRQCO+btZYsy1BKjZd4rgX8hARl9vAxWrkjqhEUKOOGbUxQPEmBbrwRQdGeoASdqdHrR/vE6PaVxNWdeQUQg4s1phmRaR9JtnJ7fxEPJSUEryQ0GqJcA9papNtFd3tQeD2WoaqtDMU3q/DN9o9xuZAyplINZSgDYwxpmmKMGTo+xhhjfHDEcVyRk6IoqncriiImJiZoNpujl4xxjUEIvkpqQ+aGc+DI1FQ/Z+NZywHOe1nf+I6D6zY+fFVwdQkKDpQl2jHLtluvJ942RzvtgbXMzs2QF9m6yW0UCoHCoo1Dm2BepxxaQWwKOidO0Tt6ArrBMU1ofKmUfcpmGW3WQF7W7R/jg6LOuEsrHhcsDpIkQWuN1PyP1H/Xt8dpnMZp81SPBl8u68RxXO27nHdpjKsL5SBygmbQnr5d/AqB1gMLmpJqeM0Rv4xTHhhuyfIs/9eYAmsN5MN+ca7F+e7qEhTBL6M0IsxEQt6KsNqTBuecd2FfX1sbSf6gd5CvnBdRuRBaXnBoZ4n6Kc1+CsYSifYugtcV4tpqlJ82jAe+McYYY4xLQwjxcpwbEA0RcG7IIV/52V79lXIeC/Pbpt/1nuhEcUQZPLQ8uXTodi3h6hIU8EVImqipKWyrCXFMYS2FNYgarMJslKoVmnCbQbhOX8nKOYp2G7O6Cv0+Ykqz4nD6mJqMMcYYY4xxrSHMU/7zW8BYTPBtM0pOPhD817vXRVIqBDkfkJRrDVeZoIiPoBg3sa0mRauBiTQGh3E2EI4Ql2CDRPlbGLLgFrzikHJg2m3M0hKstXH9fi3C8UC5aKP7jjHGGGOMMcbVwNC3uHM+8nBhwXgJynqE2UsGM1m56FP/CC/ntziOvQQlOPbzqXbiNYKrT1CIIG6RbN9OY/tWTBzRy3OMtYguDYw3pg0uaC4b8X9LSFjL0xbcWpu1o8dxZ88gRV41nI+TEe5cicfqRCWYZo1lLB85Rte9R9MYY4wxxqceDjAWm+XQT8k7PfJ+GVdu9MQaOZEwa9W+uv3HuJfGaKWZmJiEYEVZQsJUKOraGY+vKkHxBEBDlMCWBSZ2bEO1WjitsKzT9NkQtTZY52JaO4fqp6TnzrN2+gzF2pqXoNSuqshIzZinTlLGGONKoL7We62t+44xxhhXD+VoUJEM46AwiDEh7MvgnMGJNTj/X/nZPXpYRNBBAdcaU511LY5CV5WggGBRoCJYWKCxME88OYkojXUOpUardhOEVqhXcLnEExWG/vnzLJ0+Rd7tgqsRlLot1xhjfAJwLZGZuv+aTxI+qeUe46cfDj95Vb3TgTMGjMUZg3N2Y9ZRQ/2wo6bHGY5KzRooy/Pq47z+kX6t4KoSlKrylECjSdacwLUmsDpms5W2zRAoB9TaQjloOtCdHiyt0Ewzrw2tfPwe5FrljWP8tOPDSFDK80b/fpT4Se55rU/813r5xhjDYbHOVtITsc7rnRhDZAwqWPFshtLZWn1HfW60ojC6gdWJFxAEH1TX6ltxVQkKBC+uCpieZfcDD7Nww610iOgVFkJQuctBSXZKBuglKI7ZKKbVy+i9d5T+O4eh3yPF0M9TrM39mlvt3xhjXClkmffrc7FJsvS02+/3q/PZgNAURVF5CS3vWV5bRrItAzTWr7tYKu+X5zl5nlf3zrKs2i7vZ4zBGDNULhGpHIQVRYFzjjzPWVtbo91uV/epI8uy6llL1+xZlg3lM/rs5XMS6qsoiiq/UZRlKIPnjR6rpzHG+FhwkWnGOYfD4ozFpQ5REUo5zPlzLB49RrHWvuQ8JWFxoHS5UdelzCWiE03T2LYHnKKZNCoC4yUt63UCR9PHiatMUEAUFM6C1jAxRd6cII0SMusQUaFaL6NSShHVYNMv8RhHkheopVXsqbOw1vYLSwq4LF+1Y4zx0WB0oi1hrWV5eZlutwsh6FvpZGujAaEU0YpINUGXweEI9yuvKwlCURQjdxlGSTgITr7iOEYFDX+lFFEUoZTCWlt5KK2XzQXSJCGuUhRF1e/Si6kEr8IlESlJRfmspdM+gDRNq/PKuirLWH++ctAsiUhJzkqCU5ah7v59jDGuVQigRKFEeSIigjgfs65RFDSUQm1Cpqu5z5Vb9fMEEIyKsRMz0JyiXD9wriZ2WT/cXFVcVYIioTJNXoCz0Ihpbl0gmpslR4FEwQHN5ijvUUedqCCCM47+0jLtkyfhzBkaWUaz5tF0jDGuNprNJhMTE5Wn3RKX84XvnKPVahHHMVrrynto+bvuffKDok56rLUVWSkJS3lOKWFRSg15C7bWorUmiiK01hXJWVtbI8syoiiqyER5TRzHFTkrA9yV9ylT3ctmef96HqPkqY5L1ecYY1w1iKCURiINESAW+n2K9hqkKUmY79Yt5dQhm8yLgIsU8cwkTDQgUhjcYNXhEnPt1YD+tV/7tV8b3fmxwkGRZcQKyFLU2QusHjlKfn6RGaURZ0P8gMtAaJjw07NRpUiLgn4UEc3O0Ni9k3jHNmi2MMFdm1KbD+DlfcYY4yeFMaYiC+VkXu6PogjnHCsrK5w4cYKzZ8+ytLTE6uoqa2trQ1IJQqwVF8IFlHGNVlZWKklMv+9DO5SSkNFJexSlpKQkA0tLS5w9e5bFxUVWVlZYXV2l2+1Wz1CWpTyf8K6V91heXubUqVOcP3+epaUllpeXsdYyOTlZnVveY2lpidOnT9Nut+l0OkRRVElTlFIYY+j1evR6PdrtNqurq6yurtLr9VhbW2N1dZV2uz30LGXdFEVRSVVGidpofYxujzHGxw4BJQIS+YmnKODCOfqvv0H/xwcoFhdpOUE55+PPhfmpVG8Q3EDCIni74TCLOYFOcwK3bx/bP/dZ2LODLFYoHYET72XdXVvvwdWNZuzlS2ANjgLp9uDFH/P+f/sma08/y/zKGk2xaFeMiKvWw+HboWSNJcNUWtHLCxYbCY1b97Pwv32FuZ//Cuy7gVTFiBJ0NByvoo6yA4wxxk+CUveinHSLoiCq+SE4f/48hw4d4rXXXuPgwYOsrKwQRRFTU1NMTk5yxx13cNttt3HnnXdWZKK8Z5IkPPXUUzzzzDMsLi5W0pQHHniARx99lFarhVxi/VhESNOU8+fPc/ToUd5++20OHTrE2toaeZ6jlGJ6eprdu3dzyy23cMstt7B7924ajUZFtEosLy/z6quv8vLLL3P69GlEhNnZWe655x4effRRZmdnq2Wa5eVlnnrqKZ577jkAtm3bxpe+9CVuu+22SlrS6XR49dVXee2112i32/T7/WqJqSQwADt27GDbtm3s27ePffv2sXXrVpRSZFlGURRMTEwMlXMUF6ufMcb4OOCweK0RjQOk3aF483XOfuvbpH/8HTh/gUlAW09QyvnOChjl9S4j65AgFnGisCisCFaEc1u20vy5L3PTX/0LcM/NdGJNFDVQKMrR6Fp6D64+QbEOnMVSoPIM3jnMmW/+Ict/8kMmTp6m6XK0zT40QRGlya1lTcBt38rkl3+G7b/wVeSuz9CfnEa0Qsd6U8UjudrrYGP8VKCUNJTLCyJCFEV0u11OnDjB7/7u7/L222/zzDPPcPTo0WppA7xb6nvuuYfPf/7z/MIv/AIPPPAAzWYTV9P7+PVf/3W+9a1vcf78eRqNBjMzM/zyL/8yf/Nv/k127tw5JH3ZDIcPH+bpp5/mueee40c/+hHvvfdepVwqYSlly5Yt3HPPPTzyyCM8/PDD3HnnnWzdunXouQ4fPswf/uEf8u1vf5u33noLay27d+/mq1/9Kn/jb/wN7rjjjur8w4cP8x/+w3/gd37nd+h2u9xxxx383b/7d/nKV75Cs9kkSRKWlpb45je/yb/9t/+WtbW1SpJTLjOVy0+zs7Ncd9113HXXXdx///3cf//93HjjjWzZsgVjzDoiNYpL1c8YY1xpeK1Ihw2KrfHSItnLL3H6G9/Gff8JonabhvNSkqBGCcFZqScoEFXkRXAonCiMCIUIZ3fsYPJrX+PGX/5FzO030FFCQzfRTtDlx/jluvf4GHDxN/YKw7ngwtcBSkMUw9ws07t2Ek9OY63CbWCYLeLr0AuuLg5rLVo0LQS3tMzaseNk585DYYjjZMNBq7znxSnRGGNcPkoJRn0iN8bw1ltv8V//63/lP/2n/8S3vvUtDh48SLfbraQW3W6XpaUlnnzySX77t3+b//7f/zsvvfQSWZZVJEdE6PV6nD17ltOnT3Pq1ClOnjzJ2toaKkSMvtTke/ToUX7wgx/wzW9+k29+85u89tprLC4uVvnkec7q6iqHDx/mT//0T/lv/+2/8Xu/93u89tprrK6uDi3z5HnO+fPnOXnyJGfOnOHcuXMcPXqUs2fPVtKOPM8r3ZVz585x5MgRzpw5w5kzZ6rlmlLaVJ5z8OBBjh07xoULF1heXmZpaamyDkrTlGPHjvHiiy/yjW98g9/6rd/id3/3d3n++edZWlpat7wzxhjXAlwt2fC9bi0YZykooEjJ22ukKyu4NCMRNVjaKSeo8Ld+L8I8VnpNB//F7vRAB8VGitIr2LWK9bPzxwgR8a0BXhlWa5hoouZnKZKErrEYylovGaOvToEQ8bGs/I2r2TqLKGhqoZFnyNIyyfIadLq4okABQV96HeHZ+I5jjPHBUVciLRVXO50Ozz//PP/5P/9n3nnnHbrdLs1mk8985jN8/etf5xd+4Re49957qyWRI0eO8Hu/93t873vf4/jx46RpWpGdVquFCjogBPPdchmlJA8Xw2uvvcZ3v/tdnnvuOY4dO4Yxhv379/PVr36VX/mVX+GXf/mXeeihh5iZmWF1dZU333yT5557jgMHDnDmzJkhM99S4bckYSWRajabNBqNSpJU7m80GpWESURoNps0m82hj4c4jtm5cyc7duxg+/bt7NmzhzvvvJP777+fRx99lEceeYTt27cjIpw7d46XXnqJ3//93+fJJ5/kvffeI8uy2tOOMca1gzqpAG8v4qzBuhzylHitDWttVF4QB8vWaoWgdl0dfsp0iAMVbFULBUUkyGQTGrHXW6kvoGx2s6uIq0pQALy9b6hqURBHNG+5mRs+ex95q4kJ4iaxgkINmtM5b36FxbmB6HzYbNgRxQonOcamRBjS46dYfunHcOQwLm2j8WIxVYBNc4osxzo/oFsXghaOMcZPiFKRtdfrYYMfjz/5kz/hN3/zNzly5AgEUnHnnXfyq7/6q/z6r/86//pf/2v+yT/5JzzyyCM0m02KouD999/nu9/9LgcPHoSaxMIEE1wTzHfrEhsTTHOrd6QmwSmKgkOHDvHtb3+bp59+mvPnzwNw880389f+2l/jn/2zf8a/+Bf/gn/6T/8p/+Af/AMee+wxpqenAXj77bf59re/zdtvv11JO5xzle6IC4qq9UGwJDIyopRbkhET/KAopYakHqUScbvdZmlpibW1Ne69915+4zd+g3//7/89/+bf/Bv+4T/8h3z2s5+FUJeLi4t885vf5Fvf+ha9Xq/Kt0xjjHGlUZKPzdI6OLCFweV9lOnChXPw7vtEi8tg7DDR3vAGAP4dN8EFAYUhLTI62iDzE2y7cS9oReyEqbhBoDxeHTRcW09XE9cEQXHi19ssQBLD7DSydQEzPUWqxMfloeQlnoQIeOlJWYGu+m8AESwGS46IJdLQ6qcUR07SPnwYOiuQZxB8R0U6QivtG6ocyK9FWjnGJxLlpKiCRc3Ro0c5efIk1EyCb775Zu6//35uvfVW9uzZw2c/+1keeOABZmdnmZ+fZ9u2bSRJQp7nQw7NRlGfiDeajEvJhtaaM2fOcPjwYRYXFytyMz8/z759+9i7dy87d+7k+uuv59Zbb2Xv3r00m01MsBp6//33ee+991hbW6vy2SxPwpLrRoNeec1mg6LUfL6UhKzZbLJ371727NnDjTfeyGOPPcbDDz/M7t27sdbSbrc5evQoP/7xj3n33Xc3vfcYY1xJjJKS0VSHBIl+hEVnXVi6gDpzjqjd9XoltfdqYwlKqWbr5z8R/2FvlWAmEtTsJNHMJMSRDxxYc1B6LfoEu6oExYUoxFYJTsQr8kQapibQO7fSun43/URRRCqsl3mqMjoAioR96+iEwxjrV5GURimNdrBy+jQX3nmX6MIiZD0sfVAWIkEiH0HZWosahwsc4yOCtbZazpBgWnvq1ClWVlYqicHc3Bx33HEHN954YyU92LdvH48//ji/+qu/yj/6R/+Iv//3/z5/6S/9Jfbv308cx7ggpSilFpulUcJQ3j9NU9577z3OnDlDp9PBGEOSJGzZsoUdO3YwOTlJFEVMTk6yc+dOdu/ezeTkZEUmVlZWOHjwIGfPnl33Xo6iPH6p8z4Mms0mt99+O1/4whe4/fbbERG63S5ZlnHs2DFeeeUVbM3zLjXCOMYYVxOjhEUrIUaRdPtwYYnOhUWyXg8RQetomEaUSz3Oqzw457DO+plSCSqKkDjBxglqcpLm/DxqZhKaCSjBWr8MVC/HtYSrS1BK8ygpdWUVhdIwNYm6bgczt9xA2ozI45KgDJzK1O8BJZ30nFLCtitdZSPeK60oYlHkyyssH3qX7qH3oLuGKIMTT38cpVqL13lR40FsjI8A5TJGaVpcKrSWCqHWWmZmZrj++uuZmZmpJtLJyUnuuece/tbf+lv8vb/39/g7f+fv8Jf/8l9m//79FdkZXb5xIxZD9VSH1pp+v8/Ro0dZXV2t9GQmJiZYWFhgYWGhch4XRRFzc3Ns376dmZmZyhlcp9Ph5MmTLC8vV/fdaOIv931YcjJa9lEopZidnWX//v3s27cPrXW15LW0tMSJEyeGCMpG9THGGFcdzqEkqD10U9zSMv3lJYpeH0FQWlc+T8re62e9MJmHpR0nIEpBFOGiCBvHMDFJMjsDEy1oJIDywQcrBM+ytT1XG1eVoBAGLOccYj21cDrCxRHs3MbUbTeRTbVINWTiMCPRFkUUEqQv1LzrDbiK12txKNLCkBWW2EHcz3CnTtN/6y04dxbJe1BkmCLHGFvJTbyl0LXUXGN8UlGfoPM8p9PpcPbs2WpJpXQkNjMzU+lmlORl586dTE9PMzs7y7Zt25idncUFl/F15VRGJvLyd32fCma5JWxws9/v96syNptN5ufnmZ+fJ47j6nylVKXAWkplnHNVLJ0rjfI5VM3xXD1FUcTCwgIzMzOV5ZIE/y6ldKi8x+i15bOPMcbVhjMWOn04foqVd9+nd/YsUmREsa7F16nNhc7rUWoraKWIksivTAAGoZ3ltAuDm5pkeudOT1CUYKwJH+M+7p2jnDg9roX34qoTFPD2VWJ8JTuJ6GsNc9O0briO5o6tuFZCisVp5RlkEGOJeJJCICXl3/pCj1IanGCt13NRxjJhHa21Dr2338EcO4rprCFFjnKegTq8At9VbpsxfkrggnJm/cu9/uKXhMQYQ5qmQ4SgRBnLpoQEJdM6Rifc0cm3TlRMMPfVwSts/V6lUm19u5zcy3KWxKhcQrpWIEH51wbX+DborWy0zDXGGNcalAiixFuZnjjD2rETFKsrNJSgBPKiqFQjwE945ZwnLig5aO+HwyJYUeSiyKMImZqmtXULNBsggnGuNnMOk5NrBVeVoEgogLYObUFbv88qr4cS79nNthv20piZwghIjaAYa70Iy4tKRlLgmOLQosB6ohJFEcpYWgitfp+Vd97h3FtvUyxegDyvLHoET3xKpjrGGD8JSpJQLjEopWg0GjSbTagRkX6/z8rKCkVRVOcQLF+Ays07tYB+pXWLqy3r1Jcyyt8lQSqVY8vjSZIwOTlJo9GoiEae5/T7/YqElGSlvL5U0HXOVeXYiKSU5SrTKEaPj6aLnbPRMWMMq6urLC4ukuc5OowVIsKWLVuGyNoYY1xdOG+BWqoVhL0igrMO1tp0T55h7eRJinabZuTfryzPcN4FeyVNqW4XyEa1BCQOJ4JEMSRNktk5JrZug0bsdVSc84SoZDnXIK4qQYGaS3rnHbb5AimKKIK5WSZ27cRNT1FEEU5rlFY4Z7CmQFRZr4GYDCmo+A4gIihRREqjROOsIcIy6Szu3DmW3n6b7Ohx6HTAGCIHOpRp/ZA6xhgfDqWUpPyyj+O4IiB1YlAuRRBICECv1+OFF17g+9//Pj/84Q959dVXOXPmDGmaVuSmJBz1VN9XEpQ6WSH4F5mYmKhIhoTlpvryUf1epfSkPBaFuDnl8/0kiQ1IRz3Vn2f0ea31Jpjnz5/nzJkzlaM7pRStVosdO3aMCcoYVwWjn8+BRtT+1fYbi81SWOtgLyxTLK8ieU4s3mdYkeee2MiA2rhASsrcxHnPXp54CE5rbJKgZuZgYQuoyOuoiF9r8EmoLGKvIXzsBKUcJMrkxKEiBYkCBRpIAKUimJ5j/uHHUDfcTieaoLDeBFhh0JJTZG2syWvsUXDO23M7LM4ZwAaloyCq1pBFhtz0aLqc9muvs/InT8CxExBc6scWKFzl5HZ0EB1jjA8KF5ZDXJjkt2zZwv79+5mcnCTLMrTWZFnGG2+8wauvvkoe4uwAnDt3jm9/+9v8u3/37/jn//yf8y//5b/k2WefJc9zXHB3X9cBcSG6cSk9UbV4NRJ0MrIswxhDu93m5ptvZvfu3RUhsiFY4Pvvv8/a2hqNRoM4jjl69CgHDx4ky7KKlGzZsoWbb76ZqampKkZOkiTMzMzQarUAaLVaNBoNTp8+zdGjR8myjDiOSdOUI0eOcOrUKbTWNBoNJicnUSFWUZ0sSdAxKVHqyayurlZE5Pz58/zgBz/g7NmztFoter1eFSZg37591VJWSdBG0xhjfNQYosPOfzT75PubsYbMpBR5ik0zyAt0r09+7CRL7xxBOhkzU1OI9fPS3ORk0Iu0WHFYBVbVpCaFwnUVDdOk4TRpr09apEzv3sXsrXfAjj0gCUKMyGDZU5xDi9QclwYt3NG0wa7R9FHiYycoG0KB0w6nHNo5Ihd0S+IG7N5HfNMtqPlt9I0jLwoUDq0suBzrio3tt732TxBjhW1nMcqSRxbncprOMLm4QnLwCOb9I5jVZbAGLFjjFYhG7zweyMb4MCiXacqJdnZ2lgceeID9+/dXUpWiKDh8+DAvv/wyR44c4fz58xw4cICXX36Z73//+7z44oscOHBgaFIuJSKlRKaUGCilWFxc5NVXX+XFF1/kpZde4rXXXuOll17ilVde4fTp0xRFwdTUFHfddRe33nors7OzSHCbf+rUKd566y0OHjzIhQsXOHv2LG+88QZvvfUWS0tLGGNoNBrceOON3HnnnWzfvr1Snk2ShLm5Oaanp9Fak6Ypy8vLHD16lJdeeokDBw5w7Ngx3njjDV5++WXOnj2Lc444jtm6dStbt26lGWINEd658hlLYhRFEWmacvLkSS5cuMAbb7zBH/3RH/HEE0/w3nvv0Qtmmdu2beOuu+5ix44dFTkZY4yPE0I5H4VpKMwqgjfE8El8sL4sg/PnWTtyjP6p80RpQawjIvzxSIn3GCZ+icfiKoVYByiniUyD2MYo4z82jFZEc3PIlm3QmgSJEYkqC9WBFCV4a78YwvQ3SkquBDkB0L/2a7/2a6M7rxWI83okqtumc+QY3eMnifKUJj5KsRWvVIt4CinOq6QINZMetE9CcIfvQhgmACHPwTlNNjFBsrBAtDBHfyLCYLxZV7lGVy/XeJAb4wOglHKUEhQV/JbMzMxw4sQJ3n77bdI0rXQ/0jTl3LlzvPnmmzz11FM8+eSTPPvss6yurnLDDTfwxS9+kS996Uts3769yuM73/kOL7/8chVIryQFx44d4+mnn+aHP/wh3/ve9/jOd77Dc889x8rKClu3bmVhYQER4ezZs6ysrLC0tES/36fb7dJut1leXubMmTMcOHCA73//+7zwwgucP38eay179uzhy1/+Ml/5ylcqCUX5bqysrFSO6NbW1siyjHa7XUlRXn/9dZ566imeeOIJDh48SL/fZ8uWLXzpS1/iy1/+Mjt27Kh0X9rtNm+88QY//OEPKykNQdKTpilvvvkmf/zHf8wf/MEf8Nprr9HpdIiiiN27d/PYY4/xta99jfvvv39IArMRxu/1GFcMnqUEUuFVGlSlh+4Q8aY4aq1N/s67nH32eXpvv0Oc9mgJaPG+OCwG5wPAVEs41f0FBI1WERZL5go6kcJsWWDijjuY/sy9RNfthiQOfT2sZBAs4qqyXuI9uMjhkux8VLi2CYo4wBDjsGfPsXbsOFGvx4TzTmicCBYVmqqs8FBBg3DGocKdPxaYbKnxHKkGJnesmoLG9DQTu7fRXWiBA41GyfqvrtHtMca4GCQsZ5ZLFwSdlKmpKUSExcVFTp06Ra/XI01TTp8+zYEDB3jllVd48cUXOXjwIKurq+zYsYMvfvGL/Nk/+2e57777qmUcpRQ/+MEP+PGPf1xNznmes7a2xsmTJ3nnnXd49913OXToEMeOHePo0aNMTk7y2c9+lp07d1YSF601q6urnD9/vvr79ttv8/LLL/PMM8/w2muvcfbsWfI8Z/v27Xz+85/nK1/5CnfffXflu8UGh3QAq6urLC0tsby8TK/XI8sylpeXOXLkCK+//jpvvPEGx44dq8jJ5z73Ob761a/ywAMP0Gg0KlLX6XQ4cOAAP/jBDyovskVRsLKywokTJ3jxxRd58cUXOX78eLWss2fPHh5++GG+/vWv84UvfIG5ubmRVlmP8Xs9xpWD/zj20o7gY8uCsxbjCpwrsC4nOnWGxedeZvHlV5GTp4mzjNjZEFNHvOqClB7Oa+QkQIki0jGFNaSuoNtsINftYvqeu5i5927YucOLbKq+vv4DfExQLhMCWJMjrSaNdpfFE8dJL1xA+qkX+SZJJVZSCMr5qALgWYpXBPJCq7LixAnan412mkbcpOgXrHbaNGPN5O7txNvnaegEkRhVWQoNMB7IxvigUCFmjtR8h2itmZ+fZ3Z2lrW1tUpvYnl5meXlZdbW1kjTFIA777yTxx9/nK997Wt8/vOfZ+vWrUjwqaK15vvf/z7vvfce3W63cq5WShqKohjSL2m1Wtx666089NBD7Nmzp7LkmZqaqpaNiqKoyrK0tMSFCxfIsoyFhQX279/PY489xle/+lUefvhhdu7cWUmHXM2yJ0kSohCDqCQVpXSm0+mQpimNRoPrrruOhx9+mF/6pV/igQceYOfOnZXUqVzKef3113n66achKA+LCFmWVZZP7XabrVu3ctNNN3H//ffz8MMP83M/93M8/vjj7N69u1omuhgudXyMMT40yolKnDfecKCcYJzBOUPiLFHWxb39Lue/9zTdt95hptNnQmtsnoF1xEqHsDDUZ7Tax7jz85pojBJ6ztGZniTefyNbH7yf+LbbYHYmzGclSVlHT9bNd+twkcNlqT4qiLvKShUXz96R5T0azsKB13n/279P+/tP0zx6nIYpmGs1yYsUZw3KRigXIUGd2SjPNANXqcgJpa2483ujpEmnl3GejLnbbmL2L/xZmn/mMfR1N2Ebs4hWoNf7mxhjjA8C5xxpmlYOxNrtNnEcE8cxS0tLPPXUUxw+fJg33niDw4cP0+v1aDablbLpgw8+yO23387dd9/Njh07KkJQ3vM3f/M3eeKJJzh79mwVHTjLMlqtVjU5l/viOObBBx/k61//OrfddtsQEXj33Xd59dVXefvttzlx4gTnz5+n1+thjGFqaorrr7+e2267jXvuuYc77riD7du3V9Y/JSEqy7a2tsY777zDiy++yKuvvsqRI0dYXV2l3++jlGJycpIdO3awb98+PvvZz/IzP/MzzM3NVbGGCMqwa2trfPe73+Ub3/gGRTDBzkIcotISyhjD3r17ue6667jpppvYtWsXO3fuZOfOnZVy7MXHmvF7PcaVQ9n3HIVfonEKrMZRIBTotItbOkfnj5/i5P/1e7ijJ9mSWZJI6PbbiLU0tAYFhqJSVSiXjUoGpFyEdgmZiljDsLprG7M/+wVu+NrX4O57YWYmSFAGlj+lq/sKl3gPXM2L7Sg+dQTF5DkRFs6fZuXJJzj7+39E/vJrNNs9tsQxhenjXIEySSAowWJHLE55ZSLEIi5IWJz2ZlihdZyOSI2hU/RRsxM0Hn2Q7V/9EvK5h2HPXohi3AYOscYY44PAhCi9pcO1fvDcGsd+PXh1dbVSJD1z5gy9Xo9Wq8X09DStVou9e/cyNzfH3NzcEBnI87yykDl+/DhFUVSkpJzAlVKsrq5Wirh5nrNjxw6uu+46Jicnh6QLpUTiwoULXLhwgbW1tSoCc6vVYtu2bezevXvIDT7hPS4Vduv7Op0Op0+f5ty5c6RpSr/fZ21tDWst09PTbN++nYWFBWZnZ5mbm6vITVEU1XJRURScP3+elZUVjDHVvpJsaa0rQjM9Pc3c3FxlOl0SM72Bn5ZRjN/rMa4UynlObAHOYEWTKY2mQLkcfe4s6TsHWfrDP2X1D77HVCdjJgciyMixwZGo0oIJKrE+vG74EC/VVK1GjKavI7pJQv/m69n+C3+W7T//87DnBog0RGrII8eYoFwEl8re5gaNgbxN/uYBTvzOt1n5/tNMXVhlPjdYSXEUaBujbIwQohFjcdqBMiAGcQplFeIilI1KiRh9ayDSiBT0ih7963Zx/Ve+QvT1r8G9d0NrorIbD10s6LLgVbJlvZOb+jONB70xSqRpShwC/NX7iKpZ5HQ6HWzw6aGDv5QoitDB46sLy0Nx7JcfS2ua8v5KKeIQJ6fUTyHEzCklK0Uw4W2EWD5ZcLqmgnWMBPPePM8rolBO8lHN70kR/KGUEhRGfLpIiJZcnleWpd/vVwRsamqqqpNSh0VrXd2/XMIq68c5R6PRwFpLr9erlpPK56o/Q3kOwdT5Uu/ipY6PMcaHRUVQTAHWYLWmoyNil6PyLvF7h2k/9zwX/sefwo9eZtZqksxhIpBWTJFnuKJARTp4gLXBmsf6+MXiJSrOCEUOvSghnZrG3H07u//yn2PuZ38O5rdiABUHo5GAD0RQLkJOSlzk6g+Mq66DIiN+UeqDhAsBBJ3zyj86aTGRWRaPnaI4s8y0FZwyWAo0EMcaqyw5BuUgQiHiG5HKeY239HYonGhECVoJThcUKiMtMmzWx7YaJDu2IBPTYIXCOTKlfNyfsuyhKTY0c65hPPCNwUhfL0nJaN+P45hWq1WlJEkqMlJO8PVJeJQc1CUF9X6nghJseW15L8LgWR6vly8Opstl/J1G8IdSv7ZehjKV+8sy14lWec9Wq0Wz2SQKujH1a0frpSx3/Z7l7/JY+Vz1+qiXb7SMG6UxxvgocLGPbhHAGDp5QYFiQkB1OhQ/foO1HzxF78BbTK11iF0gHOKNO3BeOlnpVIog4v2ERG6QUIpChGUDMredrfd/joWHHkJ27KBIIiSJK7WHWqkGmigSCikMdFtGz77Eq3KJwx8Iw2sX1xgc4EQwEuEkgal5khtvYeLmW2F6jtwqjBOMdRhXYF2KURlG5YAjslLF1ylVi1xIVhQmWAA5W1CYDCsFSdrFHDvKyus/ZuX1A3DmNOSFV2gSoXBQuBB9uWbTPlTusfOnMUZQkgA2ICpScxxW/q5PmGU/KveXBKNMJS42ydaJCzUSQFA6Le95sXvUIWHiL5dYyrQRWagnQt7ldRvdszyv/qzlsfo1GxGSOiQQvnKpZ4wxrjQuNeZbIAOcaGKl0YWhWFomPXIcdegYjaVVms6hsDhtEXFIUfgQLOLFFwMLHkE5QTshskJkQYtCkpgiTtBz25jbexOyZRc0Jii0plgnLvG3qhy9VTvLmbJMwxiUYH36KHFNExTB24sLllw7XCywawvzd95Ksu86FhX0UIiKUE5hM4PLLNopIgI5sW4QRKmqQH9PwWJsQW4KnHVEThHnglrtk757nAtPvUD/jTehvYx2OZFYnLMYfLCmgT/AAS7VQcf4dGM8UY4xxqcXhbMUWmgmikkxsHSB9juHWDz0Litnz1CkqScM1dxSxtwp95T6J+VRwYoPCmhFkVvoG0s0P0fjht0ke3fA/BQkEYkoyL3u2ubUYwMIg7M3IjhXENc0QcG5GkGBbgzMTbFw160s3H076dwMaRQRxy1i3UCsIAYiJ8SiEesQ6825KmlVVck+hLJTDqcFrSMaqsGExMR9CyfO0Xn5AOdeeY324UOYpXNI3kNc7uMniFfErisbjTHGGGOMMcZmKJylEIcWi/TWKE6eYPnA6yy+c4hseQUKMyy7qAxOB3sF7+JcCNKPQFKMKHIHmRMmdm5n4uZ9sGsLTDVB+UC4UWn7U1nxXM4EVjo+vWxK85HhmiQopThYKUGUt8KxWAoluFYDbrqehfvvpXnnbfSaLVKnMESIxOGRvI23aO2jErtBjB4Pf08oIBAUhwIbIcREKqbRy0lOn2Pt1ddYfeFF3NEjNLtrTDpDROFd5mygMDT+Qh5jI2y01HGx45dKHxSj14+mMcYY44NjiExw6fleixCJoPIMLpwlffttzIG3sMdOEqUFTa1BxH/8ljF2ABtc23uLnaBXGeQqJTkxokl1RNZs0bhuFxP798GOLdCIMWoQwXyEoVzTuCYJSgXxJVTa/7ZApmOYnUbdfD1z99+DnZ+nb4R+brBWENE4C8Y5nBLvSZZaNCXfpIDxGtASgi45wVqNI0IkYtI45jt9ikPvsfLCC3TffgvOnYW0i3YFggmSlFL8Viv2eOAfY4wxxvhUYIigXAKRUj7mzuoKxfvv0Xn9TeL3jjC12mHSCYnSYaoKntJFqg/hypxYSvNib2JcEpRCNHkU42ZmaO7ZTfPGPbB1DhMprPKBef2U9MmZl65tgoIXbYkICYrEldIRDdu3svW+u5m9YR96aooMIXUOIo1VkNmCAouVwBah1o3KiJJeD0WwQRlXkSvINFhl0C4nWV6Bt95l6aUf037zIJxfRKc5YnykZH+/4Qa/lJLspY6PMcYYY4zx0wftQHX79A4f4dSrr7Dy5ls0Tp9jtrC0tEYTppONUpCZWAfW/8JJ0IcMZMY0EuKd25jetwe9fRskCVhv0GEjhY3U6HR1TeOaJyglpYgQkuBgLbNgZqaIbt/P9jtuZ3rXLqTVwiqNimOcEnJnKMTi4zHVWpj6etqApBB+FUo8QRGLIme+MMycWWL1tTc4/eIrpEeOIZ0uUVGEK4bbe0A6fMlHpSujGJOUMcYYY4yfDvjh3I/prvYxGo56HZOVVVbfP8z5A6/TPfQuzQtLTGYZCQ5dm/PqqQ4/q3jpiV8CCuRECUWzQbxrO8nunTA3BzrC+ekNE0jMT7ay8xNd/IFxzRIU37BAsNF2CC74IbFKQdKE+S1MP/Yo8cMPkm3fyVoB7W5GrDRxKyaTjAIToh4Pm1KV63kaSKyjYS0NZ4idReNQ4nAKVKxwymJPnaHz1PNc+NMn4bU3YXGFqLA4U5CalKzIsHZgHuqXfwzOu4zz/zaRmtQlKhsdH2OMMcYY4+PHKFEYTXUI4JzBWb/8b5zDBOeDmALJU1g8S/Hmayy+8CKdN99HraVEEoNxqKJA1cb/IeGJn7S8R3QrWAeF+CjIiTEY6+g1W0T79rHjkc/DdXug0QRR3jkbkDiIrJ/zlAzHDPT51NUS6rkPleRjxTVLUDy8iTDOExQv6/BmxU4nnqTccjP2M3cR3XADemaevFy9UY5CG6zyYrChjhVCXjvxZsyxhdhaEusJSuSs13UWQEMUa+aynIl3j7H61HMsP/kMvHcE1U/ROKxYjLUUhcGYQFfF4qTw64SUZGuMMcYYY4xPEkZJyWgaPtnhnME6h3Fgg+8iEQcmhxPHaL/4PN0fv0HjzApzxDQaE0QotDGINSOkpMykohBIMPgowuwdFRaDUMzOEt9wI5N33wtbt4OOsQhOeStWZUAXrrJordKm/GOUnGx40hXFNU5QynBIvlJkYKMzqNlmg8k9u5m6+1biu26G2TlsCrZnadqYyGlwA+mJVzgqK9nbjxeiMMo7Yis7nGeqCmUtEYYJ7WhRkJ4+yYkXnufsM88gb72NWl6l5SARAWsxxmKd4JxGXAROeZVccRjBJ1yVPH3ZpLOPMcYYY4zxiYAfvwXnFLlzZArQgsZCtw+nL9B77S1WXnwDdXqRycyQOLDKYWJFGguFAnHBC+gogqGIEU8ykkKhjCZzimJigui6nUzdtBe2zsBUExdpcpy3aB1MeZ8oXOMExZMJFzzoqZBKXzFOgEaDeO91LDxwD817b6exfTvOaFzqSKwmcgoJnadc6vF/PRu0CEYNSIoNLSnBSx9FAUWfyBVMKEuj16b3/ruceeYZLjzxFLx/GMkyIhyRGixHeRuxCO8TsLQb8oRkoKIb1GxHlqDGGGOMMcb45EGUwokiBwpRiBLIMjh9lu6P3+TMs6+QvfE+k8tdpgqHNobcGfIIslhhlPNu7SuSEia7sApgxS/t4CAxCrGK1Crc9AwTN13Pltv3w8IMTLUwkaaoqTV8EnHtEpRSmSdM2KXApEyeAwgoBXPzqNtuYfLeu1C33MTq/CztKCazgg1O2hghBOK8AzeC4lBljizKWwmhceIDD5q8wOUZiThmFEz1e9j3D7P09DOsPPMcvHcY1tpoLIn2GtZGoCi9zbpLK8uOMcYYY4zxyYYNQS9jZ5nAkPT7cPYs/dff4PyTT9F+4y0m1jpMWUdDHNZ4a1OJIhCFNaVag18uIoRTsUHi7k2FrZemOGHVwtr0NOzdw+Qdt6NuugFaDQjz0IauLjbYda3i2iUo4MVl5S8J629VYCO/PJMp5U2ptm5B3XITye23Eu+/CVlYoEBjKw+yNSlFuLdyAihsYL1DxEQ0ThRaR2gETAFFziSWLc4ys7wMb73Nuad/xIUnn4Z33oGVFTAFTjmMchRhOcdnPqzRXXKvT1BfGWOMMcYYYwSlnMMB1jqwlsha4rQP586Rvv02iy+9yOqLLxKfPM0WA9PWERmDKTJya73OirWeoPjgxIM5o5TAC1i8kzZRgkHRiyLYtYupO+5g4vZbYfs2iBWZsxhn/fJOWUg+eRPOVY9mfDFIreGFQXBFKclGIC5KFCKKWBSREgyGot2mWFlGTEHsHFaBKRVYxEd+1CFaMijE+WTDMk9pwiXKr995iZuFoOksFmxWkHX7mOU2Ns2ZaCQwOUHUbKDw4e7FgRYqWhVyGxCU2rHBvk9YLxpjjDHGGAMRg1aOKM9Qi8uYt99h8fkXWX35FeTwYZJej5YIVjtyDNZ5VxXKOnRu0Q7/QRwmvMHSv3fYJs4gJgedkKqYzuwsE3fdwY5HHyK68zaYmQQtCBoR7cO8IH7ecV4fBfXJmV+uWQlKWYUlQSn3DVetgNI+KrGOYX4L8d23Ej9wO/rG60ibDXLlJ/86yy2XW8S5oNfiyYnDJyPeH0quhNyBdd6drVMKZw2S5zStZdYJC0ttWj9+h5Unn+Xsj57DvXMIVpbRRY42BmUMyoG2vhMqW5KUoPA7olE9xhhjjDHGJwPl3FRCCWhlodeBk6dYO/Amqy++gnn3EFvTDtPKktqUQhlIBJ1EaC1E1jFhhSYqzAsDHRQH3ouseDNmTIFV0I8U+dw08U37iG6+HuZnvUmz84FyI4s3KS5nvU+gjuM1J0EZbfASpfCjnMm9VEWwhUWFRsVZaCY0W02izNJeWiNvd2kUPkBTYQvEOZIoIlEaWxTgLFocOvhAURgUBpECpADrwGlv2hxohQtSlEgptFI4Y+n2enQuLNHvdJloJOjJFnoiAhx5WE5ShWfIWL8+mInvfF6NF9hgzXB0e4wxxhhjjCuHIV9UpTAjJGsM4LzUPiizVn+NQZkc+l147xjLz77E2aefxRx8l4lOlym8Tom1/nolCi2CFi9TF6UCo7AUylEEN/YSaSKliZygUSgill1Ed3qeic/cy9afeZTkjttgaorMOaLIx6Rz5X1LCX2YSj5Jc8o1R1BYR1JKEVXpRMan0lTY5BaNQkTITY6KNTI9RawauFzonz5HtNrBOAPibWq0c56hWr8dYYitJXaenCiMJydSIEQ4GsGaKCzQqFJkZlAIkShUVmAvrNBeXkaMoTWVoOYnkFaLQsdoCzqzgY4orAhZ5J9Fo/ya4yYdaHR7jDHGGGOMjx6XcpRpjfVL/A5s4aXjgg+PI4WB7hru1ElWn3uZM99/iuyNg2xd7TKjBMlTrHEoFQVi482FCZaqRoFTBagCq6GQ4ONchAhFZB3iNEiDRZUQ3XgTu770s8x84WHYsR0bJ1gUSnv9yRKVHxYpTY4/OfPJNUlQ6qizV2rLNOW2RqEVXsdEHFY7lPJ+TFrNBp3lC3TWVkizPomDhgV6ffI8RzUSLwFxrtIQ8YGXfKcAQZxCOfHE1on3wBdotRXBKqFw3v+JRjDO0m2v0VtdpWEd8cQU8eQ0yloMFmKNiyOcVr7TIZ5ulaZGGxCS0e0xxhhjjDE+bghaNACFM+QYtA4GoHkBa204+B7tp1/kzBPP0n/jXaY7PaYLC0UGtghWooMZbfDRHRzYO+95XFTkiYvxagGRU2Cga6GjI/J9u5l55H62P/Ig7NsDzQaiNUoHYlJNnH5mG3z2jwnKFUWd3woQBbNjK45CedPeQhw6jlBz07Q0ZFmf3uIyerXLhHVMWIeNFCYaKKeWyzdGSkkJCCowZOeVl1xo7DIwU42g2DwnEUUkinytTfvsOfILiyjRRNPTmEgoGpo8VmSBUUVF8Osy6K8+3zFBGWOMMca4huD1CsR5KUouBhsrElGIy+HCEu7IMdpPvsDq956h98YhWhdWmLPQyAtMnqEjhdIRdh1ZGKwjGWcoHMRx7NcOLMRExCpGOUUboTsxwcRn72b+i4/QuPsOmJ0BrX0ImNoMWS7tDGNMUD42CAORSiE+GBJhn4gmajTQ05PEWtFZWaW9tEiR9WnFGtWIKazXMREpVYm8BMWG/lJXYtVO0M4v7UjoUFaCozfnoHA+4rLSNBzYXpfO+XN0V1bR/YKWsSSNhDiKiCMfEsqKxqlSerKxaNGL5z45HWqMMcYY46cTwd2EMUQaGgqkSOHMGfLX32LphZdZ/NFzFG8dIul2mRKIsWBzjLJIokApbPBvUt5Tao7UbHDGptFEKBQapWNsFJEqYXlqgvz6vcw9/ADzj9yP7NoJzRYFeIsg8San/kO6yqHMbExQPk5IWBO0zlIobyfuNTwURmsKLcStJlGrgTaOfK1NurqMzlIk8q7pcQrBy+lsIChOxNOV0NAqEJSoNNlyXoJilV8jdEpoiPJLOtbSctCyFt3pkC4uU5xfxHY6NHCoRoJMNtFxjIk1BNfGQ11oLEEZY4wxxri2IHiFWByiLKRdOH2K7M03OPfMc5x76lnsW+8yv9JmEk9OxBVIBESKzBmMtYEweEriR/batvIkxhUWbQRREQahL9BPNNnuXcw+8jBzD32Wxu37YXKSXGtMMFfWSvkP9Hqxh+aPMUH5WFE5sgmhGRtW0bQKLQol2i/LxDHNiQatpiJPO/TaS7g0ZcoKIromOQkEJchTtPMe643ySzHlEo+3uhFvliy+EzWCQ7eiKDDW4GLBaUdRZGRrq/RWVkiXlqHXJ7KCimKU9sqxUq1Leox2oNHty8dAlDjGGGOM8dOLYQl0bRFlaD9hzijxwcZW512HuhzaK5gjR+i+8irLz7/A2kuvUhx8h2a3y5RSiFiyIgUsSRKjlcKkGcaYgZ5IWb5ymQchUhotgs0MyglGa3oC7Viw22ZpfeZudnzxZ2ndcgvMbwEdkwUpe2WeXD5XuO1YgnIVYWsERRCauUDuCQWALRwqUjCVEM82Scjory5iF5eZ7RucaAq81nMpPUFAO09QjEChgwTFeuVb7Tw5KU2OLSDBA6BXcbLYCKy2JFgmTY5dXaN/+jzLZ86TdVIirZHJFlGrBVF0BQhKuWxUdv4xxhhjjJ9m+EHfExCf/Ng5GP9GrXQ+6Ngq5JB1sCeOc+bFFzj1gydYe/ZF4qPH2NnvM6nwkewxWCxKCUopP5/YMB6rgfmvL9qgDJEolHGYzBCrBNds0NHQn2kydev1LDz6MM3PPYjMb/EyGgd5pL3JcvCdIqXz0jKPIYwJyk+MskttltadE5zjacT7GcFLPizgcIhSSKxgskHcaKKUotdOWV5eI7O+U2jwduaBmEDNWy2gbCmY87m60LecOAwGCoO2vkOKhP3OgVKoWENhodOjv7JGsbRMvrqM6q/RchZpNlAuR2kLSihEcFZQRiFWvJa4szhncTaEG3T+6cRnVtWd/1m+oKMYnHcxXN5ZY4wxxhjXOEbGw3JUrM8j4LVfHY4C6yMAO+e/GY1F2eB+3lg4fQrefJPlZ1/k3NPP0X7tDThxmlaWMxsniGi/jCMKpTQowTqvFqu0wkUOq4sg8dCI017FAC9Jcdb768KBUopOHNGZmkDtv4GFzz/MzEOPIHuvh0YLQoBbiTSReFWE8rohjEyW60nLtYtrjqAM1eVlJCWCEgkOb8T7lfchdTxxCR5giwhMotFTUzSmZ8EKy0ttsk6XRmaILSTGEYsiRjA4MrHgILLe7t1P/r4jiXhxWunhLyotisJz+KCEglFCKpbEwAIRMyJEqyu0Tx9n9cQRessXmIggz3vYhkAjoYgSnNGoLJiZqZKUlC9aoF7OAgRpjoeD6mUbpilljV0cG501+tUxxhhjjHE1cLGv//XjVBgBxRMEPzZSTdB+rPNHHA4nlgxLagucs2gRpDBIXmD7KXZ5ld4zT7P4v/6IM088Q/HWe8x1UrY4RTPk55Bgd1yW088PpfGFUTlWpyinUS72XrBsFPxsSVkSEK8usJxo1L7rmH/kIeYefwx1y+0wOeul7pH2psXBlb13VyFeZaAG2SCO3ScF1xxB+Sgw6KZB3uEcVnyE4VhFoCK0JESNSdKVNma1gxQOlRtiJcQKUpXRlTRM/1HoPGG9sNS6DubNVsJiT5VxiMSMV6C1KjBxQEW+Q7kiR/UzsuU1lo6cpLiwwmRmg0lZROR8HCCjCqx4yQpKo3QESmMRrPMRLb1tvZcaueCdtg7fff2vS+GT1X3HGGOMTxM2JyjlyCX+Oy789uf7KVzwH5r16buasMN5xjhsURAZSwOLpCmcvwBvH6Lzwsuc/N4PWH7tx9gzF5jo50wjtKzzEnjtHYa6aiIYlIlAX8BHK9Y2QtngoBM8iRJLpP0H8nKRs9aMsTfuY+rB+5j73P3Et+xHZmdBJ0NjvEBNRaBGUMpHGxrRP1kj/E8lQSkhBDNh60mEEUHrGGlMoCdnmZzbhu6kJN0+0i+QborYAk1OGuekcRb8vEY48eZfZfuW22VnrJq8JkURwlKT8p3TKkFrRaQUUVbQ6ObIcpf0+DncuRX0chdZ7UA/xSkL0wmqFVeRlcGbNdugA+PQeK905XJU+a/8LijLMdwpL9Y9P1ndd4wxxvg0YXOCwmBgrpa8PSnxI2D4Z/GuJcpRrpJ2+OMmL9DOkTiDyvpw4jj5a6+x+L0nWPruD+m/8y5qaYWJtGBaNE0LqsjBeuuesggDxVcPhzctFisoq9BWo6x4wiIOpwxOGb/YUziWY43Zt4uZh+5n4fFHmbznLsx27y1WlHcWN4QqK0/Kwnf0CDnxxz9JI/xPJUEpm6BsHIejcA5jARRR3IDGJExO00pi9ESD1BjWOh36eQ+KDKsskYaIGCGqbjzoyv53XXQ4fM5AJyYuAwWKeMsdLaUNEJFSNLSi6HbpnDvH4omTdM+fR/W6tPAmaTqK0M6ibOEDPwViZIPEZNSPyjAhkZoEZVC2zXCp42OMMcYYVwsXJygBQiXprp8t4T/rDIVYrPJSCxWMKMXkRCYn7vdQZ8/C62+z9vRzLD7xDBdeeIn+++/TynMmnSMpDIkxKGvwE4snPU68ZWc5HFejcnB9IiGQn+C9kqO8xCXHUuDoOuioiGLfHqYfuJf5hz/H1GfvhZ27KRpNjPMWqutqobZjfR2Vo/pgTvikQNz6hbufHjj/nzGWzBoKaxEVEcWR7xw5JCvLcOx9Vn/0IheeeIb0zdeZOn+WWFKa2mJVk8IlgJfGqPJv6VWwlKwE+OjIeM+zFk8snCHVjiyCQjmsCu6LLWgVoaOEfmbopjltrXELCzRv2kvzpr1E+29i+r7PoLcsEM/MwOwsTLQoBNJgxRQH98u+29c7o2/a+oqo3968g9a7cYmf5i4yxhhjfHKwfvIdRqWmtykshc3JxaC0/3SLEJQxuG4PWVulOHqM/mtvsfLCa/TfPEh85hwu7dDAkqgYl3vP4VqC1Y0SlPLL+oVy+HCCJUNx1YjqnKCsQwdyopUCrcitoWcMhRK6UROZ3ULrc59h9vGHmX7gPuxNN1AkLTIU2kIjxAIaglA9uK+jsiI2GtE/OfjpJiiACSqlfsPhLCgfUAdjoOEKSDvw5kGWn32J5eefI3/zTdTKItNFinIRYnXlUbYkJuXvQvlE6A7eJT5ExktOnFgslkJZCl0anxlwNjiCK32xCDhNKoq+0qTNBt0kwmzbxvzd9zBx3W4Wbrye5o37YPsWmJqEyRZWa0wVaVk8HakpaQnl8mTovHgasxk26s4/5V1kjDHG+ITg0gSlPlYNyIHfKg0LDIKPXE+/D+0OLC7DhWV6hw6ydvAdlt94h/6R4yTLa8xZR0srtLO4EI24tPIZjKUO55yPByclManD68aICw4qlJ+HDEJmLblESHOCdPsOkttvZ+GhB2g9eB/cuA8zM00RXFwoEbQaqYPqMccE5RMFB/SxFEADRWx9kGLwVj65g5QCiRyTyyu49w6z9tzzLD3zHP133qV1YZFGZmgUpbLtQIJSkpRcQa5LHZCB5CQxPuXakmrrL8DhnKlok5Oi8uOiRKMlwqExVkiNJTOOLGlRTM/jFuZo7tnF1C030ti/j9YNe2jsuw5mZmBmjkJFXuEFBRLM1gIG+lMlSbl4h60rkbHupR9jjDHGuDrYnKCU42s5VoVButwUzxksDuUsKs+g14HTp8kOH6V98H3S947QfeN1onNnKdpdyHJaomhJmDtMMEGONDrSOOf8+G2tDzjrXDUP1LKtfnk9FF+uIDwhNdAvHNKcJplegPvuYfqLjzNxx+1w/T6YnSHTwY9K4BtOe73DioCUPGRMUD5ZcEDfFlhxxE4TOwEbJmgFhYOu6eO0YwaH9PrwzrssvfQqSy8foPvGO8RnzjDf7aKcd32vRfkJ3PnOZsRglPHrjgjKKbRTaOvQxlEoR6E9mxFc5SrZkwXfsa1zlUKXQ2EdOFGI0mRApzCkUYRpNTHzsyR7djF30w3M3XQDjV27ifbfBo0mNJvQbPnfUQRaY8TidDBdC+X2Tny8S+RSoUx8Af1Zo/3ZeaHlxXCxo7V3ZxiDpdoPhHrxPvT14d390NfX8EHvMVQfH6IMP2n+fMR18KGv/4jy50OUYdwGVyP/4Vpbt0xRxzoi4rdHCYoL4zCBnFi8HxAt4n1FOXxIE2vBlhKTNly4gDl1iu6hd+m+9x7Lb79D79hxZGmJKWtpRAlatJeYFxbl/HJO4XLQoLX2Qf9cqMDyeUL5nBuMuYIgSrA2SG80REqhEZaMY000smMnkzftZ+Hxx5n6uZ+DhXmYnIAkIlNeC1I569tqyPP4cCsI9bqrdfBPKH5qCUr5WNXDOW8G7JwbdCIcufOLLhJ5dzlJpw9nF+kfeJezz7xM7/kfMXXkPchyyAuSSJNo7cNiWwNkCFkwQdao0vGO83laQv8Io4FgvTviSgoj4Pz6pbeFD9ZB+L/ebqfAiWDR9JWmKxqmp1GzM7iFrey497MwP8/Url3Eu3bAzp0wOwWTE5gYithiS+mJUyinUHgncJUSjVJIufRV+/BALFpZBBN2jnaXYH59CWx0Rv1ODn9S+boPDV5B+lQ/WWrXhLe2+noJVb1hniWq62sYur5ehvKGtSuqj7PN8h99hhGU5wzVQW2iGKqDTfInXBPOro6WZbhY/oRzhvIPOze8/qJtEJ5mpA4+aP6MtkG9DTepg7LMvuDjNhitgw+aP7U6KB+5rKd1dXA57+FQGXwd1bFZ+SSEHIGyMr0CaoWQtzV+uZzQFwqBKIqIEMgNYgykGfR70OtiThynf/Qoa4feZ/mtg5ijR0mWFol7HVrGeKeeqCCN9s/j47WVD5Uhkg/KAdUziSufz5fcT0EOpbyeirEGpEC0RVuFGDgfxfS3bCW59y62/+zPMP35x+D6/QOXEVLaRYcYQFV+Ehy8bYBN6hTWVf81j596glLbETqx57Ui/hwjDoujCJ5nm8YSdzPk5BL9d0+w/NyTtF9+lv7JM7C4wkRhmHWKWBzaGaxkWNJALvwSi0N7QiEg1lvzEAICenJiUSGujzcJ9k56vHM3X1wrXlwoGL9W6vDLP6LJJKKIIvJIk0YJaaOFmptleucOJnbvZP6mG2nu2I7s2A4zE7AwBbGCpAFx4qUrlK52BScRTmmc8kQlM0VtGHI0YuWthwavIowMxut7/vBC0ujREqOdz2147qA0VLnX95Z7Nrt+GL4dBnVdL0P5e/gem+dfHh2tk4uVocwfhidEPmD+w0c+WP7U6qCePxvW4XD+jNRBPf/y7IvlT60Oxm3w4fMv/47mX559sfyp1cFmbbD++vVlKPMvj37QOtiMoMBgDLfho9IBrgzWF6wgJXjUrpBm3mt3N4W1Dqy2YXmN9PwFiqUlzr31Y4ozp0jPnic/v0jS7dHKg/UO3mjBq86OmhaEJxWDUOoJ1I/5sd6XWbykXfl7DOrHIZEjNz2W+il5FGP27GH63ntYeOhzTN9/H3LDfuzslmB4ESw0hco5pwSPLoPa36CGL1KnsPEl1yo+NQRldLt82YzCe40FciwRQmI1rZ6DlT7mvTdYPPACSy8doPv6OzTOXGBrJ2VCOSbEkUtGKv1wN8GEmD5GK6xWREaIi8HLKGGtUoK1jwneZi21JRY8ey7LGKL9hM6ufYAo60iNoXAOlCZXgmsmqOkp9PwcE1u3MLFlC8XcNAv33EkxPUFjZgZaTZifg1bDExbR0GhhohjRnqSYQJZ8rn7tUwVy50czCURsMLgNIUR9pnwXwkNtdGodjnDSOulHpeYMZU0MDexl3Wx2/TDKd36j8rsNry/bwqOsgY32ltsXzZ/ahR/x5FTWwcUGfi5SBxtfP5w/ZW7jNqiwrg42OGcUVR1slP8npQ3WEaxQhsu8fv05AeEDEoIkQklYEu+HjzaHEgdF4a0dihzyHM4twWoHzi5SnF2kd+wU+ZlF2ifPkJ49i1s7S9Rfw6Q5FIZm0iDS2pfMQmyFyNWXUAIBqo3HQ3Xlyv8kfHyKV2ZF0OLvWxiLcQ5RGhU5+nmHU8phd+1g/qEH2Pn4Y0zecy/s2g0TM5i4GWopuNuv6ZTIOitMX99DGFTxxtiwwq9NfLoJSmgoK44MnxSKCE3LCJID/TW4cILOi69x+ukX6L/+Ns0TZ4i7HSaLDCc5jgwtgkLhglvjQoHRitgKceG9B0o5KFgXbOE9QSmUYNetufryVj5O3KB7ap1grMUE+/uJyRa9IiO1hkwrVvMM1WpBs0mWJExddx0yPU1jZop4ZoapHdtoLcwTb9niScqW7V5vpZF4za1mjHcCo/12FdshlLEUf1a7Rl6S0dHuJ0Y5OIzsqrLZ4CW9GOq3uqzLrmD+XO6lI2Uof34UZbisy65gHVzWZVcwfy730nEbfPD8Ryt6g+3RXdRuU47bIl4Xrr0EJvNkJC9geRW6PWy7DZ0OK4ePYJdW6Zw7T//cIvn5JVjrYFY7uG6HuQlF7HLECVEUewtKJzgnEALBaleyw5BGyMmguOL3lUUMxg44bzGKEyROsKLIcNgoolOkdG1Ocf1u5h68l+2ff4ipz9wNO3dBaworMVbF1Q2lfPaQq6wjKOXeGjaqzzpGL7+G8VNLUEps/nih0wVpRq4cRqRyyqYsiIFIW3ApnDhN/tYhOq8coPvKAVYOHSI/eQJd9JmKhYYomioKa6de2zsX5y16LCjnX97STLkkKIUSL/2o1pDL19yXW4m3sTfWUhgLFuIoRlnvBE7EWwMZ/HJVIVCIUCjlpTko0l4BUQLNBJMkNObnkMkJGrMz6NYkc9t34RpNZKKJaSU0ts7hpppEUxOoVgOSOLwkZc8uy1ruGxWHDqN8qTc6o2ydOqcpv+wGKAeIAcovt7BV1Vg5tmyUVx3l12k93/r1rCvvcBnKY4NhYzj/+jkbYdP8y+Prrr+8/LnMOtgs/3Lf+uuH8+cjagPH8INevA4vrw42v34Ym9VBmcO4DcI5g0PryrBZHbhycg1L2/Wz6qjVmF+Ft7am0A+FMdW5kTMsHzuMdDu4dpeom9I/fQFZ7VCsrGLW2rTPnYEsxaWexDREiHHEzhGJQ4lBpJQNC1gNVhCnfKqC6QXLy6oS/XO7jaRVNSjxS+fWgpII12iQi6IrkMWaXhyTbN3K/KP3s/DY50huu4l85zaIG+ShHLGOwavW1iQ5HrIhQRnBaKFGcYnLryV8ygkKOIJte+iI3kZHfORg4+3mlVJERQZrq3DqNPmPD3Di+RdZfuNt5Px5ZtI+SVYQZ4bY+cCBhTMUYWnC39F3+9KRm4TBoSQoZa+RuikzPh5PFEXkpiDNC5yxRCqqzJm9VVCI1aM1Tgsu0n7pSLyoVZwjN8abLjtH6hxEMRInuCghVxHEMarZhGZMa34G1WoQTbSIWk3vu0VY17ODVs3gZf+QcAxu7WrPPnzG+kGxPDIow2BgLAfXjSCUGQ2/yxe/fuMyjOZfHlh//TA2nZxqN76cOqjnT/1+664fxqZ1UJLJdddvnH95pF4HlzM5bpp/ef2GdbhxGUbzLw+sv34Y10ob1PMnXO9C+S4n//JIvQ6umTbAfwQOnVzCeV2S2g6Kwkfy9VtgjNf3cAjaWc4dO4bOC3SeE+UGafeIsgKdF6jC4LKUSAmJ1kRK0Yy1t35xBrEWW3hG5sOUgIiqvLsq5/mA4B/cEaLFI1VIk+r/MjbbUG2AKIW13rms6Jg0imgDnUgwUxNM7b+VXfc/yNwD9yB33gwLs/STxI+g1hMnJdrrwdTc8JeZSBm1GAaNN4p1bTaCDS65VvEpJijggtTBlpFtnPNLnVicNVhnsIVGXIKLCpzKSYoMzp2h/cYhOm8eovvq67i330WvdlCrXZqFZUoUxhbepbL2CrgqDBh1R2/iwCi/xAMhkFU4XpEUEZxSXpG3tLdHiFzwRGvFe5IV5fVHFPRN4Y1zlMMqy8R0Qm5yisJgjSPPTKUIZkXTsxYTXkQBkiRBKeUjZWohK/JKuXjdYFq+QCNDTf200UGufmxoeKodGL4mVErtmIRrnZT/hXXv2jmboaz7ciIosfn16/OvHamen9o9LpV/idHTNr5+OH9GJp6N6kDCeZuhLLEbOe2D1EF1/Uj+rlbHm6E8/pG0QS1/ave7VP4lRk/7ONugxIetAwnXjuZ/bbTBegJSzylQqaqeSkJQH7OLwktQLP7+IgqswxkD1tKKtI9ArzWR0p5QOLDW4KxFYXHOYEyOKywNmUS5BKMsJri6F2zl8VtJcAMRSiaiq09MR/nQzpe6Vm/VX60onNfTRSd0k4huEiPbFpi5aR8Ln3uUmQcehr27sAszZBpyIKGgYXMcGqsGeYIaahAp1XGqugx1XsdQm22AkdOvZXyqCQowQlAGOh/OGe9UzUY4G9G3fXJyJhQkznhFrHOLLD//Cmd+9ALFyTMUJ0/TWGkzkxkSW5A4H+8hd8ab8AbxXPlil4NDXQ9dHF4D3IIKTtwKCK4HQxCo4K1WWdBOUFaw1lFgq7DeVkmI4FxQuAwIsYBEexNjFEoUDkVjYoLcWkxeYIoCCS+4MRbrLEkj8QPHpgOZ/1E9Q7m73Hase2tkaE/t+nBg+B7r23D4er9n8+vZ4OwPkn91tEJ5fN09PtT1g7M3q8OLXz/YUz7DxhPT6Nnr92xeB+tvGE4b2rP59Wxw9gfJvzpaYdNn+FDXD84uz/pg1w/2lM8wboOqNOvOIpRUwCuX+h2okUB4plri8cvgURT75e6iwIUAfVoErbWXdOtwPM8pTAHWeKdoWqFFo12C2AijHFb8R6jDoJwZSKPDg7u6NMOXtCxKxcWsNdjgnwQBqyNShD4KkzTpzU7Drp3M3X0bOx74DK077oVd+2CiSa4hdwaUEGOJrQFR2LrkpMqsyjqs+tTrcn0rbdBVBtjg9GsVP/UE5XLgqjZzQ2lQM4LDYUMHFmdRNizeLq5g3j/G0utvcv5VH7tBHz3JdJ4zj0OsIc/7nmBo/wXg7ewdzjp0ENkZ58iDPkysI+850KucYFQpkvSa4sra8PUk3ly5TnSCOZ6tCIX/6hk8o3+esgP7AaI0eR5G+V6UzpHWERQut7OXdboZypfxA2D4gS6BK5D/B0KZ92ZluNL5c2XqYNwGHxBXoA6u5Ta4BMGRsORdL9JFp6MwntXPGL2/1MJ8gAMX/E5JKI+UDjH9cf956gvhvVaFu4tALeZNufTvB0WFC2tCeZFhbB5Od2Q6oa9i0kYTmV9A33YL85+7n7nP3Ye7eR/J5CxEExA+JMHfUko3FNUDfcRt8QnFmKCsQ9lZS+2xcm/YDhKWEiorcGsd3JmzdA4foXvgTfK3DpEePoI9cRqVdmiJQVlHLIpIabTDW+FYgxKhkSQYoCC4anYWCcEEXXDYViPRXgML/IJMICrD8NsudP7S8dtGKKUx4f2F8m/58jAgKIT7Vb8HPy+OkTpbj9EH/Ihx1fOn6lcbIwxGmx3+SXHJ/PkY6uBq588l6mDcBlci/4vdzX9kDW+PTkdDW7UPrs2wznmZG3FRMKJ0WhGUoHviPYaHFRZK9Rm/rO4cZNZgcERao5WicJbCOaz2y/VrqoGZnCO+cS/zd93BzH33EN1yM9GuXZj5eZTWIRTJ5hgmKZ9ujAnKOviXeJSgDDB4QZxz3ueJgzhLUZ0OHD9F8dYh2gcO0n3jEN2T78PqGeJeStwrSKwwoSOceB8sDjDO4pSqYixYvGvlUh+F0FVd6aWxFvNBggSlXDoqX/ryOis+mGHJ1kehCBZL///2zq05bhtLwB9Aslst32TJydgeJ5k49mQrm3nZqv3/P2H2Zbcyk9nxXGI7jmRbtiypLySwDwdgo0E2yVYkt3aMr8plEQBxgNO4HOIauFmWdcO6Sq2CxiL0H4bodD1q0wg3ZNvy6UnDtuXzEdKwbfn0pGHb8vkIadiy/NggCf6uMavpsywDyt/xGMoqsmZkiXzwLZ9VvQp26W/xF/9ZisqSG3/+iPeXvw2wyOXiV11ptFFMK0upMsyNHcxkB/WbLxk/+gb974+5/Z9/YPLtU8r9u+SmgCqDzGLypqEU0uX3qZEMlAZSiTsNFFxFsZYSTWk12lZkylCcTeHwDfz0Cv7+kqMf/sjhj/+FfvMefnlHdnLGjbmhQDHOM6yC+WKByjUqUyLbGhlFETFi0YvQ+gC12kDBGylupjTYJYRbre6niILU1yg3zFp/lLR8RMYVJvbvpvuLR7j8L7cVer8cnULbm8xLYIAOti1/67/BtuWn3+DK5Ue0SooNlCCQHz1Zb6C4RbRhzN7A8CGUhPMsNzXLLpqisuTVck2JVcgREAqMBnYySg3z0jKv4DwrMLduk312gL53wOff/wd3vv0DfHkfvnoAd25zPirQlcLOLTqDIl81kmLi9vZTJhkoDdor8arB4v5QFmMyTKlZKMNCG8ZYCmPIpgs4ncHzv3D45z9ifvqZ8x//yfzZc4pXb9HvT9mZy5xnMcrRGnffjaw6l6FJmZf0Bop1C8XiKRuFGCjKtUFLg0bC+SmiZq4E/95gOuJq0q7PVa6yY+AapOFTl8+ANGxbPlechm3LZ0Aarlq+4FPgJYVtT1d3ZGvjZF2YFgMlIra/bO1mUUZGULLKOMMEKiVHUBhnpCyUZa4ss2LEYjyh+vwzJo8fc/PJYyZff8WeXwRb5JDnmCJjlmVUWu4JGlsYGzeltCaZyUBZkgyUBu0VoDGi4muVzbCVkoPZkGPsMwU7uOOSyzN4/wpeHTJ/9hPH//Nnpj/+ncXzV/DLW9TZOXm5QJcLdLUgU4ZcWRkrUS6+ephSSnWcOr8fX3ArUoJWIAwfv/txqkK7TpdcdcN43eVzDdKQ5F+tfK5BGrYt30n3IqIpH+gxUPAjKOuJDZT2D69AatA+Kiv3pmnrdkIqWXNSKgtaYTLNudYsdnawB/tkD+6z+/QJe999x+3fP5VLWm/ehvFE2n7lTgpHptkrBSNgZCwgOzLbSAbKkmSgNOirxEssVo5IRk4PtKVM+yjkem0LcnKhXkC1gA8nlC9/oXz+gvlfn7P42wvM85fM/vFPZkdHLN6/Z6Qsu7mW0RRVkVlDZoys2bIsR0tc5bbI0GM97eMOEKornat4dZGPs+Y8YmePf6+9og9k20PL25bvGtZOrnR6YYAOti1/67/BVcsfoIN/sd/AR9UlMaa7O3K3+3YQGyjhLiFxXepY4YqFC2sBo3KMyqiUpXIjKDbTqCLDjHLsZ/fJ7j+kePwFk6ePufHkCdkXj2BvH/IxZEAmB31WGIzf0OCOmZCdl8iBE2sMkXXunyLJQGnQp46lvy/7FjmLBAO2MlL0M8XCQFnNyHLINVhTUhgL51M4egcvD+EfP/H2hz/x4fkLTl6+pDo+Jp+eoRczVDmnqErGVeXWlcgKc+0WxfqpHKXcNmis3ILsU+m2rsnGumhkxVN/QXiP5ghNXF3Ef9U1DrPExxbGGoS28twfW5yqJet9AroaNpeGTdgsdI8OBj13pL/XFwkRRxnyUXTQlf/Yrc2/O5fdvly6DoaH5JLKAJ25XO8T8JHrwYq0vsBsaKA04vPzJoGHazeDEG5rjhhjcq2fHIZWAVOtmaKYZ5pFkcHNCerWLtmtG9jdXQ6++57bT75l8vUX8OVv4e4+7IzBwGxekhUZutBUxmDkClhZG+g2GtSpUCK7jWSgLEkGysZYqSgsK4KYBKuVAsKPEXlHYeX8lPofMJ3C8TEcvWb+12cc/+V/OX32N6avfmZ2eIg++UAxnZIbd8FDVZFhybWm0Bk5ikmWY8uSypSUVYm1Rg4gMiJ3XIxchaRZq5WbIHLOknR/hJJzcyvd3QsumuULfdVJGoWGS/DX8ryB0HVJdxG1g9bE9IXo81+y/OXX0KKTxodpw6HvuTt9/Tro9hWGhBE21UFb0btMHQz7Wu/27fdf4lMWp7CmrQwQvXCJ+WdQGaA3jn7/JRctA8MlCL7DVkphgkMvw45cPtLCXTey49EEbZfMurh1fgZspcmyMdgcazUVmrNRxnttme3uwMEek68ecefp1+x/8zsmv31A9vj3sH9PItOA1lg3alPnS1EvCah15HdC+oauw0BJLEkGysZYpPhFnTgWGiMBoZ+wMt0CqKqExRxmM3h3Aq/fwuERHL1mdvSa819+5sWffsCcnTF9fwLTKWo6I68MhZG1LjsVZMYdMmQqFAatFXmWySFwi5mXFkj2WIpCrzRMlnCVucJERWR1zUv3RxmtUqOmrdGYR0PNvUPTLW39RvTHH9OV5zp3PoxrlINS0KqVJS1D7T06sPRE2Ut3/DEr+WtBRTpqdp4b6qAn/2xDBx1BfTLW66Av/1xMB31RdtIff8wQHYSsBG+UiVWkjIX5h+lsGoSoncEZCLP5THLh4h5NdurpdqWU7NpRikplsgNTFdh8hM1GzLVi8ugB+t4eo8/vMXlwnxtff8nOoweo39yDG7uwe4tFMakla8WaVl+o64FyT34NTX0pYaKLZKBsjFTi2EDxPm1Fbp2BYq2lVIaFkksGR1bBvITzmfz7cAonb/hw9ILzwyNOXx0xf/Uac3TM7OgN5dt3jKYl2ekUNS8xiwW2WqCqikIrMqXItSVDjnFuRRnyAn/bRQv+bowgZw2DohupkKGDWqMpQTX8Redr6Wno+ulbnxDRk/+6UQpo7ZzWiozzT7cOuqIazGY66AsalnOCMrCig87eNNZBR/6J474gAwyAml9dBriGOtisDAzRQUgj9b3p9SOrKhgtkTfk2XXy1j3XIyaAN0oyXevdKM3xhxlVNsbevIHZncDebUaf3WNysE95Y4d7337D5OHnTA4OYH8f7u7BZAeKQgwbI9eD+OPvw19IRfcIUf+CgSYUy9HnRC/JQNkYUZdUttWCZlsqpbgvVbxioAALZZi5ucocTWFAl0ZOHKwMVDNQJZyewuk5vDqCN+/48Pxnzg6PUCfnLF4fU52dMz09ZX52xunxMVQlpiyhnJHbBXqtAWL9ySqxR01cQrrasLb8V412OKzWTWTLdOgv2l6HJY5/U7rjj6lT3/FKnJxm0G4dNP3Xp9EiQdt9h7I+/jbUBcrBavA4fzGxf3f6tlEG2FAHzaBxHmNi/+40bkMHio1eWcGndd3rdVasGhIKgEVZLnWgFcV47G5qVVQ6Y//h7xjfvcf44C753h1uffGQ8cP7cHAXdkZw5ybs7sBoLFuFlcYoxcJCBWRkaH9dSTJQrpxkoFyQtqpsG9XFuy9DegPFu8gR925O1H3AaDRauYsBMShbkdlKAlSyDoXpTNavnM3g6C3MZtjzKeVsxunxMfPzM84+nLA4PeHZD/9NtmYERX79DLvuqFlcoj1Dvpp8GFcZF1q22Ynb8syWdsR/Rbk9X7aWNYrfiG4ZMX0dk9cDvn1dib0OsQbn71+oI1sv9NfroDv+Nnp1EPjHP+kgHYS97RAddEU3iO74Y7ryT6wDl//lKwPyH5YBfGTrhVp6ohxEt4yYLh34pMj/Sg5NaxtZW4eL3OKuAMG3V8Fb/p4x1+nf2dujGI/I85ysKLh5+xb5eERe5DAa8/DfvpcdN5OxLG69dQNGORQF5BnWGrmcFS2bH7K8Pp3WKskDuClwO2CKJ86gIhkoG5AMlAvSVo1d0W2wzkCRiodMFwUnHjYLvJ9QsmR+USt+0ayV644rK8/WGTCLOUzP5f9x7g5+i+JVStaYW3e9d2vFcamKjJRerGtNfIbrZS7uZsPO3iTunNq0fYlcJP6+4KF/I6uqzTGgRT8XSeNQFHWJHMyQoJeqgw2nHzZlKzroWSRpIx1dZRnggvEPDa5CYys6payhF09LesL3rPMPu7CT9xJflkGeixGSZ/JcjGC0A3khoypaySWuGBZlybyqyLIctNz3LtNHfpREPhhFkt8o4HborM9As8iqKA+JTpKBckFaqg52TV1rM1C8u9e+rY+2t27UREJZlFslLuEr3BXhShrsnJzC5GDdEIWWhVjgDBZTyb9aUJBC7WucawiVkveUSFuhfs27x7kPqIMEYZR79vLiDjgkbpi56s6p7dfsYEjQOMxKduP8RTTyz/9/HcTZ2VgHV5x/rkAHsX8ju3EeIz62Di47/yFxpxw/d7FsJEUf/jh8Kxer4pwBGI2cWp0BUsl4CEq7G+Vl2sZaGZURFcvLbtVKbfeIm3P3It05U16Gb8/9CE7cnTZ+rkBeop9koFyQWGnhc9SkrPrGQ5xO/dZdC+5HSsTRVQ9/+JpyAx7uQsEKg7aazGQoK4cDWQzK2RpaO8NGUVe1GNmKHKTD1ajQqKIxPO8qtiOshLWzlUrrnyUJ/nl1W/FqqkKjydPdMK/32YTNYmlqMiKOrvFCwyGgxYDr6TzW+2zC8Fi6Ul8TRtd4oeEQEetgjeEcsN5nKJvF0JcD+DU6+BepBxFxd7OZNPeCa1tC4fUiWqUAt1sHS2VtvQvRGx5aK1lH4tojv+Itzot17bGk2ULdMq+OAKlAfpy/RpGVwIFDootkoFwScRm8OEFMUicaMXrjwXt3DTFehO4C0e3bRnvq2l23w+Z5uhw+dR186vkn6eBCDNfZ0BwNjzHxMUkGSiKRSCQSiWtHzyqtRCKRSCQSiY9PMlASiUQikUhcO5KBkkgkEolE4tqRDJREIpFIJBLXjmSgJBKJRCKRuHYkAyWRSCQSicS1IxkoiUQikUgkrh3JQEkkEolEInHtSAZKIpFIJBKJa0cyUBKJRCKRSFw7koGSSCQSiUTi2vF/wOBfQW/uLMEAAAAASUVORK5CYII=;" vertex="1" parent="1">
          <mxGeometry x="241.31" y="246" width="65.69" height="37" as="geometry" />
        </mxCell>
      </root>
    </mxGraphModel>
  </diagram>
</mxfile>
